<svg xmlns="http://www.w3.org/2000/svg" xmlns:xlink="http://www.w3.org/1999/xlink" viewBox="0 0 96.2 98.7"><defs><style>.cls-1{fill:none;}.cls-2{fill:#f2701f;}.cls-3{clip-path:url(#clip-path);}.cls-4{fill:#b25317;}.cls-5{fill:#238c50;}.cls-6,.cls-8{fill:#fff;}.cls-7{fill:#2d9b59;}.cls-8{font-size:27.34px;font-family:AgencyFB-Bold, Agency FB;font-weight:700;}</style><clipPath id="clip-path"><ellipse class="cls-1" cx="45.1" cy="45" rx="44.9" ry="45"/></clipPath></defs><g id="Layer_2" data-name="Layer 2"><g id="Layer_1-2" data-name="Layer 1"><ellipse class="cls-2" cx="44.9" cy="45" rx="44.9" ry="45"/><g class="cls-3"><rect class="cls-4" x="22.4" y="38.6" width="16.6" height="25.61" transform="translate(-21.6 22.3) rotate(-30)"/><rect class="cls-4" x="32.5" y="55.2" width="60.1" height="30.53" transform="translate(-26.9 40.7) rotate(-30)"/><rect class="cls-4" x="58.1" y="39.6" width="30.8" height="25.85" transform="translate(-16.4 43.8) rotate(-30)"/><rect class="cls-4" x="55.3" y="33.8" width="16.6" height="25.61"/><path class="cls-5" d="M62.6,23.4H52.1V24H39.5v-.6H29.3a.6.6,0,0,0-.6.5V72.3a.6.6,0,0,0,.6.5H62.6a.6.6,0,0,0,.6-.5V23.9A.6.6,0,0,0,62.6,23.4Z"/><path class="cls-5" d="M16.1,42.9l-3.7-6.3a3,3,0,0,1,1.1-4.2l13.2-7.6a3.1,3.1,0,0,1,4.1,1.1l3.7,6.4a3.2,3.2,0,0,1-1.1,4.2L20.2,44.1A3,3,0,0,1,16.1,42.9Z"/><path class="cls-5" d="M57.4,32.3l3.7-6.4a2.9,2.9,0,0,1,4.1-1.1l13.2,7.6a3,3,0,0,1,1.1,4.2l-3.7,6.3A2.9,2.9,0,0,1,71.7,44L58.5,36.4A3.1,3.1,0,0,1,57.4,32.3Z"/><rect class="cls-6" x="15.1" y="32.2" width="1" height="13.5" rx="0.5" transform="translate(-17.4 13) rotate(-30)"/><rect class="cls-6" x="69.6" y="38.5" width="13.5" height="0.97" rx="0.5" transform="translate(4.4 85.6) rotate(-60)"/><path class="cls-6" d="M51.9,23.4v.4H50.8a3.7,3.7,0,0,1-3.6,1.1h-.1a8.7,8.7,0,0,1-2.8-.5l-1.2-.6H39.8v-.4H38.5a7.4,7.4,0,0,0,14.7,0Z"/><path class="cls-7" d="M39.8,23.8A6,6,0,0,0,45.9,29a5.9,5.9,0,0,0,6-5.2Z"/><text class="cls-8" transform="translate(39.8 59.9) scale(0.98 1)">3</text></g></g></g></svg>