<svg xmlns="http://www.w3.org/2000/svg" viewBox="0 0 90 90"><defs><style>.cls-1{fill:#7bb74a;}.cls-2{fill:#5b823d;}.cls-3{fill:#4c4b55;}.cls-4{fill:#393940;}.cls-5{fill:#f7ad3b;}.cls-6{fill:#fbcf29;}.cls-7{fill:#f6f6f2;}.cls-8{fill:#efefee;}</style></defs><g id="Layer_2" data-name="Layer 2"><g id="Layer_1-2" data-name="Layer 1"><path class="cls-1" d="M41.3,89.7A42.6,42.6,0,0,1,9,71.6C-1.2,57.3-2.8,41.7,4.7,25.8S25.4,1.2,43,.1C66.4-1.4,87.7,17,89.7,40a27.2,27.2,0,0,1,.1,2.8l-6.6-6.5L71.4,24.7l-.3-.2c-.3-.3-.7-.8-1-.8H11.8c-.3,0-.6.5-.8.7a24.8,24.8,0,0,0-.3,2.7c.1,4.9.3,9.7.5,14.6s.6,12.6.9,18.9L27.8,76.4Z"/><path class="cls-2" d="M71.4,24.7,83.2,36.3l6.6,6.5c.8,6.8-.7,13.2-3.2,19.4C79.4,80.2,59.9,92,41.3,89.7L27.8,76.4,12.1,60.6c2.6,0,5.3-.1,8,0l20.7.2H51.2c3.9,11.3,18.1,15.7,27.4,8.4l-1.2-2.5A18.8,18.8,0,0,1,65,69.1c-4.9-.7-8.3-3.2-9.8-8.1h3.5c2.5,4.1,5.2,4.4,9.9,1.1,2.8,2.8,6.3,2.9,9.2,0a11.1,11.1,0,0,0,3.1-9.9C80,46,76.2,42.5,70.6,40.6c.1-3.2.3-6.5.5-9.7Z"/><path class="cls-3" d="M40.8,60.8l-20.7-.2c-2.7-.1-5.4,0-8,0-.3-6.3-.7-12.6-.9-18.9s-.4-9.7-.5-14.6a24.8,24.8,0,0,1,.3-2.7L16.7,28a2.7,2.7,0,0,0,.7.8L40.8,44Z"/><path class="cls-4" d="M40.8,60.8V44C46.9,40.2,53,36.4,59,32.5c2.1-1.3,4-2.9,6-4.3h0l.6-.5h-.1l1.1-.5h-.1l1.8-1,2.8-1.7.3.2-.3,6.2c-.2,3.2-.4,6.5-.5,9.7a17.4,17.4,0,0,0-10.1.8c-7.4,3.2-10.7,10.3-9.3,19.5Z"/><path class="cls-5" d="M71.1,24.5l-2.8,1.7-1.8,1h.1l-1.1.5h.1l-.6.5h0a34.3,34.3,0,0,0-4.4,1.9L41.3,41.3c-.2-1.7-.4-3.5-.5-5.2V23.8H70.1C70.4,23.7,70.8,24.2,71.1,24.5Z"/><path class="cls-6" d="M40.8,23.8V36.1c.1,1.7.3,3.5.5,5.2a25,25,0,0,1-2.5-.9c-6-3.6-11.9-7.2-18-10.7A38.9,38.9,0,0,0,16.7,28L11,24.4c.2-.2.5-.7.8-.7Z"/><path class="cls-7" d="M51.2,60.9c-1.4-9.2,1.9-16.3,9.3-19.5a17.4,17.4,0,0,1,10.1-.8C76.2,42.5,80,46,80.9,52.1A11.1,11.1,0,0,1,77.8,62c-2.9,2.9-6.4,2.8-9.2,0-4.7,3.3-7.4,3-9.9-1.1C57.8,55,60.5,50.4,65.6,49a41,41,0,0,1,4.9-.6l3.2,1.1a77.7,77.7,0,0,0-2,8.4c-.2.9.6,2,.9,3s2.6-.6,3.2-1.4c3.2-4.4,1.9-13.8-5.2-15.3a11.1,11.1,0,0,0-12.4,2.7c-4,3.9-4.6,8.8-3,14.1s4.9,7.4,9.8,8.1a18.8,18.8,0,0,0,12.4-2.3l1.2,2.5C69.3,76.6,55.1,72.2,51.2,60.9Zm18.2-8.8c-3.7-.6-6.5,1.4-7,4.9-.2,1.5-.5,3.3,1.5,3.8s3.1-.6,3.6-2.3S68.8,54.2,69.4,52.1Z"/><path class="cls-4" d="M55.2,61c-1.6-5.3-1-10.2,3-14.1a11.1,11.1,0,0,1,12.4-2.7c0,1.4-.1,2.8-.1,4.2a41,41,0,0,0-4.9.6c-5.1,1.4-7.8,6-6.9,11.9Z"/><path class="cls-8" d="M16.7,28a38.9,38.9,0,0,1,4.1,1.7c6.1,3.5,12,7.1,18,10.7a25,25,0,0,0,2.5.9L60.6,30.1A34.3,34.3,0,0,1,65,28.2c-2,1.4-3.9,3-6,4.3C53,36.4,46.9,40.2,40.8,44L17.4,28.8A2.7,2.7,0,0,1,16.7,28Z"/><path class="cls-8" d="M66.5,27.2l1.8-1Z"/><path class="cls-8" d="M65.5,27.7l1.1-.5Z"/><path class="cls-8" d="M65,28.2l.6-.5Z"/><path class="cls-2" d="M70.5,48.4c0-1.4.1-2.8.1-4.2,7.1,1.5,8.4,10.9,5.2,15.3-.6.8-2.1,1-3.2,1.4s-1.1-2.1-.9-3a77.7,77.7,0,0,1,2-8.4Z"/><path class="cls-4" d="M69.4,52.1c-.6,2.1-1.2,4.3-1.9,6.4s-1.8,2.8-3.6,2.3-1.7-2.3-1.5-3.8C62.9,53.5,65.7,51.5,69.4,52.1Z"/></g></g></svg>