<svg xmlns="http://www.w3.org/2000/svg" viewBox="0 0 1365.9 336.1"><defs><style>.cls-1{fill:#628b43;}.cls-2{fill:#7da561;}.cls-3{fill:#618c40;}.cls-4{fill:#6d994a;}.cls-5{fill:#7da460;}.cls-6{fill:#608d3c;}.cls-7{fill:#65884b;}.cls-8{fill:#5b873b;}.cls-9{fill:#567d3a;}.cls-10{fill:#80a240;}.cls-11{fill:#5c8242;}.cls-12{fill:#608e3d;}.cls-13{fill:#86bc5e;}.cls-14{fill:#4a7031;}.cls-15{fill:#6d9e48;}.cls-16{fill:#6a9b43;}.cls-17{fill:#9abe5e;}.cls-18{fill:#6faa43;}.cls-19{fill:#7ab64c;}.cls-20{fill:#557d39;}.cls-21{fill:#9dc065;}.cls-22{fill:#7eba4f;}.cls-23{fill:#66894d;}.cls-24{fill:#85bc5c;}.cls-25{fill:#496d2d;}.cls-26{fill:#689c3c;}.cls-27{fill:#284c18;}.cls-28{fill:#406428;}.cls-29{fill:#699b40;}.cls-30{fill:#fefefe;}</style></defs><g id="Layer_2" data-name="Layer 2"><g id="Layer_1-2" data-name="Layer 1"><path class="cls-1" d="M1187.9,221.3q8.5-37.8,16.9-75.8c.4-2,.4-4,1.8-6.2l3.6,13.9c-1.1,2-2.9,4-3.1,6s.5,6.6.8,9.9l3.3,30.5c1.3,12.7,2.4,25.3,3.8,38,1.1,10.6,1.5,21.4,3.7,31.9,2.6,12.1,6.7,23.9,10.2,35.8-10.9,2-16,8-16,18.7,0,3.7,0,7.5.1,11.3h-11V314.6c-5.2-.8-10.1-3-10.8-9s0-10.2.3-15.3c.4-7.3,1.1-14.6,1.7-21.8l-1.3-.2c-3.8,15.7-7.7,31.5-11.6,47.4,5.4,1.1,9.7,1.7,13.8,2.7,1.6.4,4.4,1.4,4.5,2.3a141.7,141.7,0,0,1,.3,14.6h-24c1.6-6.1,3.2-12.2,5-18.8l-4.8,1.9-11.2,6-8.9-20c-.3-3.9-.8-7.8-.9-11.7-.2-5.8-.1-11.6-.2-17.3,9.1,1,16-5.9,16-16v-4.7l8-10.3C1181.3,236.7,1184.6,229,1187.9,221.3Z"/><path class="cls-1" d="M470.8,213c4.1-17.9,8.1-35.9,12.2-53.9.3-1.3.7-2.5,1.1-3.8h5.8a29.9,29.9,0,0,1,1,4.3c1.1,10.5,2.1,21,3.2,31.5,1.3,13,2.5,26,3.9,39,1.1,10.5,1.5,21.2,3.8,31.4,2.5,11.8,6.7,23.2,10.1,34.8-12.4,3.8-17.5,8.4-16,22a41.3,41.3,0,0,1,.1,5c-.5,6.3-1.7,7.5-7.6,8.1a13.1,13.1,0,0,0-3.2,1l-.3-8c.3-4.5.7-8.9,1-13.4.2-2.9.3-5.5-4-5.8s-7.6-4.2-7.8-8.9.4-11.2.7-16.9l1.2-20a72.6,72.6,0,0,0-4.6,14.1c-2.6,11.2-5,22.5-7.5,33.8H463l-5,3-11,4c-.7-1.2-1.5-2.4-2.1-3.7L438,296.3c-.3-3.6-.7-7.2-.8-10.8-.1-7.6-.2-15.3-.1-22.9a60.3,60.3,0,0,1,.8-7.3l12.5-4.3c2.9-.9,2.5-2.8,1.7-5l8.6-10.5Z"/><path class="cls-2" d="M1228.9,305.3c-3.5-11.9-7.6-23.7-10.2-35.8-2.2-10.5-2.6-21.3-3.7-31.9-1.4-12.7-2.5-25.3-3.8-38l-3.3-30.5c-.3-3.3-1.1-6.6-.8-9.9s2-4,3.1-6c4.9,18.1,9.4,36.4,14.9,54.3,4.5,14.7,10.4,29,15.8,43.5a35.4,35.4,0,0,0,3.3,6.1c24.8-25.9,34.8-58.4,42.8-92,3-12.7,6.9-25.3,10.4-37.9.8,1.7,2.5,3.5,2.4,5.2q-1.2,19.8-3,39.6c-1.5,16-3.3,31.9-4.8,47.9-1.3,14-2.6,28-7.5,41.3-2.1,6-3.7,12.1-5.5,18.1l-13.9,5c-.5-7.9-2.7-10.6-9.8-11.6l8.6,13.4c-.2,3.7,1.3,7.8-3,10.2l-9.3,2.2-.7.9h.1c-5.1.3-7.4,3.3-8.1,8v2Z"/><path class="cls-2" d="M511.9,296.3c-3.4-11.6-7.6-23-10.1-34.8-2.3-10.2-2.7-20.9-3.8-31.4-1.4-13-2.6-26-3.9-39-1.1-10.5-2.1-21-3.2-31.5a29.9,29.9,0,0,0-1-4.3,32.6,32.6,0,0,1,1.1-6.1c.4-1.1,1.8-2,2.7-3,4.7,17.8,9,35.8,14.5,53.4,4.6,14.8,10.6,29.2,16.1,43.8a35.7,35.7,0,0,0,2.8,5.2c28.3-29.4,37-67.2,45.8-105,1.9-8.3,4.8-16.3,7.3-24.4.9,1.3,2.3,2.4,2.6,3.9s.2,4.1.2,6.2-.7,7.2-1.1,10.8c-1,10.7-2.1,21.4-3.1,32-1.3,13.2-2.3,26.3-3.9,39.4-1.4,11.5-3,22.9-5.4,34.2-1.7,8.3-4.9,16.4-7.5,24.6l-13.9,5c-.7-7.7-2.8-10-10.3-11.5,3,4.5,6.1,9,9.1,13.6.1,3.9.6,8-3,10.9-2.7.3-5.6.3-8.2,1.1-8,2.5-10.4,5.6-9.8,11.9Z"/><path class="cls-3" d="M562,270.3c2.6-8.2,5.8-16.3,7.5-24.6,2.4-11.3,4-22.7,5.4-34.2,1.6-13.1,2.6-26.2,3.9-39.4,1-10.6,2.1-21.3,3.1-32,.4-3.6.7-7.2,1.1-10.8l6.4-.2c4.3,19,8.5,38,12.8,57l10.5,24.1,3.3,4.2c-3.7,9.7-7.4,19.4-11.2,29-.4.9-1.8,1.3-2.6,2-1.2-3.4-2.4-6.7-3.5-10.1l-1.1.3c.4,5.6.9,11.2,1.3,16.8l-4.1,7.3,5.2,1.7c0,1-.1,2-.1,3,.4,7.5-1.4,13.4-9.9,15.2-.9.2-2,2.6-2,3.9.1,5,.6,9.9,1,14.8-.4,2.3-.7,4.7-1,7-4.8,2.4-8.1.8-10.1-4,0-4.3-.4-8.7.2-12.9s-1.8-9.8-5.7-12.8S565.5,272,562,270.3ZM597.6,231h-.4v1.6h.4Z"/><path class="cls-4" d="M697.2,191.2l2.7,3.3c-.5,1.4-1.1,2.8-1.7,4.1l7.7,4.7,7.1,11.8-.2,4.2a16,16,0,0,0-2.3,3c-6.6,13.4-7.3,10.2,6.5,16v5l6.9-4,7,2L725,269.2l-13,15.2-9.1-8.1c.5-1.4,1.1-2.7,1.6-4.1,2.8-7,5.7-13.9,8.5-20.9l.7-1.1-.4-.3c-.1.5-.3.9-.4,1.4a24.9,24.9,0,0,0-3.8,3.4c-4.8,6.2-9.4,12.4-14,18.6-4-6.8-13.4-11.9-7.1-22,3.8-3.7,7.6-7.4,11.3-11.3a19.7,19.7,0,0,0-2.2-2.7c-4.3-8-4.3-8-10.1-5a50.4,50.4,0,0,1-2.6-5.2c-4.3-10.1-4.3-10.1-14.5-6.8a29.6,29.6,0,0,1-1.5-3.1l-28.2-76.5a19.8,19.8,0,0,1-.3-3.5l3.1-10.9h23.8c1.8,10.2,3.2,20.4,5.3,30.4,1.6,7.9.3,11-7.3,13.6-3.4.5-2.9,3-2.8,5.3s.6,5.2.9,7.8c.8,5.2,1.5,10.3,2.2,15.5l8.8-1.6,3.4,6.9,3.7-4.9Z"/><path class="cls-5" d="M602.2,245.4c.8-.7,2.2-1.1,2.6-2,3.8-9.6,7.5-19.3,11.2-29,1.6-6.4,3.3-12.8,5-19.2,1.5-8.9,3.1-17.7,4.7-26.6,1.1-5.8-1.2-11.5-5.1-12.4l-4.4-12c-3.6,4.6-6.8,8.4-10.3,12.8l-7.4-8.9c3.4-4.3,6.8-8.3,9.9-12.5,18.7-25.2,28.8-54,36.6-84,2.4-9.2,5.7-18.3,8.6-27.5.8,1.7,2.3,3.4,2.2,5-.5,6-1.3,12.1-2.4,18.1-3.1,16.7-6.3,33.4-9.4,50.1-3.1,11.9-6.1,23.9-9.2,35.9h-1.9a.6.6,0,0,0-.1-.4h-.3l.4.4c.3,1.3.7,2.6,1,3.9-3.6,1.4-4.5,5.2-3.3,9.7a73.8,73.8,0,0,1,3.1,15.4c.4,4.9-.5,9.9-.8,14.8-.6,10.8-1.3,21.5-1.9,32.3-.5,5.4-.9,10.9-1.4,16.3L626,265.3h-1a16.4,16.4,0,0,1-3.5-2.9c-2.6-3.3-5-6.7-7.5-10.1-1.1-1.5-2.2-3-3.4-4.8-1.8,6-3.2,10.4-4.7,14.8l-5.9-.9-5.2-1.7,4.1-7.3Z"/><path class="cls-6" d="M1279,279.3c1.8-6,3.4-12.1,5.5-18.1,4.9-13.3,6.2-27.3,7.5-41.3,1.5-16,3.3-31.9,4.8-47.9q1.8-19.8,3-39.6c.1-1.7-1.6-3.5-2.4-5.2.7-3.3,1.5-6.7,2.3-10h1.9c3.3,9.1,4.5,18.7,6.6,28.1-.8,1.4-2.2,2.8-2.1,4.2.4,8.7,1.1,17.4,1.9,26.2,1.6,18.4,3.3,36.7,5,55.1.5,5.6,1.2,11.1,1.8,16.6s1.1,13.5,2.1,20.2c1.8,12.5-.8,17.8-12.1,21.8.4,5.5.8,11.3,1.1,17l-.9,8c-8.8.1-10.1-1.2-10-9.9,0-3.8,0-7.6-.1-11.4,0-1.2,0-2.9-.7-3.7C1290,284.7,1286.1,279.5,1279,279.3Z"/><path class="cls-5" d="M919.9,85.3c3.3,10.7,6.7,21.4,10,32.1,2.7,8.7,5.2,17.4,8,26.1a19,19,0,0,0,2,3.7l.3,2.4,1.1.4c1.9-4.2,3.8-8.4,5.6-12.7,1.3-1.4,2.9-2.6,3.8-4.2C961.3,114.2,966,93.5,970,72.5c2.5-13.1,5.2-26.1,7.9-39.1.2-.7.7-1.4,1-2.2,1,3.2,2.9,6.3,2.8,9.4-.2,10.8-1.1,21.5-1.8,32.2-.5,6.6-1.4,13.1-1.9,19.7s-.8,14.4-1.2,21.6l-3.9,31.3c-1.4,10.6-2.7,21.3-4,31.9l-3,1-13-5.1c.3-3,.7-6,1.1-9,2.1-4.7,4.2-9.4,6.4-14.1l-1.7-.7c-1.9,4.1-3.7,8.3-5.5,12.4l-5.7,5.5,3.4,7-11.8,19c-3.1-11.3-6.2-22.6-9.2-33.9a95.8,95.8,0,0,1-2.9-10.1c-3.3-19.5-6.6-39-9.6-58.5C917.1,89.1,919,87.1,919.9,85.3Z"/><path class="cls-4" d="M129.9,165.2c1,1.7,2.3,3.2,2.9,5,7.4,21.8,14.7,43.8,22.2,65.6,1.2,3.6,3,6.9,4.9,11.3L171.8,222c0,3.9.5,7.8.1,11.7-1.3,11.9-2.7,23.9-4.2,35.9-1.8,13.5-3.8,27.1-5.8,40.6-1.2,8.5-2.6,17-4,25.4H125c.6-2,1.1-4.1,1.8-6.1,3.4-8.9,7.1-17.7,10.3-26.7,1.2-3.3,1.2-7,1.8-10.6,2.6-5.2,5.7-10.2,7.7-15.6a26.2,26.2,0,0,0,1.3-12.4c-2.2-12-5-24-8.1-35.8-4.3-16.8-9.2-33.5-13.9-50.2C126,173.6,124.7,168.4,129.9,165.2Z"/><path class="cls-7" d="M1314.8,247.3c-.6-5.5-1.3-11-1.8-16.6-1.7-18.4-3.4-36.7-5-55.1-.8-8.8-1.5-17.5-1.9-26.2-.1-1.4,1.3-2.8,2.1-4.2,3.2,14,6.5,28,9.8,42,.6,2.7,1.3,5.5,1.9,8.2,3.4,7.6,6.7,15.3,10,22.9l7.5,10.6,5.4-22.6,3.1,4c-5.3,3.6-2.6,8.5-2,13-.6.4-1.7.8-1.8,1.4-.8,5.7-1.9,11.4-2,17.1-.3,16.5-.1,33-.1,49.5l-7.1,44.1h-27l2.1-8.1c4.8.3,3.5-3.5,4.1-6l5.8-9c2.4-7.3,4.7-14.6,7.1-21.9.4-1.7,1.3-3.4,1.1-4.9-.8-5-2-10-3.2-15-2.2-9.1-4.6-18.2-7-27.3l-.8.2Z"/><path class="cls-4" d="M851.6,182.1c3.4,10.8,6.7,21.5,10.2,32.2,4.1,12.5,8.5,25,13.3,38.9l8.8-20.9c3,2.1,3.8-.4,4.9-2.2.4,2.1,1.4,4.4,1.1,6.4-1.1,10.4-2.6,20.7-4,31l-4.5,33.9-4.5,33.9-1,.8H846a35.3,35.3,0,0,1,1.4-5.6c1.5-4,3.7-7.8,4.8-11.9,1.6-5.7,2.5-11.5,3.7-17.3s5-9,6.8-13.8,4.6-7.4,3.3-12.6c-5.6-22.1-10.7-44.3-16.3-66.4-1.8-7.2-4.5-14.2-6.8-21.2-.1-5.1-.5-10.3,4-14Z"/><path class="cls-8" d="M322.4,224.2l8.6,15c-2.9,1.1-5.7,2.5-8.6,3.4-7.6,2.3-12.6,6.9-14.5,14.7-.4.8-1.3,1.6-1.2,2.4,1.2,8.4,2.5,16.9,4.1,25.4.7,4.2-.2,6.8-4.8,7.1l-10,.2-13,1.9a22.6,22.6,0,0,0-4.5.1c-4.7.8-7.2-1.2-8.9-5.6s-3.1-5.7-4.7-8.5l-2-31.9-.8-1.1c0-4.7-.1-9.3-.1-13.9,5.7-.4,11.4-1.4,16.9-.8,7.4.8,8.4,8.1,10.8,14.2L305,232.3l9-9.1Z"/><path class="cls-8" d="M1039.1,232.3c3,5.2,6,10.4,9.1,15.6l-6.7,2.7c-7.7,2.5-14.3,6.2-16.6,14.7-.5.6-1.5,1.3-1.4,1.9.5,4.4,1.3,8.8,2,13.2.9,6.4,1.9,12.8,2.8,19.4l-15.4,1.5-7.9,2-15,.2c-.8-1.6-1.5-3.4-2.4-4.9s-3.8-5.5-5.7-8.3c-.7-16.3-1.3-32.7-1.9-49h12.4c7.1,0,10.5,2.7,12.5,9.6.4,1.5,1.1,2.9,1.9,5.2l15.2-15.8,9-8.1Z"/><path class="cls-7" d="M87,335.4H51c-1.2-9.9-2.2-19.9-3.5-29.8s-3-22.2-4.5-33.2c0-3-.1-6-.1-9h19c7.5-1.9,10-.4,11.1,5.3,1.7,8.8,3.8,17.5,6,26.1.3,1.4,1.8,2.5,2.8,3.7l11.8,23.4a36.2,36.2,0,0,1-4.1,2.7c-4.2,2-5.5,4.8-3,9A8.7,8.7,0,0,1,87,335.4Z"/><path class="cls-9" d="M718.5,167.2q15.2-51,30.4-101.9c.4-1.2,1.7-2,2.6-3,.8,1,2,2,2.3,3.1a86.5,86.5,0,0,1,1.1,8.9c-1,2.9-2.8,5.8-2.7,8.7.2,10.3,1.1,20.7,1.8,31.1.4,5.7.7,11.5,1.2,17.2.8,9.4,1.7,18.7,2.6,28-.6.8-1.6,1.5-1.8,2.4-1.4,5.5-2.7,11.1-4,16.6l-22.1-2Z"/><path class="cls-9" d="M976.8,114.1c.4-7.2.7-14.4,1.2-21.6s1.4-13.1,1.9-19.7c.7-10.7,1.6-21.4,1.8-32.2.1-3.1-1.8-6.2-2.8-9.4s.6-6.2,1.3-9.3c.2-1.4,1.5-2.5,2.2-3.8,1,1.1,2.4,2.1,2.8,3.3q9.8,32,19.2,63.9c3.6,12.2,7.1,24.5,10.7,36.7l-11.2,10.3-21.9,2a20.7,20.7,0,0,1-1-3.3Z"/><path class="cls-9" d="M261.9,22.2a49.2,49.2,0,0,1,1.1-7.7c.4-1.8,1.7-3.4,2.6-5.1,1.1,1.6,2.5,3.2,3.1,5,9.5,31.4,18.8,63,28.2,94.5l1.5,5.2-11.5,9.2-21.9,2c-1-4.3-1.9-8.5-3.1-12.7a34.6,34.6,0,0,0-2.8-6.2c1.3-17.8,2.5-35.7,3.9-53.5.5-7.4,1.6-14.8,1.7-22.2C264.8,27.9,262.9,25.1,261.9,22.2Z"/><path class="cls-9" d="M1.7,158.2q11.2-38.4,22.7-76.8c2.4-8.3,4.9-16.6,7.5-24.8.4-1.1,1.6-1.9,2.5-2.9.8,1,2,2,2.3,3.2.6,3.1.8,6.2,1.2,9.4s-2.7,5-2.8,7.5c-.1,6.3.5,12.6,1,18.9L40,150.2c-.3.8-.8,1.7-1.1,2.6-1.3,5.8-2.7,11.7-4,17.5l-8.3-1c-7.3-1-14.8-1.4-20.4-7.4A40.2,40.2,0,0,0,1.7,158.2Z"/><path class="cls-9" d="M775.7,138.9c5.9-19.9,11.7-39.9,17.5-59.8,4-13.4,8-26.8,12.1-40.1.4-1.3,1.7-2.4,2.6-3.6.9,1.3,2.2,2.6,2.6,4s.7,4.9,1.1,7.4-2.3,5.9-2.5,8.9.6,8.2.8,12.3c1.4,20.8,2.7,41.5,4,62.3-1.7,7.3-3.3,14.7-5,22l-18-2Z"/><path class="cls-2" d="M40,150.2,36.1,92.7c-.5-6.3-1.1-12.6-1-18.9.1-2.5,1.8-5,2.8-7.5,2.7,11.9,5.7,23.8,8,35.8,4.4,23.7,8.8,47.5,21.4,68.5,5,8.3,10.2,16.4,12.3,26,.2,1,.4,1.9.5,2.8s-.6.7-.8.7c-15.5,2-12,4-18.9-10.3-.7-1.4-1.3-2.9-2-4.3l-1.2.4c.7,2.3,1.5,4.6,2.2,6.9,1.7,5.1,3.3,10.3,4.9,15.5l-13.4,6-3-1c-1.3-12.1-2.5-24.2-4-36.3C42.8,168,41.3,159.1,40,150.2Z"/><path class="cls-2" d="M261.9,22.2c1,2.9,2.9,5.7,2.8,8.5-.1,7.4-1.2,14.8-1.7,22.2-1.4,17.8-2.6,35.7-3.9,53.5-.8,8.3-1.6,16.7-2.5,25.1-1.5,12.6-3.1,25.2-4.7,37.8l-3,1-13.4-6.2c1.7-5.1,3.3-10.3,4.9-15.5.7-2.3,1.5-4.6,1.1-7.3-1.8,3.9-3.9,7.7-5.5,11.7s-3.9,4.9-7.7,4.1-5.5-.9-9.4-1.5c2.6-6.9,3.9-14.1,7.7-19.6,14.2-20.5,20.8-43.7,25.4-67.6,2.9-14.7,5.9-29.3,8.9-44C261.1,23.7,261.6,23,261.9,22.2Z"/><path class="cls-10" d="M157.9,335.6c1.4-8.4,2.8-16.9,4-25.4,2-13.5,4-27.1,5.8-40.6,1.5-12,2.9-24,4.2-35.9.4-3.9-.1-7.8-.1-11.7,1.5-4.3,2.9-8.8,4.6-13.1.5-1,2-1.7,3-2.5.6,1,1.5,2,1.6,3.1,1.3,12.2,2.4,24.5,3.5,36.7a10,10,0,0,0-1.5,2.3c-2.8,10.8-.3,21.4,1.2,31.9,2.6,18.4,5.8,36.7,8.7,55.1H172.2l-11.2.3Z"/><path class="cls-5" d="M757.8,159.3c-.9-9.3-1.8-18.6-2.6-28-.5-5.7-.8-11.5-1.2-17.2-.7-10.4-1.6-20.8-1.8-31.1-.1-2.9,1.7-5.8,2.7-8.7,2.7,11.9,5.3,23.9,8,35.8l8.1,35.8c1.7,5.3,3.1,10.7,5,15.8,1.2,3.1,3.2,5.8,4.9,8.6a27.6,27.6,0,0,0,1.6,5.1c4.3,8.8,9,17.3,12.9,26.3,2.9,6.6,2.5,6.8-4.5,7.7-1,.1-1.9.5-2.9.7-2.9.7-5,0-6.3-3.1s-4.2-8.6-6.4-12.8l-1.1.4c2.2,5.6,4.5,11.2,6.8,16.7l.9,6-13.9,5h-3c-.5-5.4-.8-10.9-1.4-16.3C761.7,190.4,759.8,174.9,757.8,159.3Z"/><path class="cls-11" d="M887,222.4c-3.9-1.8-7.6-3.9-11.6-5.5-7.5-2.9-9.3-7.2-5.7-14.4a39.6,39.6,0,0,1,4.1-6.8c11.5-14.4,13.8-32.1,18-49.1,6.4-26.3,12.2-52.7,18.2-79.1a8.8,8.8,0,0,1,1-2.2c0,3.2,0,6.3-.1,9.5-.3,17.8-.6,35.5-1,53.3-.3,12.7-.6,25.5-1,38.3a18.9,18.9,0,0,1-.9,3.8c-3,6.7-6.6,13.3-8.9,20.2-3.2,9.2-5.3,18.7-8.2,28C890.4,220,888.3,221.1,887,222.4Z"/><path class="cls-12" d="M47.9,213.3l3,1c-.6,4.7-1.3,9.3-2,14l-3.9,2a48.7,48.7,0,0,0-5.4.1c-10.9.8-21.8,3.9-32.7-.1-1.8-11.5,6.4-16.4,15.4-21.5L.1,200.3c0-12.5-.2-25.1-.1-37.7,0-1.4,1.1-2.9,1.7-4.4a40.2,40.2,0,0,1,4.5,3.7c5.6,6,13.1,6.4,20.4,7.4l8.3,1c0,5.7.4,11.5-.1,17.2C34,198.9,38.4,207.3,47.9,213.3Z"/><path class="cls-7" d="M803.8,335.7l-35.8-.3c-1.4-9.9-2.7-19.9-4.1-29.8L760,280.3c-.1-3-.1-6-.1-8.9l5.6-.3,13.4.2a10.3,10.3,0,0,0,2.5-.1c5.9-1,7.3-.1,8.6,5.8.5,1.9.5,3.9,1,5.8,2.2,8.5,1.8,17.9,8.9,24.5.1,1.2-.1,2.5.4,3.5,1.7,3.6,3.8,7,5.6,10.5C810.4,329.7,810.4,329.7,803.8,335.7Z"/><path class="cls-2" d="M813.9,130.3c-1.3-20.8-2.6-41.5-4-62.3-.2-4.1-1-8.2-.8-12.3s1.6-5.9,2.5-8.9c4.1,19.7,8.1,39.4,12.3,59S835,144.1,846.2,161c3.5,5.4,5.1,12.2,7.3,18.4.2.6-1.2,1.8-1.9,2.7l-4.7-8.8-3.7-1.7-1.3,3.7-3.8-6.1c-.9,2.3-1.9,3.6-2.1,5.1-.8,5.9-1.4,12-2.1,18l-9.8,4-2.8-2c-.5-5.4-1-10.9-1.6-16.3C817.8,162.1,815.9,146.2,813.9,130.3Z"/><path class="cls-13" d="M48.9,228.3c.7-4.7,1.4-9.3,2-14l13.4-6,31.3,49L77.9,267.5,89,281.4l3.9,2.9,14.3,22.1c.3,2.6.7,5.2,1,7.8s-.4,5.6-.6,9.1l-4.6-4.9a37.2,37.2,0,0,0-21.2-20c-1-1.2-2.5-2.3-2.8-3.7-2.2-8.6-4.3-17.3-6-26.1-1.1-5.7-3.6-7.2-11.1-5.3C57.5,251.6,53.2,240,48.9,228.3Z"/><path class="cls-13" d="M235.5,164.1l13.4,6.2c.7,4.6,1.3,9.3,2,13.9l-12.5,34.1c-.5.1-.9.5-1.4.4-8.3-.8-8.5-.2-10.2,7.8s-4.7,17.4-7.1,26.1l-.8.8h.1c-8.7,3.7-15.4,9.8-20.7,17.6-1.6,2.3-3.5,4.3-5.2,6.5l-1.2-4.2c-.8-11.8,5.4-20.6,12.6-28.9,4.5-5.1,9-10.2,13.4-15.5a43.8,43.8,0,0,0,3.5-5.9L204.2,213C214.8,196.5,225.2,180.3,235.5,164.1Z"/><path class="cls-14" d="M383.8,145.3c4-16,8.2-31.9,11.9-47.9,4.9-21.1,9.5-42.2,14.3-63.3a25.9,25.9,0,0,1,1.1-3.7c0,4.2-.1,8.4-.2,12.6-.6,21.9-1.2,43.8-2,65.7-.5,14.6-1.3,29.1-1.9,43.6-.6,3.1-1.1,6.1-1.7,9.2-1.4,8.6-3,17.2-4.3,25.8-.6,4.3.7,7.4,5.7,8.1,1.6.3,2.9,1.9,4.3,2.9-6.1,5-13.2,2.9-20,3-.7-4.7-1.3-9.3-2-14,3.5-11.8,7.1-23.6,10.4-35.5.3-.9-1.5-3.1-2.6-3.4C392.5,147,388.2,146.3,383.8,145.3Z"/><path class="cls-6" d="M1340,291.3c0-16.5-.2-33,.1-49.5.1-5.7,1.2-11.4,2-17.1.1-.6,1.2-1,1.8-1.4,2.1,7.1,4.4,14.2,6.2,21.4,4.8,18.8,9.3,37.7,13.9,56.6.2.8,1.2,1.4,1.7,2v32.1H1339c.3-6.4.7-12.8.8-19.2C1340,307.9,1339.9,299.6,1340,291.3Z"/><path class="cls-2" d="M1136.9,58.3c3.8,12.7,7.9,25.3,11.5,38.1,8.8,31.5,21.3,61.1,43.8,86-1.3,1.8-2.5,3.3-3.7,4.8l-3.9,4.5-10-12.8-4.7,11.4h-3l-8.8-14c-2.5-9.6-4.9-19.2-7.5-28.7-1.4-5.2-3.1-10.3-4.7-15.5-.6-3-1.3-6-1.8-9.1q-4.6-27.6-9.1-55.1C1134.4,64.5,1133.7,61,1136.9,58.3Z"/><path class="cls-2" d="M419.9,50.3c3.3,10.7,7,21.4,9.9,32.3,8.1,29.8,18.9,58.2,38.2,82.8l3.5,4.2c1.1,1.4,2.2,2.9,3.6,4.5l-7.6,9.1-10-13.1c-1.7,4.5-3.2,8.3-4.6,12.2H449c-2.7-4.9-5.3-9.9-8-14.9-.4-1.7-.7-3.5-1.2-5.3l-9.9-37.8c-1-3.5-2.3-6.9-2.9-10.5-3-17.4-6.1-34.8-8.7-52.2C417.8,57.9,414.9,53.4,419.9,50.3Z"/><path class="cls-7" d="M307.9,257.3c1.9-7.8,6.9-12.4,14.5-14.7,2.9-.9,5.7-2.3,8.6-3.4l13.6,20.1,2.9-3.6c2.1,1.5,4,3.5,6.3,4.4s4.6,3.7,4.2,7.2c0,1-.1,2-.1,3l-14.8,22.1c-2.5-1-4.6-4.9-7.6-1.9s-3.2,4.8-4.7,7.3l-7.9.5-3.9-1Z"/><path class="cls-7" d="M1024.9,265.3c2.3-8.5,8.9-12.2,16.6-14.7l6.7-2.7,14.2,21,1.8-3.6c4.6,2.1,9.5,3.8,11.7,9-.3,1.7-.6,3.3-1,4.9s-1.6,1.7-2.2,2.6c-4.2,6.2-8.3,12.4-12.4,18.6l-6.8-3.2-5.6,9.1H1040l-3.9-1Z"/><path class="cls-15" d="M605.9,262.3c1.5-4.4,2.9-8.8,4.7-14.8,1.2,1.8,2.3,3.3,3.4,4.8v12c.3,8.9.5,17.8,1.1,26.7,1.1,14.8,2.5,29.5,3.8,44.2l-7.9.7c-12.8-.1-25.6-.2-38.4-.5-.9,0-1.8-.7-2.7-1.1,1-2.9,2.6-5.8,2.9-8.8,1-9.4,1.5-18.8,2.2-28.2l2.9,4c2,4.8,5.3,6.4,10.1,4l3.6,9.8c-.1,1.8-.2,3.7-.4,5.7,5.5-2.2,13.4-24.5,13.7-37.5v-1C608,275.7,607.5,269,605.9,262.3Z"/><path class="cls-16" d="M1345.9,210.3l-3.1-4c1-6.1,2.1-12.1,3.2-18.1-.1-2.3.3-4.6-.2-6.7-1.4-5.8-3.2-11.5-4.8-17.2l8.7-14c8.4-2.1,9.3-9.1,10.3-16h5.7q.1,52,.1,104.1l-3.9-.2c-3.6-.7-5.1-3.1-6.1-6.6a186.1,186.1,0,0,0-6-17.8C1349.3,212.4,1347.3,211.5,1345.9,210.3Z"/><path class="cls-12" d="M644,97.3c3.1-16.7,6.3-33.4,9.4-50.1,1.1-6,1.9-12.1,2.4-18.1.1-1.6-1.4-3.3-2.2-5,1.9-7.9,3.8-15.9,5.8-23.9L661,0c.6,1.4,1.2,2.9,1.7,4.3s.2,5.1.2,7.6c.4,10.9.8,21.8,1,32.8.4,17,.7,34.1,1,51.1.1,5.2,0,10.3,0,15.5s1.3,10,1.9,15H643c.6-7.5,1.3-14.9,1.8-22.4A37.2,37.2,0,0,0,644,97.3Z"/><path class="cls-12" d="M1136.9,58.3c-3.2,2.7-2.5,6.2-1.9,9.6q4.5,27.4,9.1,55.1c.5,3.1,1.2,6.1,1.8,9.1s.8,7.9.9,11.8c.2,5.8.2,11.6.2,17.4a37.8,37.8,0,0,0-4.6-1c-6.2-.1-12.3,0-18.5,0l1.2-15.1c.3-5.4.7-10.9.8-16.4.4-19,.7-37.9,1.1-56.9,0-1.3.5-2.6.5-3.9-.1-8.3-.3-16.5-.4-24.7.5-2.9,1.1-5.7,1.7-8.6h2.4Z"/><path class="cls-12" d="M419.9,50.3c-5,3.1-2.1,7.6-1.6,11.3,2.6,17.4,5.7,34.8,8.7,52.2.6,3.6,1.9,7,2.9,10.5-.3,1.6-1,3.1-.9,4.7.5,7.7,1.2,15.5,1.9,23.3H407c.6-14.5,1.4-29,1.9-43.6.8-21.9,1.4-43.8,2-65.7.1-4.2.2-8.4.2-12.6l1.2-4.2h1.8C416.1,34.1,418,42.2,419.9,50.3Z"/><path class="cls-2" d="M1349.7,150.3l-8.7,14h-3.6c-1.3-3.6-2.5-7.2-4.1-11.6l-10.2,13-7.7-9.2c28-30.8,40.2-68.8,50.4-107.9V86.3c-.1.1-.4.2-.3.3l.3.6v4.1c-.5.3-1.4.5-1.5.9q-1.8,7-3.3,14.1l-.9,3.8C1356.6,123.5,1353.2,136.9,1349.7,150.3Z"/><path class="cls-12" d="M908,170.2a18.9,18.9,0,0,0,.9-3.8c.4-12.8.7-25.6,1-38.3.4-17.8.7-35.5,1-53.3.1-3.2.1-6.3.1-9.5.4-1.5.9-3,1.3-4.5h1.8l5.8,24.4c-.9,1.8-2.8,3.8-2.5,5.5,3,19.5,6.3,39,9.6,58.5a95.8,95.8,0,0,0,2.9,10.1c-.3,1.5-1,3.1-.9,4.6.2,7.5.6,14.9.9,22.3H906.8Z"/><path class="cls-7" d="M107.2,306.4,92.9,284.3c5.2-12.1,11.7-23.8,15.3-36.4,4.3-14.8,6-30.4,8.8-45.6a14,14,0,0,0,.9-1.7c2.4-11.4,4.7-22.7,7.1-34.1.3-1.2.7-2.3,1.2-3.9l3.7,2.6c-5.2,3.2-3.9,8.4-4,13.1s-1.8,10.4-1.9,15.6c-.3,13.4.1,26.9-.2,40.3-.1,5.4-1.2,10.8-1.9,16.1-1,7.6-1.6,15.2-3.1,22.6C116.5,284.6,117.2,297.4,107.2,306.4Z"/><path class="cls-17" d="M258.9,335.3H229c-.4-23.9,2.3-47.6,5.8-71.1V254.1c3.1,2.8,5,5.9,7,8.8,4.7,6.7,8.5,13.5,4.5,22.1-.2.4,1,1.5,1.5,2.3s.1,2.7.2,4c1.6,6.7,3.3,13.3,4.9,20l2.1,8Z"/><path class="cls-18" d="M6.9,230.3c10.9,4,21.8.9,32.7.1a48.7,48.7,0,0,1,5.4-.1c.8,6.8,1.5,13.5,2.3,20.3.5,4.2,1.2,8.4,1.8,12.6H42.9l-19.8-1.5c-8-.7-16.5-3.5-21.5,6.2-.2.6-1,.9-1.5,1.3v-35Z"/><path class="cls-9" d="M664.9,111.3c0-5.2.1-10.3,0-15.5-.3-17-.6-34.1-1-51.1-.2-11-.6-21.9-1-32.8,0-2.5-.1-5.1-.2-7.6q13.6,57.5,27.2,115l-16.9,4a50.1,50.1,0,0,0-3.4-6.5A48.8,48.8,0,0,0,664.9,111.3Z"/><path class="cls-9" d="M1127.1,43.3c.1,8.2.3,16.4.4,24.7,0,1.3-.5,2.6-.5,3.9-.4,19-.7,37.9-1.1,56.9-.1,5.5-.5,11-.8,16.4l-7.2,12.1-17.2-3.1c5.5-22.5,11.2-45.1,16.7-67.7C1120.8,72.2,1123.8,57.7,1127.1,43.3Z"/><path class="cls-19" d="M1308,327.3l-2.1,8.1h-16c.7-7.5,1.4-15.1,1.9-22.6.1-2-.6-4-.9-6.1a54.4,54.4,0,0,0-5.4,2.7,28.9,28.9,0,0,0-3.5,3.5c-4.9,4.8-15.5,6.3-22.2,3.3.7-3.9,1.4-7.8,2-11.7l-.9-8.1c4.3-2.4,2.8-6.5,3-10.2l1.2-1.8,13.9-5c7.1.2,11,5.4,15.2,10,.7.8.7,2.5.7,3.7.1,3.8.1,7.6.1,11.4-.1,8.7,1.2,10,10,9.9h0l.6,1.1Z"/><path class="cls-7" d="M702,335.6l-26,.4h-2.9l-2.1-1.5c-.5-1.5-.7-3.3-1.8-4.4-3.7-3.6-4.6-7.4-1.2-11.7l9.9-16.9v-1.1l7.9-8c2.2,1,4.4,2.4,6.7,3,7.7,2.1,13.2,6.6,16.4,14-.9,2.6-1.8,5.2-2.5,7.9Z"/><path class="cls-4" d="M314,223.2l-9,9.1-13.1-16.1c-1.4-7.5-2.7-15.1-4.5-22.6-.4-1.9-2.3-3.5-3.5-5.3,7.4-.5,8-1.3,8-10a45.9,45.9,0,0,1,1,5.1c.6,4.2,3,6,7.1,5.9.1-.1.4-.2.3-.3a2.1,2.1,0,0,0-.3-.7v-2l11.2-6.4c6.5,7.6,13.1,15.1,19.5,22.8.8.9,1.3,3.3.7,4.2-2.9,4.6-6.2,9-9.3,13.5-1.9-2.1-3.9-4-5.6-6.2-3.9-5.2-7.6-10.5-11.4-15.8l-1,.7Z"/><path class="cls-4" d="M1031,232.2l-9,8.1c-3.6-4.2-7-8.4-10.8-12.4-1.3-1.3-3.5-1.8-5.2-2.7,1.9-1.1,3-1.8,2.3-4.8-1.9-7.6-3-15.4-4.4-23.1l6-6c-.1,4.8,3.4,6,7.1,7,1.6-6.1,7.1-7.1,11.9-9l18.6,21.4c1.8,2,2.2,3.8.4,6.1-3.1,4-6,8.3-8.9,12.5l-5.5-6.8-12.6-16.2-.3-1.3a.5.5,0,0,0-.4.2l.7,1.1c.6,1.7,1,3.4,1.6,5.1C1025.3,218.4,1028.2,225.3,1031,232.2Z"/><path class="cls-6" d="M28.9,335.3H.1v-36c5.3-.3,10.6-.8,15.9-.9,2.7-.1,5.7.9,8.2.1,4.4-1.2,8.5-3.4,12.7-5.2-.6,10.4-1.3,20.7-1.9,31Z"/><path class="cls-6" d="M752,335.3l-35.7.7c-3.1,0-6.2-.4-9.3-.6l3.9-26.1,4.4-.6c4.8-.7,9.9-2.6,14.5-2,8.7,1.2,16.8,1.1,24.1-4.4C753.3,313.3,752.6,324.3,752,335.3Z"/><path class="cls-20" d="M438,296.3l6.9,14.3c.6,1.3,1.4,2.5,2.1,3.7a36.4,36.4,0,0,1-1.4,4.7l-5.7,16.3-17.9.3c-6.8-11.4-13.5-22.8-20.2-34.2l1.9-4.5c1.1-2.9,2.8-2.6,5-1.2,4.2,2.8,9.2,2.3,13.3-1.4,1.6.7,3.1,1.8,4.7,1.9C430.4,296.5,434.2,296.3,438,296.3Z"/><path class="cls-21" d="M191.9,273.2l1.2,4.2,8.9,25.2,7.9,20.7c1.4,4.1,2.7,8.3,4.1,12.4l-21.1-.2c-2.9-18.4-6.1-36.7-8.7-55.1-1.5-10.5-4-21.1-1.2-31.9a10,10,0,0,1,1.5-2.3c1.7,7.2,3.4,14.5,5.3,21.6A35.5,35.5,0,0,0,191.9,273.2Z"/><path class="cls-20" d="M1155,304.3l8.9,20-3.9,11.1-26,.2-15.2-26.2c2-3.5,3.1-9.2,9-3.5.8.8,3.1.3,4.7,0s4.9-1,7.3-1.6Z"/><path class="cls-10" d="M618.9,335.2c-1.3-14.7-2.7-29.4-3.8-44.2-.6-8.9-.8-17.8-1.1-26.7,3,4.4,7,8.5,9,13.3,5.7,14.4,10.6,29,15.7,43.6,1.6,4.4,2.9,8.9,4.4,13.7L629,336h-7.1Z"/><path class="cls-13" d="M629,336l14.1-1.1c-1.5-4.8-2.8-9.3-4.4-13.7-5.1-14.6-10-29.2-15.7-43.6-2-4.8-6-8.9-9-13.3v-12c2.5,3.4,4.9,6.8,7.5,10.1a16.4,16.4,0,0,0,3.5,2.9,27,27,0,0,0,2.3,5.8c3.4,5.8,7.1,11.5,10.7,17.2l18,32.1c2.4,5.2,4.7,10.4,7.1,15.5Z"/><path class="cls-22" d="M511.9,296.3l14,5c.3.8.4,1.8.9,2.3,4.7,4.4,4.2,9.2,2.2,14.8-1.1,3-.1,6.6-.1,10l3,6.9h-18c-2.6-2.4-5.2-5.1-8-7.4s-4.7-3-7-4.5H496a41.3,41.3,0,0,0-.1-5C494.4,304.7,499.5,300.1,511.9,296.3Z"/><path class="cls-10" d="M214,335.7c-1.4-4.1-2.7-8.3-4.1-12.4.5-2.9.6-5.9,1.5-8.7,2-6.8,4.3-13.5,6.5-20.2.7-2.1,1.6-4,2.1-6.1,2.4-9.6,7.7-17.4,14.8-24-3.5,23.5-6.2,47.2-5.8,71.1Z"/><path class="cls-22" d="M1228.9,305.3l14,4,7.4,8.1a12.9,12.9,0,0,0-.4,1.9c-4.1,3-4.4,7.4-4.2,11.9.3,2.6.2,4.4-3.4,4.3-9.8-.2-19.6-.1-29.3-.2-.1-3.8-.1-7.6-.1-11.3C1212.9,313.3,1218,307.3,1228.9,305.3Z"/><path class="cls-17" d="M933.9,336.1h-25l-1-.8a40.1,40.1,0,0,0-.2-6c-2.8-19.4-6.2-38.8-8.5-58.2-.6-5.4,1.7-11.2,2.7-16.8.4,1.7.7,3.3,1.1,5,2,8,4,16,5.9,24l1.3,3.1c2.9,8.3,5.8,16.6,8.8,24.9l4.9,13C925.9,329.4,926.2,335.9,933.9,336.1Z"/><path class="cls-9" d="M358,267.3c.4-3.5-.7-5.8-4.2-7.2s-4.2-2.9-6.3-4.4q12.6-33.6,24.9-67.2c.9-2.3,1-4.8,1.5-7.2a74.3,74.3,0,0,1,3.5-6.9c1.7-2.3,3.8-4.3,5.7-6.5l1.1,1-.3,4.4c-2,4.3-4.6,8.6-5.7,13.1-3.4,14.7-6.1,29.5-9.4,44.1-2.4,11-5.2,21.8-8,32.6C360.4,264.7,358.9,265.9,358,267.3Z"/><path class="cls-9" d="M1075.9,274.3c-2.2-5.2-7.1-6.9-11.7-9,8.7-23.5,17.3-46.9,26-70.3a41,41,0,0,0,1-4.8c1-2.4,1.7-5.1,3.1-7.2s3.5-4,5.2-6l1.3,1.1c-.3,1.4-.6,2.8-.8,4.2-1.4,4-3.1,8-4,12.2-4.5,20-8.6,40.1-13.2,60C1081.2,261.3,1078.3,267.7,1075.9,274.3Z"/><path class="cls-23" d="M673,123.3l16.9-4c4.4,7.2,9.1,14.2,13.4,21.6s2.7,12.3-6,15.6c-3.8,1.5-7.1,3.9-10.7,5.9-1.1-.7-3.1-1.1-3.3-2.1C679.7,148,676.4,135.7,673,123.3Z"/><path class="cls-9" d="M314.9,335.4h-19c-2.3-7.4-4.7-14.7-7-22,.8-3.9,1.7-7.8,2.7-12.8,3.4,4.2,5.9,7.4,8.6,10.5,4.1,5,5.5,5.4,10.7,1.6s8.4-6.9,12.6-10.4c1.9,4.9,3.7,9.9,5.6,14.8-.9,1.8-1.6,3.9-2.9,5.4C322.6,326.9,318.7,331.1,314.9,335.4Z"/><path class="cls-24" d="M575,297.3c-.7,9.4-1.2,18.8-2.2,28.2-.3,3-1.9,5.9-2.9,8.8l-15,1-7.2-9.7-8.9-11.5,3.5-5.9a15.1,15.1,0,0,1,3,.2c9.8,2.3,17.8-.3,24.1-8.5C570.5,298.4,573.1,298.1,575,297.3Z"/><path class="cls-10" d="M933.9,336.1c-7.7-.2-8-6.7-10-11.8,2.6,1,4.2.6,5.1-2.4,1.8-6.3,3.9-12.4,5.9-18.5,3.3-11.7,8.1-22.5,16.9-31.1a19.3,19.3,0,0,1,.1,2.4l-6,60.6-2.9.8Z"/><path class="cls-23" d="M1003.9,132.3l11.2-10.3,21.2,32-18.7,11.3h-3.7a19.4,19.4,0,0,0-1.1-4.3C1008.8,151.7,1005,142.4,1003.9,132.3Z"/><path class="cls-23" d="M286.9,123.3l11.5-9.2,20.9,31.4-18.9,10.9h-3.5c-.6-2-1.2-4.1-2-6.1C291.2,141.5,287.7,132.8,286.9,123.3Z"/><path class="cls-4" d="M1345.9,210.3c1.4,1.2,3.4,2.1,3.9,3.5a186.1,186.1,0,0,1,6,17.8c1,3.5,2.5,5.9,6.1,6.6-2.7,0-3.5,1.3-2.6,3.8,2.2,6.1,4.3,12.2,6.5,18.2,0,14.4,0,28.8-.1,43.1-.5-.6-1.5-1.2-1.7-2-4.6-18.9-9.1-37.8-13.9-56.6-1.8-7.2-4.1-14.3-6.2-21.4C1343.3,218.8,1340.6,213.9,1345.9,210.3Z"/><path class="cls-23" d="M718.5,167.2l11.4,9.1c-1.9,7.3-3.8,14.6-5.9,21.8-1.1,3.8-2.7,7.5-4.1,11.2h-3.3l-10.7-5.9-7.7-4.7c.6-1.3,1.2-2.7,1.7-4.1Z"/><path class="cls-13" d="M449,182.3h3.9L470.8,213l-10.1,22.5c-5.2-9.8-10.5-19.6-15.8-29.3-.3-2-.6-3.9-1-5.9Z"/><path class="cls-13" d="M1166.9,190.3h3l18,31c-3.3,7.7-6.6,15.4-10,23l-15-29c-.3-2.4-1.4-4.9-1-7.1C1163.2,202.1,1165.2,196.3,1166.9,190.3Z"/><path class="cls-13" d="M1337.4,164.3h3.6c1.6,5.7,3.4,11.4,4.8,17.2.5,2.1.1,4.4.2,6.7a9.6,9.6,0,0,0-1.7,1.8l-14.4,28.3c-3.3-7.6-6.6-15.3-10-22.9Z"/><path class="cls-25" d="M.1,269.3c.5-.4,1.3-.7,1.5-1.3,5-9.7,13.5-6.9,21.5-6.2l19.8,1.5c0,3,.1,6,.1,9l-5.1,4H24.4a12,12,0,0,0-11.7,8.3c-.7,1.9-1.6,3.8-2.4,5.7l-10.2-8Z"/><path class="cls-23" d="M1100,182.3c.2-1.4.5-2.8.8-4.2l-1.3-1.1c-1.7,2-3.8,3.8-5.2,6s-2.1,4.8-3.1,7.2c-6.6-3.5-8.1-7.1-4.4-13.6s9.2-14.9,13.9-22.4l17.2,3.1c-.3,1.1-.7,2.2-1,3.3-3.5,12.2-7.1,24.5-10.6,36.8-.8-2.4-1.6-4.7-2.3-7.1S1106.2,182.5,1100,182.3Z"/><path class="cls-23" d="M383.9,173.3l.3-4.4-1.1-1c-1.9,2.2-4,4.2-5.7,6.5a74.3,74.3,0,0,0-3.5,6.9c-6.3-3-7.9-6.8-4.3-13.2s9.5-15.2,14.2-22.8c4.4,1,8.7,1.7,13,3.1,1.1.3,2.9,2.5,2.6,3.4-3.3,11.9-6.9,23.7-10.4,35.5-.7-2-1.4-4-2-6S388.2,174.7,383.9,173.3Z"/><path class="cls-26" d="M1110.8,335.8h-10.9l-2.9-.7a10.3,10.3,0,0,0-2.5-1.9l-18.6-5c3.4-5.3,6.7-10.6,10-16l14.1-3h9Z"/><path class="cls-20" d="M.1,282.3l10.2,8c.8-1.9,1.7-3.8,2.4-5.7a12,12,0,0,1,11.7-8.3H37.9c-.3,5.7-.7,11.4-1,17-4.2,1.8-8.3,4-12.7,5.2-2.5.8-5.5-.2-8.2-.1-5.3.1-10.6.6-15.9.9Z"/><path class="cls-13" d="M1259.8,316.1c6.7,3,17.3,1.5,22.2-3.3a28.9,28.9,0,0,1,3.5-3.5,54.4,54.4,0,0,1,5.4-2.7c.3,2.1,1,4.1.9,6.1-.5,7.5-1.2,15.1-1.9,22.6h-24L1255,322.8Z"/><path class="cls-13" d="M620.6,156.2c3.9.9,6.2,6.6,5.1,12.4-1.6,8.9-3.2,17.7-4.7,26.6l-8.3,15-10.5-24.1c.9-.8,2.1-1.3,2.6-2.3Z"/><path class="cls-21" d="M401.8,301.4c6.7,11.4,13.4,22.8,20.2,34.2l-27.2.2-.9-8.5c-.6-8.7-1.3-17.3-1.9-26Z"/><path class="cls-12" d="M697.2,191.2,681,199.3l-6.6-14.8-1.8.5,1.3,12.3-8.8,1.6c-.7-5.2-1.4-10.3-2.2-15.5-.3-2.6-.7-5.2-.9-7.8s-.6-4.8,2.8-5.3c.2,4.7,4.1,5.1,7.1,4.8,6-.5,11.9-1.9,17.8-2.9Z"/><path class="cls-20" d="M1039.9,335.4h-30l-3-13.1,1.2-11.5,1.2-.5c2.7,3.2,5.4,6.3,7.9,9.6s6.9,4.9,10.7,1.7,8.1-7.6,12.2-11.4c1.7,3.4,3.5,6.8,5.2,10.3.3,1.8.5,3.7.8,5.6Z"/><path class="cls-27" d="M689.7,172.2c-5.9,1-11.8,2.4-17.8,2.9-3,.3-6.9-.1-7.1-4.8,7.6-2.6,8.9-5.7,7.3-13.6-2.1-10-3.5-20.2-5.3-30.4-.6-5-1.2-10-1.9-15a48.8,48.8,0,0,1,4.7,5.5,50.1,50.1,0,0,1,3.4,6.5c3.4,12.4,6.7,24.7,10.3,37,.2,1,2.2,1.4,3.3,2.1C687.7,165.7,688.7,168.9,689.7,172.2Z"/><path class="cls-27" d="M36.9,293.3c.3-5.6.7-11.3,1-17l5.1-4c1.5,11,3.1,22.1,4.5,33.2s2.3,19.9,3.5,29.8H41.9L35,324.3C35.6,314,36.3,303.7,36.9,293.3Z"/><path class="cls-17" d="M538.8,314.1l8.9,11.5,7.2,9.7h-15l-7.9-9.9-3.1,3c0-3.4-1-7,.1-10,2-5.6,2.5-10.4-2.2-14.8-.5-.5-.6-1.5-.9-2.3-.6-6.3,1.8-9.4,9.8-11.9,2.6-.8,5.5-.8,8.2-1.1.4,2.7.7,5.3,1.1,8l-13.3,14.4Z"/><path class="cls-27" d="M752,335.3c.6-11,1.3-22,1.9-33l.9-16.9,5.2-5.1,3.9,25.3c1.4,9.9,2.7,19.9,4.1,29.8Z"/><path class="cls-20" d="M1085.9,312.3c-3.3,5.4-6.6,10.7-10,16-.3,2.4-.7,4.9-1.1,7.3l-12.9-.2v-4.1c4.5-4.6,4.4-9.2-.5-14-3-2.8-5.8-5.5-3.5-10h.9l9.1,2Z"/><path class="cls-27" d="M908,170.2l-1.2,16c-.8,4.1-1.8,8-2.4,12.1-1.3,8.8-2.5,17.6-3.5,26.4q-.6,5.3,5.1,5.7c1.7.2,3.2,1.8,4.7,2.8l-10.6,2.9c-.7-5.6-1.2-11.2-2-16.8a20.4,20.4,0,0,0-1.8-4c-1.1,1-2.7,1.9-3.2,3.2-1.6,3.7-2.9,7.7-4.3,11.6-1.1,1.8-1.9,4.3-4.9,2.2,1.1-3.3,2.1-6.6,3.1-9.9,1.3-1.3,3.4-2.4,3.9-4,2.9-9.3,5-18.8,8.2-28C901.4,183.5,905,176.9,908,170.2Z"/><path class="cls-21" d="M1110.8,335.8l-1.8-26.5h9.8l15.2,26.2Z"/><path class="cls-17" d="M117,202.3c-2.8,15.2-4.5,30.8-8.8,45.6-3.6,12.6-10.1,24.3-15.3,36.4L89,281.4c9.8-24.1,20.1-48.1,24.9-73.9.3-1.8,1-3.5,1.4-5.3Z"/><path class="cls-27" d="M280.9,335.3h-13c.6-6.3,1.3-12.6,1.9-19l2.1-11c.3-.5.9-1.1.9-1.6,1-8.3,1-8.3,9.1-8.4h1l3.8.4c-6.9,4.8-5.8,11.4-5.7,17.8S281,328,280.9,335.3Z"/><path class="cls-18" d="M393.9,327.3l.9,8.5H369l-10.1-.3c-.3-3.4-.7-6.9-1-10.3.1-1.6.1-3.3.1-4.9,1.8.2,3.6.3,5.4.6Z"/><path class="cls-5" d="M138.9,292.3c-.6,3.6-.6,7.3-1.8,10.6-3.2,9-6.9,17.8-10.3,26.7-.7,2-1.2,4.1-1.8,6.1l-16.1-.2a14.7,14.7,0,0,0,1-2.2l9.2-13.8,5.9-8.1Z"/><path class="cls-28" d="M1198.9,335.3a141.7,141.7,0,0,0-.3-14.6c-.1-.9-2.9-1.9-4.5-2.3-4.1-1-8.4-1.6-13.8-2.7,3.9-15.9,7.8-31.7,11.6-47.4l1.3.2c-.6,7.2-1.3,14.5-1.7,21.8-.3,5.1-1,10.3-.3,15.3s5.6,8.2,10.8,9v20.8Z"/><path class="cls-17" d="M81.8,298.4a37.2,37.2,0,0,1,21.2,20l-2.1,7.9-6,9H87a8.7,8.7,0,0,0-.5-1.9c-2.5-4.2-1.2-7,3-9a36.2,36.2,0,0,0,4.1-2.7Z"/><path class="cls-4" d="M314.9,335.4c3.8-4.3,7.7-8.5,11.3-13,1.3-1.5,2-3.6,2.9-5.4l1.9.4,13.9,4.9c-.3,3-.6,6-1,9h0l-1.1,1c-.6,1-1.2,2-1.9,3Z"/><path class="cls-27" d="M990,303.5l15-.2c-7,4.7-7.6,11.6-7,19.1v13l-3,.3-9.1-.5c1.1-7.6,2.1-15.3,3.1-22.9C989.4,309.4,989.7,306.4,990,303.5Z"/><path class="cls-25" d="M1013.9,165.3h3.7c1.4,3.4,2.8,6.7,4.3,10-10.5,1.2-13,4-7.9,13.3,1.5,2.9,2,6.5,3,9.7-3.7-1-7.2-2.2-7.1-7,.9-10-7.7-13.1-14.5-18.1Z"/><path class="cls-25" d="M296.9,156.3h3.5c1.2,2.9,2.4,5.8,3.7,8.7-1.2.7-2.3,1.8-3.6,2.2-6.5,2-7.6,4.3-4.7,10.5,1.3,2.9,2.8,5.7,4.2,8.5v3c-4.1.1-6.5-1.7-7.1-5.9a45.9,45.9,0,0,0-1-5.1c-.8-8.1-8.6-9.3-13.5-13.6Z"/><path class="cls-12" d="M989,312.3c-1,7.6-2,15.3-3.1,22.9v.8H974a.9.9,0,0,0,0-.7c-1.3-5-2.7-10-4-15Z"/><path class="cls-2" d="M855.9,301.3c-1.2,5.8-2.1,11.6-3.7,17.3-1.1,4.1-3.3,7.9-4.8,11.9a35.3,35.3,0,0,0-1.4,5.6l-13.1-.2,3.1-7.5,6.1-9a31.5,31.5,0,0,0,3.6-3.7C849.2,310.9,852.5,306.1,855.9,301.3Z"/><path class="cls-25" d="M6.9,230.3l-6.8,4c0-2.3,0-4.6.1-7s3.5-4.5,4.6-7.1c1.8-4.4.3-6.7-4.7-7.9v-12l22.2,8.5C13.3,213.9,5.1,218.8,6.9,230.3Z"/><path class="cls-21" d="M803.8,335.7c6.6-6,6.6-6,2.1-14.4-1.8-3.5-3.9-6.9-5.6-10.5-.5-1-.3-2.3-.4-3.5,9.5,4,15.6,11.5,21,19.9l-1.8,8.6Z"/><path class="cls-7" d="M780.9,170.3c-1.7-2.8-3.7-5.5-4.9-8.6-1.9-5.1-3.3-10.5-5-15.8,1.6-2.3,3.2-4.6,4.7-7l15.2,11.4c-2.9-.4-4.3.9-5,3.9C784.4,159.6,782.6,165,780.9,170.3Z"/><path class="cls-25" d="M663.1,335.9c-2.4-5.1-4.7-10.3-7.1-15.5,2.9.1,3-1.8,2.9-3.9,0-5.7.1-11.4.1-17.2,1.7,2.3,3.8,4.4,4.9,7s2.8,8,4.1,12c-3.4,4.3-2.5,8.1,1.2,11.7,1.1,1.1,1.3,2.9,1.8,4.4a7.7,7.7,0,0,0-.2,1.5Z"/><path class="cls-12" d="M280.9,335.3c.1-7.3.1-14.6.1-21.9h7.9c2.3,7.3,4.7,14.6,7,22Z"/><path class="cls-5" d="M439.9,335.3l5.7-16.3a36.4,36.4,0,0,0,1.4-4.7l11-4c-1.4,6.3-2.7,12.7-4.1,19h0a9.4,9.4,0,0,1-1,1c-.6,1.7-1.3,3.3-2,5Z"/><path class="cls-23" d="M300,186.3c-1.4-2.8-2.9-5.6-4.2-8.5-2.9-6.2-1.8-8.5,4.7-10.5,1.3-.4,2.4-1.5,3.6-2.2,2.3,4.9,4.7,9.9,7.1,14.8Z"/><path class="cls-23" d="M1017,198.3c-1-3.2-1.5-6.8-3-9.7-5.1-9.3-2.6-12.1,7.9-13.3l7,14C1024.1,191.2,1018.6,192.2,1017,198.3Z"/><path class="cls-26" d="M269.8,316.3c-.6,6.4-1.3,12.7-1.9,19h-9l-3.9-16Z"/><path class="cls-17" d="M1255,322.9l10.9,12.4c-4.4.2-9,0-13.4.7s-4-3.9-6.8-4.8c-.2-4.5.1-8.9,4.2-11.9Z"/><path class="cls-12" d="M1361,106.3q1.5-7,3.3-14.1c.1-.4,1-.6,1.5-.9,0,14.3,0,28.6-.1,43H1360c.6-7,1.3-14,1.7-21C1361.8,111,1361.2,108.6,1361,106.3Z"/><path class="cls-18" d="M450.9,335.3c.7-1.7,1.4-3.3,2-5a9.4,9.4,0,0,0,1-1h0l4-3,22.2,6.2c-.1.9-.1,1.8-.2,2.8Z"/><path class="cls-10" d="M117,202.3h-1.7c1-11.2,1.9-22.4,3.1-33.5.2-2.2,1.4-4.3,2.1-6.5l4.5,4.3c-2.4,11.4-4.7,22.7-7.1,34.1A14,14,0,0,1,117,202.3Z"/><path class="cls-28" d="M1340,291.3c-.1,8.3,0,16.6-.2,24.9-.1,6.4-.5,12.8-.8,19.2h-6.1C1335.3,320.7,1337.6,306,1340,291.3Z"/><path class="cls-12" d="M819.1,335.8l1.8-8.6,3.8,4.7c.3-3.4.4-6.1.6-8.8l10.7,5.3-3.1,7.5Z"/><path class="cls-5" d="M1160,335.4l3.9-11.1,11.2-6-4.2,17Z"/><path class="cls-6" d="M998,335.4v-13h8.9l3,13.1Z"/><path class="cls-4" d="M1061.9,331.3v4.1h-22l6.2-9.3,2.5-1.3Z"/><path class="cls-4" d="M493.7,146.2c-.9,1-2.3,1.9-2.7,3a32.6,32.6,0,0,0-1.1,6.1h-5.8c1.6-8.4,3.1-16.7,4.7-25.1l.9-.2C491,135.4,492.3,140.8,493.7,146.2Z"/><path class="cls-25" d="M1020.9,206.3l12.6,16.2,5.5,6.8v3H1031c-2.8-6.9-5.7-13.8-8.5-20.8-.6-1.7-1-3.4-1.6-5.1Z"/><path class="cls-25" d="M314,223.2l-9.9-24.1,1-.7c3.8,5.3,7.5,10.6,11.4,15.8,1.7,2.2,3.7,4.1,5.6,6.2l.3,3.8Z"/><path class="cls-26" d="M340.9,335.3c.7-1,1.3-2,1.9-3l1.1-1h0l14-6c.3,3.4.7,6.9,1,10.3Z"/><path class="cls-23" d="M589.4,129.1l-6.4.2c0-2.1.3-4.3-.2-6.2s-1.7-2.6-2.6-3.9c.8-3.4,1.6-6.8,2.5-10.2h2C587.6,115.3,587.8,122.4,589.4,129.1Z"/><path class="cls-18" d="M1074.8,335.6c.4-2.4.8-4.9,1.1-7.3l18.6,5a10.3,10.3,0,0,1,2.5,1.9l-8,.7Z"/><path class="cls-13" d="M498.9,323.3c2.3,1.5,4.8,2.8,7,4.5s5.4,5,8,7.4h-15Z"/><path class="cls-28" d="M710.9,309.3,707,335.4l-5,.2,4.5-18.4c.7-2.7,1.6-5.3,2.5-7.9Z"/><path class="cls-28" d="M1365.8,260.2c-2.2-6-4.3-12.1-6.5-18.2-.9-2.5-.1-3.8,2.6-3.8l3.9.2Z"/><path class="cls-18" d="M498.9,323.3v12h-14l.3-2.8a13.1,13.1,0,0,1,3.2-1c5.9-.6,7.1-1.8,7.6-8.1Z"/><path class="cls-4" d="M94.9,335.3l6-9,9,7a14.7,14.7,0,0,1-1,2.2Z"/><path class="cls-25" d="M1170.9,335.3l4.2-17,4.8-1.9c-1.8,6.6-3.4,12.7-5,18.8Z"/><path class="cls-20" d="M35,324.3l6.9,10.9h-13Z"/><path class="cls-7" d="M.1,212.3c5,1.2,6.5,3.5,4.7,7.9-1.1,2.6-3.1,4.8-4.6,7.1C.1,222.3.1,217.3.1,212.3Z"/><path class="cls-2" d="M528.9,328.4l3.1-3,7.9,9.9h-8Z"/><path class="cls-4" d="M946.9,137.3c-1.8,4.3-3.7,8.5-5.6,12.7l-1.1-.4-.3-2.4C941.1,143.1,941.4,138.3,946.9,137.3Z"/><path class="cls-27" d="M485.2,332.4l-.3,2.8h-5c.1-1,.1-1.9.2-2.8,1-2.7,2-5.4,2.9-8.1h1.9Z"/><path class="cls-2" d="M907.9,335.3l1,.8h-33l1-.8Z"/><path class="cls-21" d="M974,335.3a.9.9,0,0,1,0,.7H943l2.9-.8Z"/><path class="cls-21" d="M161,335.9l11.2-.3Z"/><path class="cls-13" d="M618.9,335.2l3,.8H611Z"/><path class="cls-21" d="M1089,335.9l8-.7,2.9.7Z"/><path class="cls-21" d="M985.9,336v-.8l9.1.5Z"/><path class="cls-21" d="M369,335.9h0Z"/><path class="cls-21" d="M670.8,335.9a7.7,7.7,0,0,1,.2-1.5l2.1,1.5Z"/><path class="cls-12" d="M1365.8,87.2l-.3-.6c-.1-.1.2-.2.3-.3A1.4,1.4,0,0,1,1365.8,87.2Z"/><path class="cls-21" d="M674.9,336h0Z"/><path class="cls-16" d="M1166.9,190.3c-1.7,6-3.7,11.8-5,17.9-.4,2.2.7,4.7,1,7.1-.3.4-.9.8-.8,1.1l7.8,38.2v4.7l-15,5.1h-15.5c-6,0-9.3-2.9-10.5-9,4.4,0,8.8.2,13.2-.2,1.7-.1,4.1-1.4,4.6-2.7,2-5.5-2.1-14.6-7.6-16.3s-8.8-1.3-13.2-1.8c.9-8,1.6-16,2.6-24,.3-2.4.7-4.3-2.2-5.1-8.6-2.9-9.4-3.6-8.2-11.6,1.7-11.2,3.8-22.2,5.8-33.3,6.2,0,12.3-.1,18.5,0a37.8,37.8,0,0,1,4.6,1c.6,1.7,1.6,3.3,1.8,5.1.7,5.6,3.7,8.9,9.3,9.9Z"/><path class="cls-28" d="M1128.9,255.3c1.2,6.1,4.5,9,10.5,9h15.5c-.3,3.6-.7,7.2-1,10.9.1,5.7,0,11.5.2,17.3.1,3.9.6,7.8.9,11.7h-15.2l-17-31c.7-6.9-.1-14.1,3.2-21.4C1127.4,253.6,1128.1,254.5,1128.9,255.3Z"/><path class="cls-27" d="M1169.9,254.6l-7.8-38.2c-.1-.3.5-.7.8-1.1l15,29Z"/><path class="cls-20" d="M1153.9,275.3c.3-3.7.7-7.3,1-10.9l15-5.1C1169.9,269.4,1163,276.3,1153.9,275.3Z"/><path class="cls-29" d="M443.9,200.3c.4,2,.7,3.9,1,5.9s.3,2.6.5,3.9c2.2,12,4.5,23.9,6.7,35.9.8,2.2,1.2,4.1-1.7,5l-12.5,4.3c-3.4.3-6.9.4-10.3.9-8,1.2-12.9-1.5-15.9-8.9-.5-1.3-1.5-2.4-3.3-4.9-1,3.7-2.1,6.1-2.3,8.5-.4,4.5-.3,9-.3,13.4-3.3-11.3-6.6-22.7-9.8-34,1.6-2.4,3.2-4.7,4.9-7l7.5,2.1c1.3-9.5,2.4-18.3,3.5-27.1,6.7,1.3,12.9.6,18.9-3.1,1.6-1.1,5-.2,7.2.7S442,198.8,443.9,200.3Z"/><path class="cls-28" d="M405.8,264.3c0-4.4-.1-8.9.3-13.4.2-2.4,1.3-4.8,2.3-8.5,1.8,2.5,2.8,3.6,3.3,4.9,3,7.4,7.9,10.1,15.9,8.9,3.4-.5,6.9-.6,10.3-.9a60.3,60.3,0,0,0-.8,7.3c-.1,7.6,0,15.3.1,22.9.1,3.6.5,7.2.8,10.8-3.8,0-7.6.2-11.3-.1-1.6-.1-3.1-1.2-4.7-1.9C415.2,285.1,408.9,275.5,405.8,264.3Z"/><path class="cls-12" d="M483,324.4c-.9,2.7-1.9,5.4-2.9,8.1l-22.2-6.2,5.1-19h.9l17.8,3.5C482.2,315.6,482.6,320,483,324.4Z"/><path class="cls-28" d="M483,324.4c-.4-4.4-.8-8.8-1.3-13.6l-17.8-3.5c2.5-11.3,4.9-22.6,7.5-33.8a72.6,72.6,0,0,1,4.6-14.1l-1.2,20c-.3,5.7-.9,11.3-.7,16.9s2.8,8.4,7.8,8.9,4.2,2.9,4,5.8c-.3,4.5-.7,8.9-1,13.4Z"/><path class="cls-27" d="M452.1,246c-2.2-12-4.5-23.9-6.7-35.9-.2-1.3-.3-2.6-.5-3.9,5.3,9.7,10.6,19.5,15.8,29.3Z"/><path class="cls-25" d="M463,307.3l-5.1,19-4,3c1.4-6.3,2.7-12.7,4.1-19Z"/><path class="cls-17" d="M1250.3,317.4l-7.4-8.1v-2l8.1-8h-.1l.7-.9,9.3-2.2.9,8.1Z"/><path class="cls-30" d="M1251.6,298.5l-.7.9Z"/><path class="cls-22" d="M545,296.3c-.4-2.7-.7-5.3-1.1-8,3.6-2.9,3.1-7,3-10.9l1.2-2.1,13.9-5c3.5,1.7,7.4,2.9,10.4,5.3s6.3,7.2,5.7,12.8-.2,8.6-.2,12.9l-2.9-4c-1.9.8-4.5,1.1-5.6,2.6-6.3,8.2-14.3,10.8-24.1,8.5a15.1,15.1,0,0,0-3-.2Z"/><path class="cls-28" d="M605.9,262.3c1.6,6.7,2.1,13.4-1,20-14.6,2.6-14,.2-14,14.6a7.6,7.6,0,0,1-.1,1.5H589c-.4-4.9-.9-9.8-1-14.8,0-1.3,1.1-3.7,2-3.9,8.5-1.8,10.3-7.7,9.9-15.2,0-1,.1-2,.1-3Z"/><path class="cls-27" d="M612.7,210.2l8.3-15c-1.7,6.4-3.4,12.8-5,19.2Z"/><path class="cls-27" d="M589,298.3h1.8l1.5,5c-.2,3.9-.4,7.8-.7,11.7l-3.6-9.8C588.3,303,588.6,300.6,589,298.3Z"/><path class="cls-28" d="M602.2,245.4l-3.3,7c-.4-5.6-.9-11.2-1.3-16.8l1.1-.3C599.8,238.7,601,242,602.2,245.4Z"/><ellipse class="cls-28" cx="597.4" cy="231.8" rx="0.3" ry="1.1"/><path class="cls-6" d="M719.9,209.3c1.4-3.7,3-7.4,4.1-11.2,2.1-7.2,4-14.5,5.9-21.8l22.1,2c.2,4.1,1.3,8.4.5,12.3-2.6,13.4,1.5,23.8,12.5,31.7h3l-2.1,14.1-4,2.9-31,2-7-2c-1.6-11.4,5.7-16.9,15.2-21.6L729,213.3Z"/><path class="cls-20" d="M710.9,309.3H709c-3.2-7.4-8.7-11.9-16.4-14-2.3-.6-4.5-2-6.7-3,1-2.3,2-4.6,3.1-6.9s1.3-2.1,1.9-3.1l4.1-6h7.9l9.1,8.1a13.5,13.5,0,0,0,1.9,3.3c4.3,4.1,8.8,8,13.2,12,.3.2.9,0,1.6,0a19,19,0,0,1,.3-2.5c1.2-6.6,5.3-12.9,14.3-12,3.8.5,7.6.2,11.5.2l-.9,16.9c-7.3,5.5-15.4,5.6-24.1,4.4-4.6-.6-9.7,1.3-14.5,2Z"/><path class="cls-18" d="M730.9,241.3l31-2,3.6,31.8-5.6.3L725,269.2Z"/><path class="cls-20" d="M632.9,133.3h1.9l5.1,4a19.8,19.8,0,0,0,.3,3.5l28.2,76.5a29.6,29.6,0,0,0,1.5,3.1v1l-12,7c-1.9-4.2-4.7-8.2-5.7-12.6-4-17.7-7.2-35.6-11.2-53.3-1.9-8.5-4.7-16.8-7.1-25.2-.3-1.3-.7-2.6-1-3.9Z"/><path class="cls-25" d="M725,269.2l34.9,2.2c0,2.9,0,5.9.1,8.9l-5.2,5.1c-3.9,0-7.7.3-11.5-.2-9-.9-13.1,5.4-14.3,12a19,19,0,0,0-.3,2.5c-.7,0-1.3.2-1.6,0-4.4-4-8.9-7.9-13.2-12a13.5,13.5,0,0,1-1.9-3.3Z"/><path class="cls-7" d="M657.9,228.3l12-7L686,241.4l2.7,4.3c1.4-1.3,2.3-1.9,3.1-2.7l5.3-5.7a19.7,19.7,0,0,1,2.2,2.7c-3.7,3.9-7.5,7.6-11.3,11.3l-7.1,2-6.9,3-14.1-22C659.3,232.3,658.6,230.3,657.9,228.3Z"/><path class="cls-25" d="M719.9,209.3l9.1,4,10.1,4.4c-9.5,4.7-16.8,10.2-15.2,21.6l-6.9,4v-5c1.6-3.2,3.6-6.3,4.9-9.7s.2-7-4.2-8.2l-4.9-1.1c.1-1.4.1-2.8.2-4.2l3.6-5.9Z"/><path class="cls-7" d="M712.8,219.3l4.9,1.1c4.4,1.2,5.9,4,4.2,8.2s-3.3,6.5-4.9,9.7c-13.8-5.8-13.1-2.6-6.5-16A16,16,0,0,1,712.8,219.3Z"/><path class="cls-26" d="M686,241.4l-16.1-20.1v-1c10.2-3.3,10.2-3.3,14.5,6.8a50.4,50.4,0,0,0,2.6,5.2C687,235.4,690.3,238.8,686,241.4Z"/><path class="cls-25" d="M639.9,137.2l-5.1-4c3.1-12,6.1-24,9.2-35.9a37.2,37.2,0,0,1,.8,6.6c-.5,7.5-1.2,14.9-1.8,22.4Z"/><path class="cls-24" d="M680.9,253.3l7.1-2c-6.3,10.1,3.1,15.2,7.1,22-.1,1-.1,2-.1,3l-4.1,6C687.6,272.6,684.3,263,680.9,253.3Z"/><path class="cls-25" d="M695,276.3c0-1,0-2,.1-3,4.6-6.2,9.2-12.4,14-18.6a24.9,24.9,0,0,1,3.8-3.4h.1c-2.8,7-5.7,13.9-8.5,20.9-.5,1.4-1.1,2.7-1.6,4.1Z"/><path class="cls-28" d="M686,241.4c4.3-2.6,1-6,1-9.1,5.8-3,5.8-3,10.1,5l-5.3,5.7c-.8.8-1.7,1.4-3.1,2.7Z"/><path class="cls-25" d="M673.9,197.3,672.6,185l1.8-.5,6.6,14.8-3.7,4.9Z"/><path class="cls-25" d="M712.9,251.3c.1-.5.3-.9.4-1.4l.4.3-.7,1.1Z"/><path class="cls-6" d="M657.9,228.3c.7,2,1.4,4,2,6s-.5,2.4-.2,3.5c2,8.9,4.1,17.7,6.3,26.5l-8,2-9.1,3-15-4c-.3-14.3-.5-28.6-1.1-42.9-.1-4.3-1.2-8.7-1.8-13,.6-10.8,1.3-21.5,1.9-32.3.3-4.9,1.2-9.9.8-14.8a73.8,73.8,0,0,0-3.1-15.4c-1.2-4.5-.3-8.3,3.3-9.7,2.4,8.4,5.2,16.7,7.1,25.2,4,17.7,7.2,35.6,11.2,53.3C653.2,220.1,656,224.1,657.9,228.3Z"/><path class="cls-26" d="M633.9,265.3l15,4,9.1,15-20,4c-3.6-5.7-7.3-11.4-10.7-17.2a27,27,0,0,1-2.3-5.8h8.9Z"/><path class="cls-25" d="M633.9,265.3H626l3.6-39.6c.5-5.4.9-10.9,1.4-16.3.6,4.3,1.7,8.7,1.8,13C633.4,236.7,633.6,251,633.9,265.3Z"/><path class="cls-20" d="M632.9,133.3l-.4-.4h.3a.6.6,0,0,1,.1.4Z"/><path class="cls-28" d="M1314.8,247.3l.3-3.9.8-.2c2.4,9.1,4.8,18.2,7,27.3,1.2,5,2.4,10,3.2,15,.2,1.5-.7,3.2-1.1,4.9h-.5c-15.9,3.4-16.4-.7-16.6,16.1h-2c-.3-5.7-.7-11.5-1.1-17,11.3-4,13.9-9.3,12.1-21.8C1315.9,260.8,1315.5,254,1314.8,247.3Z"/><path class="cls-27" d="M1305.9,306.3h2c.7,2.6,1.4,5.3,2.2,8s1.3,4.6,2,6.9.7,6.3-4.1,6l-2.4-11.9-.6-1.1h0Z"/><path class="cls-24" d="M910.2,286.4l-1.3-3.1c1.2-5.6,2.2-11.2,3.4-16.8a50.8,50.8,0,0,1,1.7-5.1c7-8.1,14.3-16,21-24.4,4.3-5.4,3.7-6.3-3-8.7l-10.3-6.7L935,199.5l4.1-6.2,11.8-19,2-1.1,13,5.1,2.1,14.1-13,34.9c-7.9-1.2-10.1-.1-11.1,4.9-1.3,7.1-2.5,14.3-4.3,21.2-.8,3.2-3.1,5.9-4.7,8.9-9.7,5-17.3,12-22,22Z"/><path class="cls-6" d="M968,192.4l-2.1-14.1,3-1c8.4-4.6,12.8-11.7,13-21.2.2-7.3.1-14.5.1-21.8l21.9-2c1.1,10.1,4.9,19.4,8.9,28.7a19.4,19.4,0,0,1,1.1,4.3l-18.5,7.9c6.8,5,15.4,8.1,14.5,18.1l-6,6-32.1-3Z"/><path class="cls-28" d="M982,134.3c0,7.3.1,14.5-.1,21.8-.2,9.5-4.6,16.6-13,21.2,1.3-10.6,2.6-21.3,4-31.9l3.9-31.3L981,131A20.7,20.7,0,0,0,982,134.3Z"/><path class="cls-25" d="M939.1,193.3l-4.1,6.2-5.1-13.2c-.3-7.4-.7-14.8-.9-22.3-.1-1.5.6-3.1.9-4.6C932.9,170.7,936,182,939.1,193.3Z"/><path class="cls-23" d="M952.9,173.2l-2,1.1-3.4-7,5.7-5.5a22.5,22.5,0,0,0,.8,2.4C953.6,167.2,953.2,170.2,952.9,173.2Z"/><path class="cls-6" d="M138.9,292.3,125,311.4c-5.1-11.7-2.6-23.9-2.6-36,0-8.3-.3-16.7-.5-25.1.7-5.3,1.8-10.7,1.9-16.1.3-13.4-.1-26.9.2-40.3.1-5.2,1.3-10.4,1.9-15.6,4.7,16.7,9.6,33.4,13.9,50.2,3.1,11.8,5.9,23.8,8.1,35.8a26.2,26.2,0,0,1-1.3,12.4C144.6,282.1,141.5,287.1,138.9,292.3Z"/><path class="cls-12" d="M1310.1,314.4c-.8-2.7-1.5-5.4-2.2-8,.2-16.8.7-12.7,16.6-16.1h.5c-2.4,7.3-4.7,14.6-7.1,21.9Z"/><path class="cls-27" d="M1329.9,218.3l14.4-28.3a9.6,9.6,0,0,1,1.7-1.8c-1.1,6-2.2,12-3.2,18.1l-5.4,22.6Z"/><path class="cls-18" d="M1310.1,314.4l7.8-2.1-5.8,9C1311.4,319,1310.7,316.7,1310.1,314.4Z"/><path class="cls-6" d="M855.9,301.3c-3.4,4.8-6.7,9.6-10.2,14.4a31.5,31.5,0,0,1-3.6,3.7c-1-4.8-2.9-9.5-3-14.3-.1-13.2.6-26.4.8-39.7a23,23,0,0,0-1-5.1c.7-8,1.7-16,2-24.1.3-11.1-.2-22.2.1-33.3.2-5.2,1.3-10.4,1.9-15.6,2.3,7,5,14,6.8,21.2,5.6,22.1,10.7,44.3,16.3,66.4,1.3,5.2-1.8,8.6-3.3,12.6S858.2,296.7,855.9,301.3Z"/><path class="cls-10" d="M907.9,335.3h-31l4.5-33.9,4.5-33.9c1.4-10.3,2.9-20.6,4-31,.3-2-.7-4.3-1.1-6.4,1.4-3.9,2.7-7.9,4.3-11.6.5-1.3,2.1-2.2,3.2-3.2a20.4,20.4,0,0,1,1.8,4c.8,5.6,1.3,11.2,2,16.8l1.8,18.2c-1,5.6-3.3,11.4-2.7,16.8,2.3,19.4,5.7,38.8,8.5,58.2A40.1,40.1,0,0,1,907.9,335.3Z"/><path class="cls-7" d="M842.9,187.3c-.6,5.2-1.7,10.4-1.9,15.6-.3,11.1.2,22.2-.1,33.3-.3,8.1-1.3,16.1-2,24.1-1.5,9.8-3.2,19.5-4.5,29.3s-2.3,17.7-9.2,24.4c-.3.3-.3,1-.5,1.4-1.4-2.4-2.7-4.9-4.3-7.2-3.4-5-7-10-10.5-14.9,15.3-25.5,21.6-53.7,24.1-83,2.6-11.7,5.3-23.3,7.9-35l1.3-3.7,3.7,1.7C842.4,177,842.8,182.2,842.9,187.3Z"/><path class="cls-25" d="M291.9,216.2,305,232.3l-15.3,14.5c-2.4-6.1-3.4-13.4-10.8-14.2-5.5-.6-11.2.4-16.9.8l-5.1-6.1c.1-2.7.1-5.3.1-8Z"/><path class="cls-27" d="M256.9,227.3l5.1,6.1c0,4.6.1,9.2.1,13.9l.8,1.1c.6,10.6,1.3,21.2,2,31.9-2,9.3-8.4,11.7-16.9,11-.1-1.3-.1-2.6-.2-4a36.5,36.5,0,0,0,2-6.4C252.3,263,254.6,245.2,256.9,227.3Z"/><path class="cls-25" d="M288.9,313.3H281c-.1-6.4-1.2-13,5.7-17.8l-3.8-.4a2.8,2.8,0,0,1,.1-.9l13-1.9c1.7,3.7,4.6,5.1,8.6,5s9.6-.1,14.4-.1l3.9,1,.6,3.9c-4.2,3.5-8.2,7.3-12.6,10.4s-6.6,3.4-10.7-1.6c-2.7-3.1-5.2-6.3-8.6-10.5C290.6,305.5,289.7,309.4,288.9,313.3Z"/><path class="cls-20" d="M283,294.3a2.8,2.8,0,0,0-.1.9h-1c-8.1.1-8.1.1-9.1,8.4,0,.5-.6,1.1-.9,1.6s-2.6-1-3.6-.6c-5.2,2.1-10.2,4.4-15.4,6.6-1.6-6.7-3.3-13.3-4.9-20,8.5.7,14.9-1.7,16.9-11,1.6,2.8,3.5,5.5,4.7,8.5s4.2,6.4,8.9,5.6A22.6,22.6,0,0,1,283,294.3Z"/><path class="cls-28" d="M319,297.3c-4.8,0-9.6-.1-14.4.1s-6.9-1.3-8.6-5l10-.2c4.6-.3,5.5-2.9,4.8-7.1-1.6-8.5-2.9-17-4.1-25.4-.1-.8.8-1.6,1.2-2.4Z"/><path class="cls-25" d="M262.9,248.4l-.8-1.1Z"/><path class="cls-25" d="M1006,225.2c1.7.9,3.9,1.4,5.2,2.7,3.8,4,7.2,8.2,10.8,12.4l-15.2,15.8c-.8-2.3-1.5-3.7-1.9-5.2-2-6.9-5.4-9.6-12.5-9.6H980l-6-5.9v-8Z"/><path class="cls-27" d="M974,235.4l6,5.9c.6,16.3,1.2,32.7,1.9,49-2.1,3.2-2,8.1-7,8.9-3.3.5-6.6.7-9.9,1.1-.2-1.3-.4-2.5-.7-3.7l2.3-10.5c0-1.2.1-2.5.1-3.8a18.8,18.8,0,0,0,1.2-3C970,264.7,972,250,974,235.4Z"/><path class="cls-25" d="M1006.9,322.3H998c-.6-7.5,0-14.4,7-19.1l7.9-2a9.8,9.8,0,0,0,10,5l13.2-1,3.9,1c0,1.3.1,2.6.1,3.9-4.1,3.8-7.9,7.9-12.2,11.4s-7.6,2.2-10.7-1.7-5.2-6.4-7.9-9.6l-1.2.5Z"/><path class="cls-20" d="M965,300.3c3.3-.4,6.6-.6,9.9-1.1,5-.8,4.9-5.7,7-8.9,1.9,2.8,3.9,5.5,5.7,8.3s1.6,3.3,2.4,4.9-.6,5.9-1,8.8l-19,8C968.3,313.6,966.7,306.9,965,300.3Z"/><path class="cls-28" d="M1036.1,305.3l-13.2,1a9.8,9.8,0,0,1-10-5l15.4-1.5c-.9-6.6-1.9-13-2.8-19.4-.7-4.4-1.5-8.8-2-13.2-.1-.6.9-1.3,1.4-1.9C1028.6,278.6,1032.3,292,1036.1,305.3Z"/><path class="cls-27" d="M49.1,263.2c-.6-4.2-1.3-8.4-1.8-12.6-.8-6.8-1.5-13.5-2.3-20.3l3.9-2c4.3,11.7,8.6,23.3,13,35Z"/><path class="cls-28" d="M765,222.3c-11-7.9-15.1-18.3-12.5-31.7.8-3.9-.3-8.2-.5-12.3,1.3-5.5,2.6-11.1,4-16.6.2-.9,1.2-1.6,1.8-2.4,2,15.6,3.9,31.1,5.8,46.7C764.2,211.4,764.5,216.9,765,222.3Z"/><path class="cls-6" d="M296.9,156.3l-18.5,8.4c4.9,4.3,12.7,5.5,13.5,13.6s-.6,9.5-8,10l-29-2-4-2.1c-.7-4.6-1.3-9.3-2-13.9l3-1c6.6-5.3,12.7-11,13-20.3s.1-15.8.1-23.7l21.9-2c.8,9.5,4.3,18.2,8,26.9C295.7,152.2,296.3,154.3,296.9,156.3Z"/><path class="cls-28" d="M265,125.3c0,7.9.1,15.8-.1,23.7s-6.4,15-13,20.3c1.6-12.6,3.2-25.2,4.7-37.8.9-8.4,1.7-16.8,2.5-25.1a34.6,34.6,0,0,1,2.8,6.2C263.1,116.8,264,121,265,125.3Z"/><path class="cls-28" d="M47.9,213.3c-9.5-6-13.9-14.4-13.1-25.8.5-5.7.1-11.5.1-17.2s2.7-11.7,4-17.5c.3-.9.8-1.8,1.1-2.6,1.3,8.9,2.8,17.8,3.9,26.8C45.4,189.1,46.6,201.2,47.9,213.3Z"/><path class="cls-6" d="M780.9,170.3c1.7-5.3,3.5-10.7,5-16.1.7-3,2.1-4.3,5-3.9l18,2c0,5.1.4,10.3-.2,15.4-1.4,11.6,2.8,20.9,12.6,26.6l2.7,2c-.3,4.7-.7,9.4-1.1,14l-4,2c-7,.4-14,.2-20.8,1.3s-11.8,1.2-17.1-2.3c-2.3-5.5-4.6-11.1-6.8-16.7l1.1-.4c2.2,4.2,4.5,8.4,6.4,12.8s3.4,3.8,6.3,3.1c1-.2,1.9-.6,2.9-.7,7-.9,7.4-1.1,4.5-7.7-3.9-9-8.6-17.5-12.9-26.3A27.6,27.6,0,0,1,780.9,170.3Z"/><path class="cls-28" d="M821.3,194.3c-9.8-5.7-14-15-12.6-26.6.6-5.1.2-10.3.2-15.4,1.7-7.3,3.3-14.7,5-22,2,15.9,3.9,31.8,5.8,47.7C820.3,183.4,820.8,188.9,821.3,194.3Z"/><path class="cls-24" d="M809.9,293.3c3.5,4.9,7.1,9.9,10.5,14.9,1.6,2.3,2.9,4.8,4.3,7.2l.6,7.7c-.2,2.7-.3,5.4-.6,8.8l-3.8-4.7c-5.4-8.4-11.5-15.9-21-19.9-7.1-6.6-6.7-16-8.9-24.5-.5-1.9-.5-3.9-1-5.8-1.3-5.9-2.7-6.8-8.6-5.8a10.3,10.3,0,0,1-2.5.1l-13-34.9,2.1-14.1,13.9-5,17.1,27c3.9,5.4,7.8,10.8,11.6,16.3l.3,6.7-15.5,8.4,3.5,4.7c2.7,2.9,5.4,5.9,8,8.9Z"/><path class="cls-18" d="M799,244.3l-17.1-27-.9-6c5.3,3.5,11,3.3,17.1,2.3s13.8-.9,20.8-1.3c.3,3.8.6,7.6,1,11.3,1,7.1,2.1,14.1,3.1,21.1l-4.8,11.6-2.2-3.2c0-8.3-.2-8.6-7.7-8.8C805.2,244.2,802.1,244.3,799,244.3Z"/><path class="cls-27" d="M765.9,236.4l13,34.9-13.4-.2-3.6-31.8Z"/><path class="cls-24" d="M822.9,210.3c.4-4.6.8-9.3,1.1-14l9.9-4-.9,18-4.4,14.5Z"/><path class="cls-10" d="M833,210.3l.9-18c.7-6,1.3-12.1,2.1-18,.2-1.5,1.2-2.8,2.1-5.1l3.8,6.1c-2.6,11.7-5.3,23.3-7.9,35Z"/><path class="cls-28" d="M121.9,250.3c.2,8.4.5,16.8.5,25.1,0,12.1-2.5,24.3,2.6,36l-5.9,8.1-10.9-5.3c-.3-2.6-.7-5.2-1-7.8,10-9,9.3-21.8,11.6-33.5C120.3,265.5,120.9,257.9,121.9,250.3Z"/><path class="cls-12" d="M108.2,314.2l10.9,5.3-9.2,13.8-9-7,2.1-7.9,4.6,4.9C107.8,319.8,108,317,108.2,314.2Z"/><path class="cls-7" d="M256.9,227.3c-2.3,17.9-4.6,35.7-7.1,53.6a36.5,36.5,0,0,1-2,6.4c-.5-.8-1.7-1.9-1.5-2.3,4-8.6.2-15.4-4.5-22.1-2-2.9-3.9-6-7-8.8v10.2c-7.1,6.6-12.4,14.4-14.8,24-.5,2.1-1.4,4-2.1,6.1l-6-1.2c1-3.1,2.1-6.2,3.3-9.5l-9-6.3L219,253.3h-.1l.8-.8c2.4-8.7,5.2-17.3,7.1-26.1s1.9-8.6,10.2-7.8c.5.1.9-.3,1.4-.4h12.5l6.1,1C257,222,257,224.6,256.9,227.3Z"/><path class="cls-27" d="M250.9,218.3H238.4l12.5-34.1,4,2.1C253.6,197,252.3,207.6,250.9,218.3Z"/><path class="cls-30" d="M219.7,252.6l-.8.8Z"/><path class="cls-4" d="M443.9,200.3c-1.9-1.5-3.7-3.5-5.9-4.4s-5.6-1.8-7.2-.7c-6,3.7-12.2,4.4-18.9,3.1H411c-1.4-1-2.7-2.6-4.3-2.9-5-.7-6.3-3.8-5.7-8.1,1.3-8.6,2.9-17.2,4.3-25.8.6-3.1,1.1-6.1,1.7-9.2h23.9c.9,10.6,2.9,13.6,10.1,15.1,2.7,5,5.3,10,8,14.9Z"/><path class="cls-5" d="M405.8,264.3c3.1,11.2,9.4,20.8,16.2,30-4.1,3.7-9.1,4.2-13.3,1.4-2.2-1.4-3.9-1.7-5,1.2l-1.9,4.5H390.9a50.5,50.5,0,0,0-.1-5.5c-1.6-17.1-3.3-34.3-4.9-51.4-.7-11.9-1.4-23.8-1.9-35.6-.2-3.5.7-7.2-.3-10.5-1.8-6.4.3-11.7,3.3-17,.6,2,1.3,4,2,6,.7,4.7,1.3,9.3,2,14l3,17.1c.7,3.9,1.3,7.9,2,11.9C399.2,241.6,402.5,253,405.8,264.3Z"/><path class="cls-6" d="M394,218.4l-3-17.1c6.8-.1,13.9,2,20-3h.9c-1.1,8.8-2.2,17.6-3.5,27.1l-7.5-2.1V209.8h-1C397.9,212.6,396,215.5,394,218.4Z"/><path class="cls-25" d="M1158.1,176.3c-5.6-1-8.6-4.3-9.3-9.9-.2-1.8-1.2-3.4-1.8-5.1,0-5.8,0-11.6-.2-17.4-.1-3.9-.5-7.9-.9-11.8,1.6,5.2,3.3,10.3,4.7,15.5C1153.2,157.1,1155.6,166.7,1158.1,176.3Z"/><path class="cls-25" d="M441,167.4c-7.2-1.5-9.2-4.5-10.1-15.1-.7-7.8-1.4-15.6-1.9-23.3-.1-1.6.6-3.1.9-4.7l9.9,37.8C440.3,163.9,440.6,165.7,441,167.4Z"/><path class="cls-6" d="M387,181.3c-3,5.3-5.1,10.6-3.3,17,1,3.3.1,7,.3,10.5.5,11.8,1.2,23.7,1.9,35.6-.3.6-.9,1.1-.9,1.7-.7,18.4-1.3,36.8-2,55.1l-14.1,2.1-18-3c2.4-10,4.7-20,7-30,0-1,.1-2,.1-3s2.4-2.6,2.8-4.2c2.8-10.8,5.6-21.6,8-32.6,3.3-14.6,6-29.4,9.4-44.1,1.1-4.5,3.7-8.8,5.7-13.1C388.2,174.7,386.5,178.4,387,181.3Z"/><path class="cls-28" d="M357.9,270.3c-2.3,10-4.6,20-7,30l-9.1-3.1c.4-1.6.9-3.2,1.3-4.8Z"/><path class="cls-2" d="M335,303.3l-4.2-5.5c1.5-2.5,2.7-5.3,4.7-7.3s5.1.9,7.6,1.9c-.4,1.6-.9,3.2-1.3,4.8l-1.9,3Z"/><path class="cls-6" d="M1085.9,312.3l-18-3c2.4-10,4.7-20,7-30.1.4-1.6.7-3.2,1-4.9,2.4-6.6,5.3-13,6.9-19.8,4.6-19.9,8.7-40,13.2-60,.9-4.2,2.6-8.2,4-12.2,6.2.2,3.2,5.1,4,8-1.2,3.4-3.3,6.8-3.2,10.2,0,14.4.7,28.7,1.2,43.1.1,2.9.6,5.9.9,8.8-.7,5.4-1.7,10.7-1.9,16.1-.5,13.6-.7,27.2-1,40.8Z"/><path class="cls-28" d="M1074.9,279.2c-2.3,10.1-4.6,20.1-7,30.1l-9.1-2,1.5-6.9c4.1-6.2,8.2-12.4,12.4-18.6C1073.3,280.9,1074.2,280.1,1074.9,279.2Z"/><path class="cls-2" d="M1060.3,300.4l-1.5,6.9h-.9l-5.6,5.1-4.4-6.1,5.6-9.1Z"/><path class="cls-2" d="M1044.1,306.4c.9,3.4,2,6.8,2.7,10.3.2,1.1-1,2.5-1.5,3.8-1.7-3.5-3.5-6.9-5.2-10.3,0-1.3-.1-2.6-.1-3.9Z"/><path class="cls-17" d="M591.6,315.1c.3-3.9.5-7.8.7-11.7l12.6-20.1c-.3,13-8.2,35.3-13.7,37.5C591.4,318.8,591.5,316.9,591.6,315.1Z"/><path class="cls-12" d="M604.9,283.3l-12.6,20.1-1.5-5a7.6,7.6,0,0,0,.1-1.5c0-14.4-.6-12,14-14.6Z"/><path class="cls-25" d="M1361,106.3c.2,2.3.8,4.7.7,7-.4,7-1.1,14-1.7,21s-1.9,13.9-10.3,16c3.5-13.4,6.9-26.8,10.4-40.2Z"/><path class="cls-27" d="M1123.9,160.3c-2,11.1-4.1,22.1-5.8,33.3-1.2,8-.4,8.7,8.2,11.6-2.6,1.6-5,4.1-7.7,4.6s-7.1-.3-10.6-.5c-.6-4-1.2-8-1.7-11.9,3.5-12.3,7.1-24.6,10.6-36.8.3-1.1.7-2.2,1-3.3l7.2-12.1Z"/><path class="cls-4" d="M929.9,186.3l5.1,13.2-13.3,22.1,10.3,6.7c-5.9,6.2-13.6,5.1-21,5h-.3c-1.5-1-3-2.6-4.7-2.8q-5.7-.5-5.1-5.7c1-8.8,2.2-17.6,3.5-26.4.6-4.1,1.6-8,2.4-12.1Z"/><path class="cls-6" d="M252.9,311.3c5.2-2.2,10.2-4.5,15.4-6.6,1-.4,2.4.4,3.6.6l-2.1,11-14.8,3Z"/><path class="cls-6" d="M1305,314.3l.6,1.1Z"/><path class="cls-26" d="M668,318.3c-1.3-4-2.3-8.2-4.1-12s-3.2-4.7-4.9-7c0-3.3-.1-6.6-.1-10l16.1,8,1.9,2a20,20,0,0,1,1,2.1Z"/><path class="cls-4" d="M676.9,299.3l-1.9-2-3-11,13.9-4,3.1,3.1c-1.1,2.3-2.1,4.6-3.1,6.9l-7.9,8Z"/><path class="cls-20" d="M676.9,299.3l1.1,1c0,.4-.1.7-.1,1.1A20,20,0,0,0,676.9,299.3Z"/><path class="cls-18" d="M250.9,218.3c1.4-10.7,2.7-21.3,4-32l29,2c1.2,1.8,3.1,3.4,3.5,5.3,1.8,7.5,3.1,15.1,4.5,22.6L257,219.3Z"/><path class="cls-23" d="M300,189.3v-1a2.1,2.1,0,0,1,.3.7C300.4,189.1,300.1,189.2,300,189.3Z"/><path class="cls-18" d="M1006,225.2l-32,2.2c-2.3-.2-5.3.7-5.2-3.3l3-29.8,32.1,3c1.4,7.7,2.5,15.5,4.4,23.1C1009,223.4,1007.9,224.1,1006,225.2Z"/><path class="cls-25" d="M1020.9,206.3l-.7-1.1a.5.5,0,0,1,.4-.2l.3,1.3Z"/><path class="cls-2" d="M202,302.6l9.9-9.4,6,1.2c-2.2,6.7-4.5,13.4-6.5,20.2-.9,2.8-1,5.8-1.5,8.7Z"/><path class="cls-5" d="M1106.3,197.4c.5,3.9,1.1,7.9,1.7,11.9,1,6,2,12,3.1,18.1l1.8,11,9.9,34.9,17,31c-2.4.6-4.8,1.2-7.3,1.6s-3.9.8-4.7,0c-5.9-5.7-7,0-9,3.5H1108c-.1-1.8,0-3.7-.2-5.5-1.6-17.1-3.3-34.3-4.9-51.4-.3-2.9-.8-5.9-.9-8.8-.5-14.4-1.2-28.7-1.2-43.1-.1-3.4,2-6.8,3.2-10.2C1104.7,192.7,1105.5,195,1106.3,197.4Z"/><path class="cls-18" d="M658.9,289.3c0,3.4.1,6.7.1,10,0,5.8-.1,11.5-.1,17.2.1,2.1,0,4-2.9,3.9l-18-32.1,20-4Z"/><path class="cls-28" d="M910.2,286.4l2.7-2.1c1.6,1.8,2.9,4.5,4.8,5.1,3.5.9,7.4.6,11.2.8s3.6,3.1,2.1,6.1a49.1,49.1,0,0,0-2.2,6.8l-9.8,8.2C916,303,913.1,294.7,910.2,286.4Z"/><path class="cls-6" d="M901.9,254.3l-1.8-18.2,10.6-2.9h.3l-2.1,27-5.9-1C902.6,257.6,902.3,256,901.9,254.3Z"/><path class="cls-5" d="M919,311.3l9.8-8.2,6.1.3c-2,6.1-4.1,12.2-5.9,18.5-.9,3-2.5,3.4-5.1,2.4Z"/><path class="cls-4" d="M903,259.3l5.9,1,5.1,1.1a50.8,50.8,0,0,0-1.7,5.1c-1.2,5.6-2.2,11.2-3.4,16.8C907,275.3,905,267.3,903,259.3Z"/><path class="cls-7" d="M934.9,303.4l-6.1-.3a49.1,49.1,0,0,1,2.2-6.8c1.5-3,1.1-4.9-2.1-6.1-5.9-4.5-5.9-4.5-2.1-11.2.3-.5.7-.8.9-1.2l7.2-15.5c1.6-3,3.9-5.7,4.7-8.9,1.8-6.9,3-14.1,4.3-21.2,1-5,3.2-6.1,11.1-4.9a86.1,86.1,0,0,1,8.8.1c2.7.3,4.2-.9,5-3.3-.1,4,2.9,3.1,5.2,3.3v8c-2,14.6-4,29.3-6.1,43.9a18.8,18.8,0,0,1-1.2,3,48.4,48.4,0,0,1-4.2-5c-3.2-4.9-6.1-9.8-9.1-14.7l-1.6.5v9.2C943,280.9,938.2,291.7,934.9,303.4Z"/><path class="cls-17" d="M951.8,272.3v-9.2l1.6-.5c3,4.9,5.9,9.8,9.1,14.7a48.4,48.4,0,0,0,4.2,5c0,1.3-.1,2.6-.1,3.8-2.7,3.1-3.9,6.5-2.3,10.5.3,1.2.5,2.4.7,3.7,1.7,6.6,3.3,13.3,5,20,1.3,5,2.7,10,4,15H945.9l6-60.6A19.3,19.3,0,0,0,951.8,272.3Z"/><path class="cls-25" d="M1102.9,252.4c1.6,17.1,3.3,34.3,4.9,51.4.2,1.8.1,3.7.2,5.5h-8c.3-13.6.5-27.2,1-40.8C1101.2,263.1,1102.2,257.8,1102.9,252.4Z"/><path class="cls-26" d="M368.9,303.3l14.1-2h9c.6,8.7,1.3,17.3,1.9,26L363.4,321c-1.8-.3-3.6-.4-5.4-.6C361.7,314.7,365.3,309,368.9,303.3Z"/><path class="cls-3" d="M1048.6,324.8c1.2-4.2,2.5-8.3,3.7-12.4l5.6-5.1c-2.3,4.5.5,7.2,3.5,10,4.9,4.8,5,9.4.5,14Z"/><path class="cls-20" d="M368.9,303.3c-3.6,5.7-7.2,11.4-10.9,17.1,0,1.6,0,3.3-.1,4.9l-14,6c.4-3,.7-6,1-9,4.3-4.3,4.2-8-.1-12.7-2.5-2.6-6-4.8-4.9-9.4l1.9-3,9.1,3.1Z"/><path class="cls-3" d="M339.9,300.2c-1.1,4.6,2.4,6.8,4.9,9.4,4.3,4.7,4.4,8.4.1,12.7L331,317.4c1.3-4.7,2.6-9.4,4-14.1Z"/><path class="cls-20" d="M343.9,331.3l-1.1,1Z"/><path class="cls-28" d="M825.3,323.1l-.6-7.7c.2-.4.2-1.1.5-1.4,6.9-6.7,8-15.5,9.2-24.4s3-19.5,4.5-29.3a23,23,0,0,1,1,5.1c-.2,13.3-.9,26.5-.8,39.7.1,4.8,2,9.5,3,14.3l-6.1,9Z"/><path class="cls-25" d="M453.9,329.3a9.4,9.4,0,0,1-1,1A9.4,9.4,0,0,0,453.9,329.3Z"/><path class="cls-4" d="M1122.8,273.3l-9.9-34.9c1.3-2.1,2.7-4.1,4-6.1l9,2c4.4.5,9,.5,13.2,1.8s9.6,10.8,7.6,16.3c-.5,1.3-2.9,2.6-4.6,2.7-4.4.4-8.8.2-13.2.2-.8-.8-1.5-1.7-2.9-3.4C1122.7,259.2,1123.5,266.4,1122.8,273.3Z"/><path class="cls-6" d="M1125.9,234.3l-9-2,1.2-13.5h-1.3l-5.7,8.6c-1.1-6.1-2.1-12.1-3.1-18.1,3.5.2,7.2,1.2,10.6.5s5.1-3,7.7-4.6c2.9.8,2.5,2.7,2.2,5.1C1127.5,218.3,1126.8,226.3,1125.9,234.3Z"/><path class="cls-25" d="M394,218.4c2-2.9,3.9-5.8,5.9-8.6h1v13.5c-1.7,2.3-3.3,4.6-4.9,7C395.3,226.3,394.7,222.3,394,218.4Z"/><path class="cls-10" d="M689,285.4l-3.1-3.1c-2.6-4.7-5.3-9.3-8-14l-2.9-6c-.4-2-.7-4-1-6l6.9-3c3.4,9.7,6.7,19.3,10,29C690.3,283.3,689.6,284.3,689,285.4Z"/><path class="cls-28" d="M674,256.3c.3,2,.6,4,1,6l-9,2c-2.2-8.8-4.3-17.6-6.3-26.5-.3-1.1.1-2.3.2-3.5Z"/><path class="cls-20" d="M666,264.3l9-2,2.9,6c-2.2,2.1-4.7,4.1-6.8,6.4-3.3,3.8-3,7.7.9,11.6l3,11-16.1-8-.9-5-9.1-15,9.1-3Z"/><path class="cls-26" d="M914,261.4l-5.1-1.1,2.1-27c7.4.1,15.1,1.2,21-5,6.7,2.4,7.3,3.3,3,8.7C928.3,245.4,921,253.3,914,261.4Z"/><path class="cls-27" d="M968.8,224.1c-.8,2.4-2.3,3.6-5,3.3a86.1,86.1,0,0,0-8.8-.1l13-34.9,3.8,1.9Z"/><path class="cls-16" d="M934.9,262.3l-7.2,15.5c-.2.4-.6.7-.9,1.2-3.8,6.7-3.8,6.7,2.1,11.2-3.8-.2-7.7.1-11.2-.8-1.9-.6-3.2-3.3-4.8-5.1C917.6,274.3,925.2,267.3,934.9,262.3Z"/><path class="cls-17" d="M833,210.3h1c-2.5,29.3-8.8,57.5-24.1,83l-3-4c1.7-4.3,3.3-8.7,5-13.1,2-6,4-12,6.1-18,0-.2.1-.5,0-.7l.2-1.2,4.8-11.6c1.9-6.7,3.7-13.3,5.6-19.9C830.1,219.9,831.5,215.1,833,210.3Z"/><path class="cls-7" d="M964.3,296.6c-1.6-4-.4-7.4,2.3-10.5C965.8,289.6,965.1,293.1,964.3,296.6Z"/><path class="cls-27" d="M828.6,224.8c-1.9,6.6-3.7,13.2-5.6,19.9-1-7-2.1-14-3.1-21.1-.4-3.7-.7-7.5-1-11.3l4-2Z"/><path class="cls-25" d="M799,244.3c3.1,0,6.2-.1,9.3,0,7.5.2,7.7.5,7.7,8.8l-5.4,7.5Z"/><path class="cls-20" d="M798.9,280.4l-3.5-4.7,15.5-8.4c0,2.7,0,5.4-.1,8Z"/><path class="cls-27" d="M810.8,275.3c.1-2.6.1-5.3.1-8l-.3-6.7,5.4-7.5,2.2,3.2c-.1.4-.1.8-.2,1.2h-.4l.4.6c-2.1,6-4.1,12-6.1,18Z"/><path class="cls-12" d="M810.8,275.3l1.1.9c-1.7,4.4-3.3,8.8-5,13.1-2.6-3-5.3-6-8-8.9Z"/><path class="cls-25" d="M390.9,301.3H383c.7-18.4,1.3-36.8,2-55.2,0-.6.6-1.1.9-1.7,1.6,17.1,3.3,34.3,4.9,51.4A50.5,50.5,0,0,1,390.9,301.3Z"/><path class="cls-6" d="M672,286.3c-3.9-3.9-4.2-7.8-.9-11.6,2.1-2.3,4.6-4.3,6.8-6.4,2.7,4.7,5.4,9.3,8,14Z"/><path class="cls-25" d="M1111.1,227.4l5.7-8.6h1.3l-1.2,13.5c-1.3,2-2.7,4-4,6.1Z"/><path class="cls-18" d="M818,258.2l-.4-.6h.4C818.1,257.7,818,258,818,258.2Z"/></g></g></svg>