<svg xmlns="http://www.w3.org/2000/svg" viewBox="0 0 873.5 218.5"><defs><style>.cls-1{fill:#fcfcfc;}.cls-2{fill:#fafafa;}.cls-3{fill:#fbfbfb;}.cls-4{fill:#fdfdfd;}.cls-5{fill:#669249;}.cls-6{fill:#5b8044;}.cls-7{fill:#fefefe;}.cls-8{fill:#82a96a;}.cls-9{fill:#82aa6a;}.cls-10{fill:#84bd61;}.cls-11{fill:#92c675;}.cls-12{fill:#6da44a;}.cls-13{fill:#719f54;}.cls-14{fill:#3b5229;}.cls-15{fill:#78b454;}.cls-16{fill:#669149;}.cls-17{fill:#606060;}.cls-18{fill:#7db157;}</style></defs><g id="Layer_2" data-name="Layer 2"><g id="Layer_1-2" data-name="Layer 1"><path class="cls-1" d="M435.6,20c0,1.4-.2,2.7-.2,4,.1,10.4.3,20.9-1.8,31.1-.1.6-.3,1.2-.1,1.6,3.4,8.5,1.4,17.3,1.5,25.9.4,16.3-1.1,32.6,1.3,48.9.8,5.6.2,11.4.2,17,.1,8.2,0,16.4,0,24.8H423.1c.3-3.1.6-5.5.7-8l1.8-45.8a24.4,24.4,0,0,1,.7-4.6c.8-3.7,1.9-7.3-.4-10.9-.6-.9-.4-2.3-.4-3.4.2-15.2.8-30.4.5-45.5s-1.4-28-2.1-42c-.1-3-1.1-7.2.5-8.8s6.3-2.4,9.6-3.2c.5-.2,1.5.5,1.9,1.1,8.3,11.6,17.5,22.6,24.8,35,3.9,6.7,9.5,12.5,14.2,18.7,2.1,2.7,4,5.4,6.5,8.9a23,23,0,0,0,.8-3.7c-.3-12.7-.7-25.3-1-37.9,0-1.2.6-2.4,1-4-2-4.7-.7-10.2-1.3-15.5h12.3c0,6.6.2,12.7,0,18.8-.7,18.4-2.3,36.8-2.2,55.2,0,21.2,1.5,42.3,2.2,63.5.2,6.5,0,13,.2,19.5a84.6,84.6,0,0,0,1.1,8.8c.4,3-.5,4.1-3.5,4.2s-5.9,0-8.6,0c-.3-.5-.4-.7-.4-.9.2-17.6.3-35.2.6-52.8,0-.8.8-1.6,1.2-2.4s.6-1.4.4-1.9c-2.5-8.3-1.8-16.9-2.2-25.4a23.9,23.9,0,0,0-1.6-6.9c-.9-2.4-2.2-4.5-3.3-6.8-7.6-17.3-20.1-31.2-31.3-46.1-2.8-3.8-6-7.3-9.1-11Z"/><path class="cls-1" d="M855.6,82.2c-5.6,1.5-11.1,2.6-16.3,4.4-9.5,3.3-18.8,7-28.2,10.6a3,3,0,0,0-1.4,2.3c-.6,15.4-1.4,30.9-1.4,46.4-.1,7.4,1.3,14.9,2.1,22.3.5,4.3-.4,5.4-4.5,5.3l-1.3-.2-7.9-.8c0-1.7,0-3.2.1-4.7,1-21.1,2.3-42.1,3.1-63.1.2-7.7-.7-15.4-.8-23.1s.3-13.4.2-20.1-.5-16-.8-24-.2-14.8-.6-22.3c-.1-2.8-.9-5.6-1.3-8.4a3.6,3.6,0,0,1,4.3-4.4l9.6,1.2c-4.4,27.6-3,55.3-.8,83.3l6.7-2,15.7-4a26,26,0,0,0,3.6-1.3L854,70.8a4.3,4.3,0,0,0,2.8-4.4c0-11.4.2-22.9,0-34.3-.1-8.8-.7-17.5-1.1-26.2,0-1.8.4-3.3,2.9-3s6.5.4,10.1.7c0,3.3.2,6.7,0,10-1,17.2-2.5,34.4-2.9,51.7-.2,13,1.2,26,1.6,39.1.4,17.1.4,34.3.8,51.5a133,133,0,0,0,1.5,14c.3,2.3-.6,3.1-2.8,3s-4.6-.1-6.9.1-3.7-1.7-3.5-3.9c.5-5.4,1.4-10.8,2-16.3.2-1.4-.4-2.9-.6-4.4a25.8,25.8,0,0,1-.6-3.7c0-13.4.2-26.8-.1-40.1C857.1,97.3,856.2,90,855.6,82.2Z"/><path class="cls-1" d="M680.8,52.4C673.1,45,665.6,38,658.3,30.8c-3.3-3.3-6.4-6.9-9.5-10.4-.4-.4-.7-.9-1.1-1.1l-8.5-4c0,3.7.2,7.7,0,11.6-.3,6.1-1.1,12.2-1,18.3.1,9.3,1,18.6,1.1,27.9.1,18.6-.2,37.2-.2,55.8,0,6.1.5,12.2.7,18.3a34,34,0,0,1-.8,5.3,2.5,2.5,0,0,0,.2,1.2c2.8,5.2,1,10.9,1.5,16.4a2.5,2.5,0,0,1-1.6,2.1c-3.7.4-7.6.6-11.8.9,1.2-28.8,3.4-56.8,2.8-84.9S628.7,32,628,3.4L637.6,0a2.9,2.9,0,0,1,2,.8l35.8,32.5c4.4,4,9.1,7.9,13.5,12,.8.8,1.1,2.3,1.6,3.4s0,.2.1.3c2.3,10.4-5.8,15.7-11.1,22.3-6.6,8.3-13.6,16.3-20.3,24.5-.5.6-.3,2.1.1,3,4.8,11.4,11.5,21.7,17.9,32.3,1.4,2.4,2.1,5.2,3.1,7.8a11.8,11.8,0,0,0,.7,2c1.8,2.8,4,5.4,5.4,8.4a59.5,59.5,0,0,0,10.1,15.1c2.1,2.2,1.5,5-1.2,6.4s-4.4,2-6.5,3.2-3,.8-3.9-1.3c-2.3-5.7-4.5-11.5-7.2-17.1-3.7-7.8-7.6-15.5-11.7-23-5.5-10.2-11.3-20.1-17-30.2-2.6-4.5-2.4-5.6.9-9.6,8.2-9.7,16.4-19.3,24.3-29.1C676.7,60.6,678.3,56.7,680.8,52.4Z"/><path class="cls-1" d="M1.5,172.8c.3-4,.7-8.1.8-12.2.4-18.2,1.1-36.4,1-54.6S2.1,67.9,1.7,48.9c-.2-7.5.2-14.9.3-22.4.1-.5.3-1.2,0-1.6C-1.2,18.8,1,12.1,0,5.7A3,3,0,0,1,1.7,3.4c2.8-1.2,5.7-2,9.1-3.1L24.2,18.6l9.6,13.2c.5.6,1.2,1.2,1.2,1.8-.3,4.6,3.3,6.7,5.7,9.7,7.1,9.1,14,18.4,21.1,27.6,1.7,2.2,3.6,4.3,5.4,6.5.4.5,1.1,1,1.1,1.5-.3,4.7,1.6,9.7-1.4,14.1s-7.8,11.5-11.8,17.1c-.8,1.2-2.3,1.8-2.9,2.8a24.9,24.9,0,0,1-2,5.4c-6,10.3-12,20.7-18.4,30.8-5.2,8.3-11,16.4-16.6,24.5-.3.5-1,1.1-1.4,1ZM11.7,19.1l-.8.2c.5,7,1.2,14,1.2,21.1,0,8.7,1.9,17.6-1.5,26.2a6.6,6.6,0,0,0,.1,3.4c2.2,11.4,2.1,22.8,1.5,34.2-.8,16.8-2,33.5.1,50.2.2,1.4.3,2.7.5,4.1l1,.3,29.1-45c4.8-7.5,9.4-15.1,14.3-22.6,2.4-3.7,1.2-6.5-.7-10-7.1-12.7-17-23.2-25.3-35C24.8,37.1,18.2,28.1,11.7,19.1Z"/><path class="cls-1" d="M543.9,138.2c-2.2.5-3-1-3.9-3-5.9-13.6-12-27.1-17.8-40.7-1.2-2.9-1.5-6.1-2.2-9.2a2.6,2.6,0,0,1,.1-1.2c5.1-11,9.6-22.4,15.6-32.9,3.5-6.1,5.2-12.8,8.4-19s5.7-12.6,8.4-19c1.3-2.9,2.5-6,3.9-8.9a3,3,0,0,1,1.9-1.6l9.3-1c2,5.1,3.9,10.2,6,15.2l10.3,23.7c1,2.3,1.6,4.8,2.4,7.1s.8,5.6,4.2,6.5c.5.1.7,1.2,1,1.9,3.4,7,6.4,14.1,10.2,20.9s3.1,11.9.5,17.7c-4.1,9.4-9.1,18.5-13.2,27.9-7,15.7-13.6,31.6-20.3,47.5-2,4.8-2.4,5.2-7.4,4.4a5.6,5.6,0,0,0-2.2-.3c-2.4.1-3.5-1-3.7-3.5a15.6,15.6,0,0,0-1.4-4.5c-1.9-4.5-4.2-8.9-5.9-13.6S545.4,143.3,543.9,138.2Zm18.6,20.7a14.5,14.5,0,0,0,1.7-1.9c1.5-3.4,2.8-7,4.6-10.3,3.9-7.4,4.8-16.5,11.8-22.2.3-.3.3-.8.5-1.2,3.6-10.9,7.2-21.9,11-32.8,1.6-4.5-.4-8.5-1.7-12.4s-3.8-6.4-5.4-9.8c-4.5-9.9-8.8-19.9-13-30-.7-1.6-.7-3.4-1-5.1-4.1-4.8-5.3-11.4-8.9-16.5-4.6,9.1-9.1,18.1-13.9,27-2.2,3.8-3.2,8.5-7.3,11.2-.5.3-.5,1.5-.7,2.3a79.7,79.7,0,0,1-2.2,8.4c-1.9,5.1-4.2,9.9-6.1,14.9-.7,1.9-1.1,4.5-.4,6.3,4.8,12.2,9.9,24.3,15.1,36.3S557.1,146.7,562.5,158.9Z"/><path class="cls-1" d="M249.4,173c.3-14.4.9-28.4,1-42.3s.1-28.2,0-42.3.8-27.6.5-41.5-.7-27.9-1.1-42.2h.2c8.6-4.8,8.6-4.8,15.7,2,4.4,4.1,9.3,7.8,13,12.5,8.8,11,20.8,18.5,30.4,28.6a8.6,8.6,0,0,1,1.6,3.5c.2.5-.1,1,0,1.6.4,5.1-1.7,8.6-5.5,12.4C295,75.5,285.6,86.5,275.9,97.3c-3.3,3.7-6.4,7.6-9.8,11.1a19.2,19.2,0,0,0-6,15.6c.2,4.6.3,9.3.3,13.9a36.7,36.7,0,0,1-.9,5.1c.2.4,1,1.3,1,2.1.6,9.2,1,18.3,1.5,27.9Zm11-73.1a22.4,22.4,0,0,0,2.1-2l37-40.5c1.7-1.8,1.3-3.3-.4-4.9L284.4,38.2c-1.3-1.3-2.2-2.9-3.5-4.1s-3.1-1.8-4.3-3c-5-4.7-9.9-9.5-15.2-14.6C258,44.4,260.9,71.7,260.4,99.9Z"/><path class="cls-1" d="M224.5,160.9c-.3,3.5-.6,5.9-.6,8.3s-1.5,4.6-4.8,4.3c-7.9-.6-15.9-1.2-23.9-1.4-4.8-.2-9.6.5-14.3.7H169c0-3.3-.1-6.4,0-9.5.3-6.9.9-13.8,1.2-20.8.3-9.9-.1-20,.8-29.9s-1.2-19.7-1.2-29.5c0-12.2.6-24.5.8-36.7.1-6.7-.3-13.5,0-20.2s-.2-14.6-.9-22.6H221c-.1,3.3-.3,7.1-.5,11.5-13.4-1.4-26.5-3.3-39.4-2.4,0,12.7,1.5,25.2-.5,37s.4,21.6-.3,33.2l25.6-1.4a62.8,62.8,0,0,1,7.5-.4c2.1.1,3.3,1.1,2.7,3.5s-1.1,5.2-1.6,8.1l-33-1.7c-.4,6.5-.8,12.7-1,18.8s.1,12.8.4,19.1c.6,10.1,1,20.2.8,30.3-.1,2.3.7,3,2.8,3.5,8.3,2.1,16.4,0,24.5-.4C214.1,162.1,219.1,161.4,224.5,160.9Z"/><path class="cls-1" d="M90.8,3.4h51c-.1,3.5-.3,7.3-.5,11.6-13.3-1.4-26.4-3.1-39.4-2.3,0,11.9.6,23.3-.3,34.6-.4,5.8-1.6,11.5-1.3,17.4s.6,11.5,1,17.4c6.7,0,13.3.1,19.9,0,4.1-.1,8.2-.8,12.3-1s3.9,1.2,3.3,4.2l-1.6,7.4L102.4,91c-.3,3.6-.6,7-.8,10.5s-.7,9.4-.6,14.2.6,8.1.9,12.1a8.8,8.8,0,0,1,.2,1.6c-.8,9.7.5,19.4.3,29.2,0,2.6.8,3.6,3.6,4.3,8,1.8,15.7-.2,23.6-.6,5-.2,10.1-.9,15.7-1.5-.4,4-.4,7.3-1.1,10.4-.2,1-2.3,2.2-3.5,2.2-8-.3-16-1.1-24-1.2-5-.2-10.1.5-15.2.6H90a48.7,48.7,0,0,1-.5-6.5c.4-8.3,1.1-16.6,1.4-24.9s-.1-18.3.8-27.4-1-19.9-1-29.9c.1-15.1.5-30.3.7-45.4.1-5-.6-10,.1-14.9C92.3,17.2,90.3,10.8,90.8,3.4Z"/><path class="cls-1" d="M733.3,13c-8.1-1.2-15.8.5-23.5,2.1-1.2.2-2.4.6-3.7.7s-3.7-1.2-3.3-3.8.9-6.4,1.2-9h71.4V16c-10-2.4-19.8-4.8-30.5-3.2-.4,6-1.1,12.2-1.1,18.5-.2,20.8-.1,41.6-.2,62.5,0,2.9-1.1,5.8-1.5,8.8a5.5,5.5,0,0,0,.5,3.3c1.8,4.2,1.7,8.6,1.7,13,.1,12,.1,24,.6,36a51.5,51.5,0,0,0,2.3,12.7c.8,2.9-.5,4.6-2.7,4.9a59.9,59.9,0,0,1-11.2.1c-.5,0-1.3-1.8-1.2-2.7.6-8.3,1.5-16.7,2.1-25.1.2-2.5-.8-5.1-.7-7.6.5-17.7,1.1-35.3,1.6-53,.3-9.2.6-18.3.8-27.5,0-2-.5-3.9-.6-5.9-.2-5-.9-10.1-.4-15s-.3-10.9-1-16.3C733.7,17.4,733.5,15.3,733.3,13Z"/><path class="cls-2" d="M676.6,217.6c-8.8.7-8.8.7-12.5-7.3-1-2.1-2.3-4.1-2.9-6.3s-3.3-4.8-7.1-3.7v12.9l4.6.2v4.1H628.3v-4.1l4.3-.3c-.8-2.5-1.4-4.9-2.3-7.2a2.7,2.7,0,0,0-2-1.4,28,28,0,0,0-4.1,0c-8.3,0-8.3,0-10.2,8.6l4.1.4v4H603.6v-4.3c4.6,1.4,5.2-1.9,6.2-4.9,2.4-6.8,4.8-13.5,7.3-20.2.3-1,.6-2,1-3.1l-4.3-.3v-4h18.8v3.9l-4.1.4a16.8,16.8,0,0,0,.6,2.4c2.8,7.7,5.7,15.4,8.4,23.1.7,2.2,1.7,3.1,4,2.8s4.2,0,6.6,0V185l-4.8-.3v-4.6c7.7.4,15.5.4,23.1,1.3,3.6.5,5.5,3.7,5.9,7.4s-.7,7.1-4.3,9.1l-3.2,1.5c2,4.3,3.7,8.8,6.2,12.7.8,1.2,3.7.9,5.6,1.4Zm-22.5-21.9a74.4,74.4,0,0,0,8.4-.5c2.8-.4,4-2.5,4-5.2s-1.4-4.7-4.3-4.9a72.4,72.4,0,0,0-8.1-.1ZM623.7,185H623l-4.9,14.8h10.3C626.8,194.7,625.2,189.9,623.7,185Z"/><path class="cls-3" d="M557.3,217.5v-4l4.2-.4V185l-4.1-.3v-4.3c3.9,0,7.8-.1,11.8.1.6.1,1.4,1.4,1.7,2.3,2.7,6.7,5.2,13.5,7.8,20.3l1.2,2.8c1.3-3.1,2.2-5.6,3.2-8.1,1.9-5,3.9-10,5.7-15,.6-1.7,1.4-2.5,3.4-2.4s6.7,0,10.3,0v4.3l-4.1.3v28.2l4.1.2v4.1H588.9v-4l4.1-.4V186.7l-.5-.2c-4.1,10.7-8.2,21.3-12.4,32h-.9L567.1,187h-.5v26l3.6.3v4.1Z"/><path class="cls-2" d="M826.3,218c-3.9,1.1-6,0-7.7-3.3-4.9-9.3-10.3-18.3-15.9-28.2v26.6l5,.3v4.1H792.9v-4.1l4.8-.2V185l-4.8-.3v-4.3c3.7,0,7.3-.1,10.9.1a3.9,3.9,0,0,1,2.4,2c4.2,7.1,8.2,14.2,12.2,21.3.8,1.5,1.7,2.9,3,5.1V185l-4.9-.3v-4h15v4.1h-5.2Z"/><path class="cls-3" d="M866.3,204.4h-6.1v-4.1h13c1.5,5.8-2.1,12.7-8.4,15.9-8.3,4.2-20.2,2.3-25.5-4.2s-6.1-18.5-.6-25.5,15.8-8.6,27.9-2.6l.3-3.3,2.1-.2h2.3v11.8c-2.7.6-4.5.2-6.3-2.2a13.8,13.8,0,0,0-18.9-2.6c-5.7,4.5-6.9,14.4-2.6,20.4s13,7.4,18.9,3.1c1.9-1.4,3.1-3.6,4.6-5.4Z"/><path class="cls-4" d="M737.3,206.5h4.5v11.1H711.2v-4.1l4.5-.3V185l-4.6-.3v-4.1h30.7v11.1h-4.4V185H721.8v11.1h13.4v4.4H721.7v12.6h15.6Z"/><path class="cls-5" d="M354.2,18.5c.3-1.4.5-2.9.7-4.3.9,2.5,2.1,5,2.5,7.6,1.2,8.8,2.1,17.5,3.1,26.3l3.3,27.4-.9,9.5-8.5-.6c-.6-1-1.2-2-1.9-3l-3.2-.9c-.3-2-.1-4.3-.9-6.1s-1.2-5.4.9-7.8l1.2,5.5h.9c.7-5.3,1.8-10.6.4-16,.5-3.9,1.1-7.7,1.4-11.6C353.9,35.8,355.7,27.2,354.2,18.5Z"/><path class="cls-6" d="M384.6,125.4l3.3,8.9c-.3,1-.6,2.1-.8,3.1l-1.7-.8c-2.9-1.9-3-1.8-4.1,1.5-.6,1.6-1.6,2.9-2.3,4.4-.8-2.5-1.9-4.6-5-4.4a15.1,15.1,0,0,1-1.9-3.5c-1.3-6.7-2.3-13.5-3.6-20.2a5.1,5.1,0,0,1,2.3-5.7l7.7-5.5,1.6-.5c.5,1.4.9,2.9,1.4,4.3.3,5.7,3.6,9.7,7.6,13.4H389l.9.7c.8,1.3,1.6,2.5,2.3,3.8l-3.9,3.2-3.6-2.6-.5-.7Z"/><path class="cls-6" d="M363.8,75.5l-3.3-27.4c-1-8.8-1.9-17.5-3.1-26.3-.4-2.6-1.6-5.1-2.5-7.6s.5-3.7.8-5.6l.7-.2a13.9,13.9,0,0,1,1,2.6c3.6,13.1,6.9,26.4,10.8,39.4,1.6,5.2,4.8,9.8,7.1,14.7.6,1.3.5,2.9.8,4.3a12.3,12.3,0,0,0,.8,3.3c.9,1.8.7,2.9-1.3,4s-1.6,2.1-2.3,3.2L367,83.7C366,81,364.9,78.3,363.8,75.5Z"/><path class="cls-7" d="M744.4,180.6h30v13.6H770V185h-7.5v28.1l4.4.3v4.1H752v-4l4.4-.3V185H749v9.1h-4.6Z"/><path class="cls-8" d="M349.3,66.6c-2.1,2.4-2.3,4.9-.9,7.8s.6,4.1.9,6.1l-1.3.7c-1.4-2.5-2.8-2.2-4.3-.1-1.7-1.7-3.4-3.6-5.3-5.2s-1.9-1.9-1-3.4c8.5-14.2,10.5-30.3,14.4-45.9.6-2.7,1.6-5.4,2.4-8.1,1.5,8.7-.3,17.3-1,25.9-.3,3.9-.9,7.7-1.4,11.6S350.1,63.1,349.3,66.6Z"/><path class="cls-3" d="M686.7,197.5l12-12.3-3.9-.6v-4H709V185c-3.3-1-4.9,1.1-6.7,3.1l-8.7,9.7c3.8,4.9,7.4,9.8,11.3,14.5.8.9,2.7,1,4.5,1.5v3.7H694.5v-4.1l3.9-.2c-4-5.3-7.8-10.2-11.7-15.1Z"/><path class="cls-9" d="M332.8,135.5c-4.9-4.6-3-9.6-.9-14.6a11.6,11.6,0,0,0,.4-1.8l7.5-17.2,2.4-.6c-.9,2.8-1.9,5.6-3,9h8.1c-.2,1.4-.5,2.9-.7,4.3-2.5,7.8-5,15.6-7.4,23.4l-1.3.7Z"/><path class="cls-10" d="M329.1,163.3c-2.9-1-3.6-2.7-1.8-5.4a20,20,0,0,0,1.7-4h0a10.1,10.1,0,0,1,.7-1.5c1.2-2.4,2.5-4.9,3.7-7.4,1,1,2.3,1.9,2.8,3.1,2.9,6.5,3.5,7,10.8,7.1a48.6,48.6,0,0,1,5.5.7c-1.3,4-2.6,7.9-4,11.8l-6.9-1.2C337.7,164.4,334.1,161,329.1,163.3Z"/><path class="cls-1" d="M686.7,197.5v15.6l4.2.4v4.1H676.6v-4.1l4.3-.3V185l-4.4-.3v-4h14.8v4l-4.6.3Z"/><path class="cls-4" d="M786.9,213.2l3.5.2v4.1H777.2v-4.1l3.6-.2V185l-3.6-.2v-4.1h13.2v4l-3.5.3Z"/><path class="cls-11" d="M333.4,145c-1.2,2.5-2.5,5-3.7,7.4a10.1,10.1,0,0,0-.7,1.5h0c-1.8,1.5-3.7,2.9-5.4,4.4a21.8,21.8,0,0,0-2.5,2.8c-4.4-4.2-4.5-7.6-.7-11.7s8.3-9.3,12.4-13.9l5.1,3.2Z"/><path class="cls-12" d="M382.7,167l-4.4,1.4a13.8,13.8,0,0,0-2.7-.8c-3.4-.1-5-2.2-5.9-5.1s-1.8-6.2-2.8-9.3l10.1-3.8,2.6,5.1C380.6,158.7,381.6,162.8,382.7,167Z"/><path class="cls-8" d="M387.1,137.4c.2-1,.5-2.1.8-3.1l13.7,12.4a4.3,4.3,0,0,1,.9,2.3,3.8,3.8,0,0,1-.5,2.2c-.4.3-1.5,0-2.2-.4s-2-1.4-3.1-2.1a1.8,1.8,0,0,0-.7-.5l-.2-.2.2.2a1.8,1.8,0,0,0,.5.7c.5,1.7,1.3,3.3,1.4,5s-1.2,1.8-1.8,2.6l-10.4-9.9-.5-.3v-2.5l1.9-3.2Z"/><path class="cls-13" d="M385.2,146.3l.5.3,10.4,9.9c.4,3.8-2.3,4.5-5.1,5.2l-11.4-7.2-2.6-5.1-2.5-6.9c-.2-1.5-.4-2.9-.5-4.4,3.1-.2,4.2,1.9,5,4.4C380.7,148.1,381,148.3,385.2,146.3Z"/><path class="cls-6" d="M366.9,153.2c1,3.1,1.9,6.2,2.8,9.3s2.5,5,5.9,5.1a13.8,13.8,0,0,1,2.7.8c1.1,3-.2,4.3-3.2,4.8s-6.3,1.7-9.5,2.1c-5.2.6-5.5.2-5.6-4.9,5.6-.3,6.1-1.1,5.3-6.8-.3-2.3-.2-4.8-.3-7.2v-3.8Z"/><path class="cls-14" d="M348.5,167.7c1.4-3.9,2.7-7.8,4-11.8s2.1-6,3.1-9,.9-3.8,1.4-5.6l3.3-1.5c.1,4,.2,7.5.3,10.9l-1.2,7c-.6,1.4-1.2,2.9-1.9,4.3s-2.9,5.2-4.4,7.8Z"/><path class="cls-13" d="M380.1,102.7l-1.6.5c-5.4-.1-5.4-.1-7.2-5.3l-1.5-5.4,7.3-4.5c2.4,2.8,4.9,5.5,7.1,8.4a3.2,3.2,0,0,1-.1,2.7A46.4,46.4,0,0,1,380.1,102.7Z"/><path class="cls-11" d="M342.2,101.3l-2.4.6h-.6l-2-2c-1.4-1.5-1.5-2.9-.5-4.8,2.5-4.6,4.7-9.3,7-14,1.5-2.1,2.9-2.4,4.3.1C346.1,87.9,344.2,94.6,342.2,101.3Z"/><path class="cls-6" d="M348.5,167.7l4.6,2.1c-.9,2.5-1.8,4.9-2.9,7.3a2.5,2.5,0,0,1-2.3,1c-3.6-1-7.1-2.3-10.7-3.4l4.4-8.2Z"/><path class="cls-6" d="M379.6,154.5l11.4,7.2c-.2,2.6-.3,5.2-.7,7.7s-1.6,2.5-3.3,1.1l-4.3-3.5C381.6,162.8,380.6,158.7,379.6,154.5Z"/><path class="cls-13" d="M341.6,166.5l-4.4,8.2c-4.2-1.2-3.9-3.9-1.8-7.3h-.9l-5.5,3.5c-2.3-1.9-3.1-3.7-.7-5.8a6.7,6.7,0,0,0,.8-1.7C334.1,161,337.7,164.4,341.6,166.5Z"/><path class="cls-15" d="M357.5,162c.7-1.4,1.3-2.9,1.9-4.3l5.6-1.3c.1,2.4,0,4.9.3,7.2.8,5.7.3,6.5-5.3,6.8a40.7,40.7,0,0,1-1.8-4.4A27.9,27.9,0,0,1,357.5,162Z"/><path class="cls-16" d="M377.1,88l-7.3,4.5c-.9-2.9-1.9-5.8-2.8-8.8l6.3-3.8Z"/><path class="cls-6" d="M339.2,101.9h.6l-7.5,17.2c-.2-1.2-.9-2.6-.4-3.4C334.1,111,336.7,106.5,339.2,101.9Z"/><path class="cls-13" d="M388.3,128l3.9-3.2a19.4,19.4,0,0,1,2.6,3.1c1.1,1.7.5,3.1-1.2,4.2s-2.7.4-3.6-1.1Z"/><path class="cls-13" d="M389.1,120.4c-4-3.7-7.3-7.7-7.6-13.4Z"/><path class="cls-13" d="M389.9,121l-.9-.7Z"/><path class="cls-14" d="M367,83.7c.9,3,1.9,5.9,2.8,8.8l1.5,5.4c1.8,5.2,1.8,5.2,7.2,5.3l-7.7,5.5a5.1,5.1,0,0,0-2.3,5.7c1.3,6.7,2.3,13.5,3.6,20.2a15.1,15.1,0,0,0,1.9,3.5c.1,1.5.3,2.9.5,4.4h-1.9c-6.8,0-7.3-.6-7.5-7.2s-.5-13.3-.8-19.9c.3-2.3.5-4.6.7-6.9,2.8-2,2.9-4.6,1.8-7.6s-2-5.9-3-8.9l-.9-6.9.9-9.5C364.9,78.3,366,81,367,83.7Z"/><path class="cls-15" d="M342.2,101.3c2-6.7,3.9-13.4,5.8-20.1l1.3-.7,3.2.9c-.7,9.4-1.5,18.9-2.2,28.3l-3,.6h-8.1C340.3,106.9,341.3,104.1,342.2,101.3Z"/><path class="cls-14" d="M350.3,109.7c.7-9.4,1.5-18.9,2.2-28.3.7,1,1.3,2,1.9,3l-.3,7.6.3,16.4Z"/><path class="cls-12" d="M354.1,92l.3-7.6,8.5.6.9,6.9Z"/><path class="cls-6" d="M349.3,66.6c.8-3.5,1.7-7.1,2.5-10.6,1.4,5.4.3,10.7-.4,16h-.9Z"/><path class="cls-16" d="M385.2,146.3c-4.2,2-4.5,1.8-6.2-3.8.7-1.5,1.7-2.8,2.3-4.4,1.1-3.3,1.2-3.4,4.1-1.5l1.7.8v3.2c-1.9.3-4.4.2-1.9,3.2Z"/><path class="cls-17" d="M384.6,125.4l-.4-.7.5.7Z"/><path class="cls-16" d="M364.3,115.3c.3,6.6.6,13.3.8,19.9s.7,7.2,7.5,7.2h1.9l2.5,6.9-10.1,3.8-1.9-.6-4.4-1.9c-.1-3.4-.2-6.9-.3-10.9l-3.3,1.5L343.5,140l-4.3-2c2.4-7.8,4.9-15.6,7.4-23.4a18,18,0,0,0,13.1,1.3C361.2,115.6,362.8,115.5,364.3,115.3Z"/><path class="cls-18" d="M339.2,138l4.3,2c2.6,4.8,6.9,6.6,12.1,6.9-1,3-2,6-3.1,9a48.6,48.6,0,0,0-5.5-.7c-7.3-.1-7.9-.6-10.8-7.1-.5-1.2-1.8-2.1-2.8-3.1l4.5-6.3Z"/><path class="cls-6" d="M364.3,115.3c-1.5.2-3.1.3-4.6.6a18,18,0,0,1-13.1-1.3c.2-1.4.5-2.9.7-4.3l3-.6,4.1-1.3c3.5,2.4,7.1.8,10.6,0C364.8,110.7,364.6,113,364.3,115.3Z"/><path class="cls-17" d="M329,153.9a10.1,10.1,0,0,1,.7-1.5A10.1,10.1,0,0,0,329,153.9Z"/><path class="cls-13" d="M385.2,143.8c-2.5-3,0-2.9,1.9-3.2Z"/><path class="cls-17" d="M396.5,148.9a1.8,1.8,0,0,1-.5-.7h0a1.8,1.8,0,0,1,.7.5C396.6,148.8,396.6,148.9,396.5,148.9Z"/><polygon class="cls-17" points="396 148.2 395.8 148 396 148.2 396 148.2"/><path class="cls-12" d="M360.6,150.7l4.4,1.9v3.8l-5.6,1.3Z"/><path class="cls-13" d="M355.6,146.9c-5.2-.3-9.5-2.1-12.1-6.9l13.5,1.3C356.5,143.1,356.1,145,355.6,146.9Z"/><path class="cls-15" d="M365,108.4c-3.5.8-7.1,2.4-10.6,0L354.1,92h9.7c1,3,1.9,6,3,8.9S367.8,106.4,365,108.4Z"/></g></g></svg>