<svg xmlns="http://www.w3.org/2000/svg" viewBox="0 0 90 90"><defs><style>.cls-1{fill:#b25317;}.cls-2{fill:#f2701f;}.cls-3{fill:#163846;}.cls-4{fill:#12313c;}.cls-5{fill:#524d4c;}.cls-6{fill:#faf9f8;}.cls-7{fill:#e6e6e6;}.cls-8{fill:#fbcf29;}.cls-9{fill:#f7ad3b;}.cls-10{fill:#6a6a6a;}</style></defs><g id="Layer_2" data-name="Layer 2"><g id="Layer_1-2" data-name="Layer 1"><path class="cls-1" d="M89.3,37c2.8,17-2.4,31.4-15.4,42.4s-25,12.7-39.7,9.1l-1.1-.4h0c-.1-.3-.1-.8-.4-1-5.8-5.9-11.8-11.7-17.6-17.5a32.1,32.1,0,0,1-2.1-3c3.1-.1,6.3,0,9.4-.2a7.5,7.5,0,0,0,2.8-1.1l.3-3V52.7H39.8v2.9c-3.1-.1-1.9,1.9-1.8,3.4H51.2V56l-2-.7V52.7h5.2c0,3.6.1,6.8,0,10.1s1,3.1,3.2,3.1c5.1-.1,10.3,0,15.4,0,3,0,3.5-.5,3.5-3.6V43.2c0-5.6,0-5.6-5.4-6.3-.2,0-.3-.2-.4-.3V19.3l15,14.9C86.9,35.2,88.1,36.1,89.3,37Z"/><path class="cls-2" d="M89.3,37c-1.2-.9-2.4-1.8-3.5-2.8l-15-14.9c0-2-1.5-1.5-2.6-1.5H20.8l-2.4.2V39.5h-5c-1.7-.1-2.5.7-2.5,2.4.1,7.3,0,14.7.1,22,.1.9,1.3,1.8,2,2.7a32.1,32.1,0,0,0,2.1,3c5.8,5.8,11.8,11.6,17.6,17.5.3.2.3.7.4,1-10-2.3-17.8-8-24-16.1A45,45,0,0,1,53.5.7C71,3.9,85.5,18.1,89.2,35.8A4.9,4.9,0,0,0,89.3,37Z"/><path class="cls-2" d="M33.1,88.1l1.1.4Z"/><path class="cls-3" d="M13,66.6c-.7-.9-1.9-1.8-2-2.7-.1-7.3,0-14.7-.1-22,0-1.7.8-2.5,2.5-2.4h5V18l2.4-.2H68.2c1.1,0,2.6-.5,2.6,1.5V36.6c.1.1.2.3.4.3,5.4.7,5.4.7,5.4,6.3V62.3c0,3.1-.5,3.6-3.5,3.6-5.1,0-10.3-.1-15.4,0-2.2,0-3.2-.9-3.2-3.1s0-6.5,0-10.1h-29v8.5l-.3-2.7c-.2-1.8-.3-3.6-.4-5.3V50.6H25c-.1-.1-.1-.2-.2-.4V48.6h.7l2.7.4H54.6V43.5c0-6.4,0-6.4,6.2-6.4h7.7c0-4.9,0-9.5-.1-14.1a28.9,28.9,0,0,0-.4-2.9c1.1-1.5-.6-.7-.8-.7H22.6c-.4,0-.7.4-1,.7a5.8,5.8,0,0,0-1,1.9V39.3c2.1.6,5-.8,4.9,2.8l-.8.5-4.9-.2H11.7V60.8l.7.7H24.5l1,.2v.5l-.3,3a7.5,7.5,0,0,1-2.8,1.1C19.3,66.6,16.1,66.5,13,66.6Zm42.6-8.4v4H75.4V39.6H55.6ZM20.8,64.3c-1.2-1-1.8-1.9-2.4-1.9a2.3,2.3,0,0,0-1.8,1.5c-.1.6.8,1.8,1.3,1.8S19.5,65,20.8,64.3Z"/><path class="cls-4" d="M49.2,55.3l2,.7v3H38c-.1-1.5-1.3-3.5,1.8-3.4Z"/><path d="M49.2,55.3l-9.4.3V52.7h9.5C49.3,53.6,49.2,54.4,49.2,55.3Z"/><path class="cls-5" d="M24.8,53.2c.1,1.7.2,3.5.4,5.3l.3,2.7v.6l-1-.2Z"/><path class="cls-5" d="M25.2,65.3l.3-3Z"/><path class="cls-6" d="M68,20.1a28.9,28.9,0,0,1,.4,2.9c.1,4.6.1,9.2.1,14.1H60.8c-6.2,0-6.2,0-6.2,6.4V49H28.2l-2.7-.4.2-.5a4.9,4.9,0,0,0,4.6-1.8C38.1,38.2,46,30.2,53.8,22.2A8.8,8.8,0,0,0,55,20.3Z"/><path class="cls-7" d="M55,20.3a8.8,8.8,0,0,1-1.2,1.9c-7.8,8-15.7,16-23.5,24.1a4.9,4.9,0,0,1-4.6,1.8v-5l-.2-1c.1-3.6-2.8-2.2-4.9-2.8V22a5.8,5.8,0,0,1,1-1.9H55Z"/><path class="cls-8" d="M71.6,39.6h3.8V62.2H55.6v-4c.3-.1.7-.1.9-.3Z"/><path class="cls-8" d="M24.8,53.2l-.3,8.4H12.4a4.6,4.6,0,0,0-.7-.7V51.6l8.1-9.2,4.9.2c0,2,.1,4,.1,6v4.6Z"/><path class="cls-9" d="M71.6,39.6,56.5,57.9c-.2.2-.6.2-.9.3V39.6Z"/><path class="cls-4" d="M55,20.3H21.6c.3-.3.6-.7,1-.7H67.2c.2,0,1.9-.8.8.7Z"/><path class="cls-9" d="M19.8,42.4l-8.1,9.2V42.4Z"/><path class="cls-10" d="M20.8,64.3c-1.3.7-2.1,1.5-2.9,1.4s-1.4-1.2-1.3-1.8a2.3,2.3,0,0,1,1.8-1.5C19,62.4,19.6,63.3,20.8,64.3Z"/><path class="cls-5" d="M24.8,48.6c0-2-.1-4-.1-6l.8-.5a3.6,3.6,0,0,0,.2,1v5l-.2.5Z"/><path class="cls-9" d="M11.7,60.8a4.6,4.6,0,0,1,.7.7A4.6,4.6,0,0,0,11.7,60.8Z"/><path class="cls-9" d="M17.1,61.5h0Z"/><path class="cls-9" d="M23.2,61.5h0Z"/><path class="cls-9" d="M19.1,61.5h0Z"/><path class="cls-9" d="M15.6,61.5h0Z"/><path class="cls-5" d="M24.8,50.6v-.5c.1.2.1.3.2.4Z"/><polygon class="cls-9" points="21.2 61.5 21.3 61.4 21.5 61.5 21.4 61.6 21.2 61.5"/><path class="cls-6" d="M25.7,44.6v0Z"/></g></g></svg>