<svg xmlns="http://www.w3.org/2000/svg" viewBox="0 0 90 90"><defs><style>.cls-1{fill:#f2701f;}.cls-2{fill:#b25317;}.cls-3{fill:#4c4b55;}.cls-4{fill:#1e9cd7;}.cls-5{fill:#fbcf29;}.cls-6{fill:#efefee;}.cls-7{fill:#7bb74a;}.cls-8{fill:#524d4c;}.cls-9{fill:#393940;}.cls-10{fill:#6a6a6a;}</style></defs><g id="Layer_2" data-name="Layer 2"><g id="Layer_1-2" data-name="Layer 1"><path class="cls-1" d="M45.2,90C32,90.3,21,85.3,12.3,75.7.3,62.5-3,47,2.8,30.2S20.8,3.7,38.1.6C63.8-3.8,88.3,15.9,90,42a20.9,20.9,0,0,1-.1,2.5L76.4,31.2l5.2-3.4-5.1-1.4c.4-1.6.7-3.1,1-4.6l-.6-.5-6.4,5a67.7,67.7,0,0,0-5.9-6.1C50.8,8.8,28.3,12.7,19,28.1s-5.4,33.5,9.4,43.8a20.3,20.3,0,0,0,1.8,2.3L43.7,87.8A12.1,12.1,0,0,1,45.2,90Z"/><path class="cls-2" d="M45.2,90a12.1,12.1,0,0,0-1.5-2.2L30.2,74.2a20.3,20.3,0,0,1-1.8-2.3l2.1.9a30,30,0,0,0,20.1,3.5c11.1-2.1,19.2-8.4,23.7-18.9,3.8-8.6,3.4-17.3-.4-25.8l2.5-.4L89.9,44.5c.3,14.7-5.5,26.7-16.8,35.8A41.2,41.2,0,0,1,45.2,90Z"/><path class="cls-3" d="M73.9,31.6c3.8,8.5,4.2,17.2.4,25.8C69.8,67.9,61.7,74.2,50.6,76.3a30,30,0,0,1-20.1-3.5l-2.1-.9C13.6,61.6,9.7,43.5,19,28.1S50.8,8.8,64.6,20.2a67.7,67.7,0,0,1,5.9,6.1l-1.9,3.2a54.4,54.4,0,0,0-4.7-4.9c-7.5-7.3-20.2-9.1-29.7-4.8A28,28,0,0,0,17.9,48.5a26,26,0,0,0,7.2,16c7.2,7.6,16.1,9.5,26.1,7.8,12-2.2,21.5-13.7,21.8-25.9a30.6,30.6,0,0,0-3.2-14.6Z"/><path d="M73.9,31.6l-4.1.2-3.5,1.9L60.9,37l-.6.5-7.5,4.4-6.2,3.5a3.6,3.6,0,0,1-1.8.2,9.1,9.1,0,0,1,.9-1.7l6.1-3.8L59,35.9l1.8-1,4.7-3,3.1-2.4,1.9-3.2,6.4-5,.6.5c-.3,1.5-.6,3-1,4.6l5.1,1.4-5.2,3.4Z"/><path class="cls-4" d="M66.3,33.7l3.5-1.9A30.6,30.6,0,0,1,73,46.4c-.3,12.2-9.8,23.7-21.8,25.9-10,1.7-18.9-.2-26.1-7.8a26,26,0,0,1-7.2-16A28,28,0,0,1,34.2,19.8c9.5-4.3,22.2-2.5,29.7,4.8a54.4,54.4,0,0,1,4.7,4.9l-3.1,2.4C61,24.4,54.1,21.1,45.7,20.8A24.2,24.2,0,0,0,21.6,49.3c1.7,9.4,7.2,16,16.3,18.8s18.6.9,25.5-6.8,7.8-15.6,4.7-24.7C67.8,35.5,66.9,34.7,66.3,33.7Z"/><path class="cls-5" d="M66.3,33.7c.6,1,1.5,1.8,1.8,2.9,3.1,9.1,1.7,17.5-4.7,24.7s-15.7,9.9-25.5,6.8S23.3,58.7,21.6,49.3A24.2,24.2,0,0,1,45.7,20.8c8.4.3,15.3,3.6,19.8,11.1l-4.7,3h-2l-1.1-1.6h.1l-2.1-1.6h0a6.2,6.2,0,0,0-6.1-3L47,28.3a12.4,12.4,0,0,0-10.7,2.1c-1.6,1.1-2.8,2.9-4.3,4.5h0l-.9,1h0c-4.7,5.2-3.8,16.5,1.5,20.8h.5l1,1h0l2,1.5h0c.1.3.2.9.4.9l8.2,2.5c3.9.1,7.6-.5,10.5-3.4h0l1.5-1.5h0l1.6-1.5h0c.5-.5,1.2-.9,1.6-1.4,3.7-5.8,3.8-11.7,1-17.7Z"/><path class="cls-6" d="M47,28.3l2.6.5,6.1,3h0l2.1,1.6h-.1l1.1,1.6h-.1l.3,1-7.2,4.2c-4-4.2-9.9-4.1-12.9.2a8.2,8.2,0,0,0,.7,10.4A8,8,0,0,0,49.7,52c3.4-2.1,4.6-5.8,3.1-10.1l7.5-4.4c.5,1.9,1.2,3.7,1.5,5.6.8,4.8-1,9-3.5,13h0l-1.6,1.5h0l-1.5,1.5h0l-9,2.6L36.1,59.1h0l-2-1.5h0l-1-1h0a3.6,3.6,0,0,1-.4-.9c-4.5-5.8-5-11.9-1.9-18.5a6.1,6.1,0,0,0,.3-1.3h0l.9-1h0a95.5,95.5,0,0,1,9-5.6C42.7,28.4,45,28.6,47,28.3Z"/><path class="cls-7" d="M52.8,41.9c1.5,4.3.3,8-3.1,10.1a8,8,0,0,1-10.1-1.3,8.2,8.2,0,0,1-.7-10.4c3-4.3,8.9-4.4,12.9-.2l-6.1,3.8a9.1,9.1,0,0,0-.9,1.7,3.6,3.6,0,0,0,1.8-.2Z"/><path class="cls-8" d="M58.3,56.1c2.5-4,4.3-8.2,3.5-13-.3-1.9-1-3.7-1.5-5.6l.6-.5c2.8,6,2.7,11.9-1,17.7C59.5,55.2,58.8,55.6,58.3,56.1Z"/><path class="cls-9" d="M59,35.9l-.3-1h2.1Z"/><path class="cls-10" d="M31.1,35.9a6.1,6.1,0,0,1-.3,1.3c-3.1,6.6-2.6,12.7,1.9,18.5a3.6,3.6,0,0,0,.4.9h-.5C27.3,52.4,26.4,41.1,31.1,35.9Z"/><path class="cls-10" d="M47,28.3c-2,.3-4.3.1-6,1a95.5,95.5,0,0,0-9,5.6c1.5-1.6,2.7-3.4,4.3-4.5A12.4,12.4,0,0,1,47,28.3Z"/><path class="cls-8" d="M46.2,61.7l9-2.6c-2.9,2.9-6.6,3.5-10.5,3.4Z"/><path class="cls-10" d="M46.2,61.7l-1.5.8L36.5,60c-.2,0-.3-.6-.4-.9Z"/><path class="cls-9" d="M55.7,31.8l-6.1-3A6.2,6.2,0,0,1,55.7,31.8Z"/><path class="cls-10" d="M34.1,57.6l2,1.5Z"/><path class="cls-8" d="M55.2,59.1l1.5-1.5Z"/><path class="cls-9" d="M57.8,33.4l-2.1-1.6Z"/><path class="cls-8" d="M56.7,57.6l1.6-1.5Z"/><path class="cls-10" d="M32,34.9l-.9,1Z"/><path class="cls-9" d="M58.8,34.9l-1.1-1.6Z"/><path class="cls-10" d="M33.1,56.6l1,1Z"/></g></g></svg>