<svg xmlns="http://www.w3.org/2000/svg" viewBox="0 0 90 90"><defs><style>.cls-1{fill:#7bb74a;}.cls-2{fill:#5b823d;}.cls-3{fill:#4f71a4;}.cls-4{fill:#04b4e5;}.cls-5{fill:#4a4a4a;}.cls-6{fill:#b25423;}.cls-7{fill:#0687ad;}.cls-8{fill:#eff0f0;}.cls-9{fill:#f7f9fa;}.cls-10{fill:#4f4f4f;}.cls-11{fill:#deedf2;}.cls-12{fill:#f5fafc;}.cls-13{fill:#ebf4f7;}.cls-14{fill:#fbfcfc;}.cls-15{fill:#515151;}</style></defs><g id="Layer_2" data-name="Layer 2"><g id="Layer_1-2" data-name="Layer 1"><path class="cls-1" d="M53.9,89.1C37.9,92,23.8,87.8,12.6,76S-2.7,49,1.9,32.8,17.7,5.5,34.3,1.4C59.6-4.9,84,11,89.2,36.7a40.9,40.9,0,0,1-.1,16.7l-1.9-1.6L74.1,38.7A15.9,15.9,0,0,0,72,37.2h0l-.4-.7c-4.6-6.6-9.2-8.3-16.4-6.1l-.5-1.2c-2.6-6-7.9-9-14.2-7.8s-9.9,5.8-10.2,12.4H29A12.4,12.4,0,0,0,16.6,48.1c.5,4.4,3.2,7.3,6.6,9.7l1,.3h0a7.7,7.7,0,0,0,1.4,2.1L52.3,87.1A15.6,15.6,0,0,1,53.9,89.1Z"/><path class="cls-2" d="M53.9,89.1a15.6,15.6,0,0,0-1.6-2L25.6,60.2a7.7,7.7,0,0,1-1.4-2.1c3.3,1.2,6.7.7,10.1.1a11.9,11.9,0,0,0,7.3,10.7,11.9,11.9,0,0,0,12.9-1.6c4.2-3.2,5.2-7.7,4.6-12.7,4.8.1,8.7-1.6,11.4-5.5s2.6-7.7,1.5-11.9a15.9,15.9,0,0,1,2.1,1.5L87.2,51.8l1.9,1.6a39.3,39.3,0,0,1-7.9,18.5A44.5,44.5,0,0,1,55.4,89Z"/><path class="cls-3" d="M34.3,58.2c-3.4.6-6.8,1.1-10.1-.1h0l-1-.3c-3.4-2.4-6.1-5.3-6.6-9.7A12.4,12.4,0,0,1,29,33.7h1.3L36.6,36l1.2,1.2,1.4,1.4.9,1.3,1.4,6.3-.9,5.9-.2.7ZM32.6,44.5l-2.5-1.3c.2-.3.4-.9.7-.9,1.9-.4,1.2-1.6,1-3.1-1.4.4-3.1.3-3.7,1.2a15.1,15.1,0,0,0-2.2,4.8c-.1.3.1.7.2,1a9.3,9.3,0,0,1,1,2.6,25.4,25.4,0,0,1,.1,3.9H30V47.4Z"/><path class="cls-4" d="M72,37.2c1.1,4.2,1.1,8.2-1.5,11.9s-6.6,5.6-11.4,5.5-9.5-3.7-11-9.4l6.1-5.5c-.5,2.5.8,4.2,2.4,6l-3,1.1a7.1,7.1,0,0,0,7.9.1c3.7-2,3.6-5.9,4.9-9.2.1-.2-.1-.6-.2-.8s-4.7-1-5.5,0a29.9,29.9,0,0,0-1.4,3l-4.1-2.4V30.3c7.2-2.2,11.8-.5,16.4,6.1l.4.7Z"/><path class="cls-5" d="M54.2,39.7l-6.1,5.5-6.6,1c-.5-2.1-1-4.2-1.4-6.3h6.2c1.8,0,2.8-.9,2.8-2.9s0-4.5,0-6.8a2.4,2.4,0,0,0-2.6-2.7c-2.3,0-4.6.1-6.9,0s-2.9,1.1-2.9,3.1,0,3.7-.1,5.5l-6.3-2.3c.3-6.6,4.3-11.4,10.2-12.4s11.6,1.8,14.2,7.8l.5,1.2v7.2A21.4,21.4,0,0,0,54.2,39.7Z"/><path class="cls-6" d="M23.2,57.8l1,.3Z"/><path class="cls-6" d="M72,37.1l-.4-.7Z"/><path class="cls-7" d="M41.5,46.2l6.6-1c1.5,5.7,5.5,8.5,11,9.4.6,5-.4,9.5-4.6,12.7a11.9,11.9,0,0,1-12.9,1.6,11.9,11.9,0,0,1-7.3-10.7l6.1-5.4a9.6,9.6,0,0,0,1.8,1.7c.2.1,1.1-.7,1.3-1.2s-.2-1.2-.5-1.3a9.9,9.9,0,0,0-2.4.1ZM47.7,63c0-1.4-.1-2.7,0-4s.7-.9,1.1-1.3,1,.7,1.1,1.2a27.5,27.5,0,0,1,.2,4.1H53c0-1.8.3-3.5-.1-5a4.3,4.3,0,0,0-2.4-2.7,16.1,16.1,0,0,0-4.9,0c-.3,0-.9.7-.9,1-.1,2.2,0,4.4,0,6.7ZM41,55.5v7.7l2.2-.2V55.5Z"/><path class="cls-8" d="M36.6,36c.1-1.8.1-3.7.1-5.5s.8-3.1,2.9-3.1,4.6,0,6.9,0a2.4,2.4,0,0,1,2.6,2.7c0,2.3-.1,4.5,0,6.8s-1,2.9-2.8,2.9H40.1l-.9-1.3h4.5c4.3,0,4.3,0,4.2-4.4v-.5c.2-1.5-.7-1.5-1.8-1.2,0,2.7-1.1,4.2-3,4.3s-3.2-1.3-3.7-5.1c-.7.9-1.3,1.4-1.4,1.9s-.1,2.4-.2,3.6Zm5.9-4.9c-.6.8-1.8,1.7-1.7,2.5s1.4,1.5,2.1,2.3,1.9-1.3,2.1-2.2S44.5,31.5,42.5,31.1Zm3.1-2.2v2h1.9v-2Z"/><path class="cls-9" d="M32.6,44.5,30,47.4v5.3H27.2a25.4,25.4,0,0,0-.1-3.9,9.3,9.3,0,0,0-1-2.6c-.1-.3-.3-.7-.2-1a15.1,15.1,0,0,1,2.2-4.8c.6-.9,2.3-.8,3.7-1.2.2,1.5.9,2.7-1,3.1-.3,0-.5.6-.7.9Z"/><path class="cls-10" d="M37.8,37.2c.1-1.2,0-2.4.2-3.6s.7-1,1.4-1.9c.5,3.8,1.8,5.3,3.7,5.1s3-1.6,3-4.3c1.1-.3,2-.3,1.8,1.2v.5c.1,4.4.1,4.4-4.2,4.4H39.2Z"/><path class="cls-11" d="M40.6,52.1A9.9,9.9,0,0,1,43,52c.3.1.7,1,.5,1.3s-1.1,1.3-1.3,1.2a9.6,9.6,0,0,1-1.8-1.7C40.5,52.6,40.5,52.3,40.6,52.1Z"/><path class="cls-12" d="M54.2,39.7a21.4,21.4,0,0,1,1-2.2l4.1,2.4a29.9,29.9,0,0,1,1.4-3c.8-1,4.6-.9,5.5,0s.3.6.2.8c-1.3,3.3-1.2,7.2-4.9,9.2a7.1,7.1,0,0,1-7.9-.1l3-1.1C55,43.9,53.7,42.2,54.2,39.7Z"/><path class="cls-13" d="M47.7,63h-3c0-2.3-.1-4.5,0-6.7,0-.3.6-1,.9-1a16.1,16.1,0,0,1,4.9,0A4.3,4.3,0,0,1,52.9,58c.4,1.5.1,3.2.1,5H50.1a27.5,27.5,0,0,0-.2-4.1c-.1-.5-.8-.8-1.1-1.2s-1,.8-1.1,1.3S47.7,61.6,47.7,63Z"/><path class="cls-14" d="M41,55.5h2.2V63l-2.2.2Z"/><path class="cls-15" d="M42.5,31.1c2,.4,2.9,1.3,2.5,2.6s-1.3,1.5-2.1,2.2-2-1.5-2.1-2.3S41.9,31.9,42.5,31.1Z"/><path class="cls-10" d="M45.6,28.9h1.9v2H45.6Z"/></g></g></svg>