<svg xmlns="http://www.w3.org/2000/svg" viewBox="0 0 165.8 294.2"><defs><style>.cls-1{fill:#669149;}.cls-2{fill:#5b8044;}.cls-3{fill:#719f54;}.cls-4{fill:#3a5028;}.cls-5{fill:#83aa6b;}.cls-6{fill:#92c775;}.cls-7{fill:#6ea44a;}.cls-8{fill:#7eb258;}.cls-9{fill:#659048;}.cls-10{fill:#3b5129;}.cls-11{fill:#5b8144;}.cls-12{fill:#83ab6b;}.cls-13{fill:#4e6d39;}.cls-14{fill:#5b8145;}.cls-15{fill:#669249;}.cls-16{fill:#5c8145;}.cls-17{fill:#72a054;}.cls-18{fill:#66924a;}.cls-19{fill:#74a156;}.cls-20{fill:#82aa6a;}.cls-21{fill:#78b554;}.cls-22{fill:#6da349;}</style></defs><g id="Layer_2" data-name="Layer 2"><g id="Layer_1-2" data-name="Layer 1"><path class="cls-1" d="M62.4,294.1H38.1c.6-1.7,1.2-3.5,1.9-5.3H50.3c2.4,0,4-1.1,4.3-3.4a74.7,74.7,0,0,0,.9-9.4c.4-10,.7-20,1.1-30l9.9,1.6c5.4,1,10.7,2,15.5-1.7a14.5,14.5,0,0,1,2.2-.9c.2.2.4.4.4.6,2.7,8.7,5.3,17.4,7.9,26.1,1,3.4,2,6.8,2.9,10.3L89.6,285l-6.9.7-15,1.7-3.4-2.1C62.1,288.1,62.3,291.1,62.4,294.1Z"/><path class="cls-2" d="M165.8,190.2c0,9.2.1,18.5,0,27.7v52.5c-1-1.8-2-3.5-2.8-5.3-1.6-3.4-3.8-5.7-7.8-4.9-1.2-1.3-3-2.4-3.3-3.9-2.9-14.6-5.5-29.2-8.4-43.8-.8-4.2.1-7.3,3.3-9.8s5.3-4,8-6l9.5-6.5Z"/><path class="cls-3" d="M165.8,190.2h-1.5c-3.2.3-6.4.6-9.6.7a2.8,2.8,0,0,1-1.9-.8c-2.2-6.6-4.3-13.2-6.4-19.8l15.7-9.8c1.2,1.4,2.4,2.9,3.7,4.3Z"/><path class="cls-4" d="M126.9,294.1h-7.8l-3.9-4.8c1.2-3.7,2.3-7.4,3.5-11.2l2.4-10.6,5-3.9c.7,2.8,1.7,5.2,1.8,7.5.2,5,0,9.9,0,14.8C127.6,288.7,127.2,291.4,126.9,294.1Z"/><path class="cls-5" d="M0,294.1l16.6-15.7a38.3,38.3,0,0,0,2.9-2.8l1.2,5.9-1.1,2.7,1.5,2.2,2.8,5.4v2.3Z"/><path class="cls-6" d="M115.2,289.3l3.9,4.8H105.6c-1.5-2.2-3-4.5-4.7-6.6s-2.4-2-3.6-3l2.4-2.1,5.9-4.7Z"/><path class="cls-3" d="M155.2,260.2c4-.8,6.2,1.5,7.8,4.9.8,1.8,1.8,3.5,2.8,5.3v20.4a11.8,11.8,0,0,1-1.7-2.2c-1.1-1.7-2.1-3.4-3.1-5.1s-1.5-5.8-2.4-8.7-1.3-3.9-1.9-5.9Z"/><path class="cls-7" d="M161,283.5c1,1.7,2,3.4,3.1,5.1a11.8,11.8,0,0,0,1.7,2.2,2.9,2.9,0,0,1-3,3.3c-7.1.2-14.2,0-21.2,0l-.6-2.8Z"/><path class="cls-8" d="M97.3,284.5c1.2,1,2.7,1.8,3.6,3s3.2,4.4,4.7,6.6H79.4l1.2-.8c3.5-2.2,6.8-4.6,9-8.3l5.8-2.9Z"/><path class="cls-9" d="M24,294.1a17.7,17.7,0,0,0-.1-2.3c.4-1.4,1.2-2.8,1-4s-2-1-3.1-1.4h-.7l-1.5-2.2c.2-.7.7-1.7,1.1-2.7a29.8,29.8,0,0,0,3-1.8c4.3-3.1,5-2.7,6.2,2.5.6,2.6,2.2,5,3.3,7.6-.7,1.4-1.3,2.9-1.9,4.3Z"/><path class="cls-3" d="M89.6,285c-2.2,3.7-5.5,6.1-9,8.3l-1.2.8a54.2,54.2,0,0,1-5.7,0c-.8,0-1.5-.7-2.2-1a24,24,0,0,0-2.8-.3c-.3-1.8-.6-3.6-1-5.4l15-1.7Z"/><path class="cls-3" d="M31.3,294.1c.6-1.4,1.2-2.9,1.9-4.3s1.8-3.6,2.8-5.4,2.9-2.6,5.1-2.3c-.4,2.4-.7,4.6-1.1,6.7s-1.3,3.6-1.9,5.3Z"/><path class="cls-7" d="M126.9,294.1c.3-2.7.7-5.4,1-8.2l9.3,3.9v4.3Z"/><path class="cls-10" d="M67.7,287.4c.4,1.8.7,3.6,1,5.4s-.8,1.3-1.3,1.3a41.7,41.7,0,0,1-5,0c-.1-3-.3-6,1.9-8.8Z"/><path class="cls-11" d="M137.2,294.1v-4.3l3.8,1.5.6,2.8Z"/><path class="cls-12" d="M72.9,95.9c1.5,6,3.1,12,4.5,18.1s2.4,10.5,3.7,16c.3-.3.6-.4.7-.6,4.1-8.5,9.1-16.6,12.1-25.4,4-11.7,6.8-23.9,9.7-35.9,3.4-14.1,6.5-28.3,9.8-42.5a40,40,0,0,1,1.5-4c.6,4.3,1.7,8.7,1.7,13s-.8,10.6-1.3,15.8-.6,9.2-1,13.7c-.6,6.9-1.2,13.8-1.9,20.7-.4,3.4-.9,6.8-1.4,10.2s-1.1,4.2-1.6,6.3c-1.3,5.3-2.5,10.7-3.8,16-.4.3-.9.5-1.1.8-3.1,4.3-4.5,10.6,1.1,16.7V146h-1.9c-1-.7-1.8-1.5-2.8-2.1-2.8-1.6-4.7-.8-6.1,2.2H93c-.4-1.4-.3-3.2-1.2-4-2.8-2.7-5.9-5.1-8.9-7.6l-.8.6,5.4,20.1c.4,1.1.7,2.3,1,3.4,2.5,5.2,4.9,10.5,7.4,15.7,1.2,2.8,2.5,5.5,3.8,8.4-1.1.8-2.3,1.4-3.2,2.2-2.6,2.3-6.4,3.5-6.5,7.9H88.6c-2.3-2.8-4-2.8-6.8.1h-2a14.7,14.7,0,0,0,0-2.1c0-3.4.1-6.6,2.2-9.7s.8-8.4-2.1-10.5c-1.5-5.7-2.9-11.4-4.4-17.1-.4-4.1-.7-8.1-1-12.2-.7-7.4-1.3-14.9-1.9-22.3-.2-2.3-.5-4.7-.7-7-.4-4.2-1.1-8.4,0-12.6C72.2,98,72.6,97,72.9,95.9Z"/><path class="cls-1" d="M111,95c.5-3.4,1-6.8,1.4-10.2.7-6.9,1.3-13.8,1.9-20.7.4-4.5.7-9.1,1-13.7s1.3-10.5,1.3-15.8-1.1-8.7-1.7-13L117,10.8a21.1,21.1,0,0,1,1.6,3.4c1.2,3.8,2.8,7.6,3.4,11.6,1.2,8.1,1.7,16.4,2.6,24.6,1.1,10.1,2.3,20.2,3.5,30.3.9,7.7,1.8,15.4,2.8,23.1.5,4.4,1.2,8.8,1.7,13.2.8,5.9,1.5,11.9,2.2,17.9s-1.1,13.2-1.7,19.9l-17.8-1.5-2.4-7.3h-7.3V134.8l2-2.4a19.4,19.4,0,0,0,1.3-3c.6-3.7,1.3-7.3,1.6-11s.7-9.9.9-14.9C111.5,100.7,111.1,97.8,111,95Z"/><path class="cls-13" d="M40,288.8c.4-2.1.7-4.3,1.1-6.7-2.2-.3-4,.2-5.1,2.3s-1.9,3.6-2.8,5.4c-1.1-2.6-2.7-5-3.3-7.6-1.2-5.2-1.9-5.6-6.2-2.5a29.8,29.8,0,0,1-3,1.8l-1.2-5.9c2-5.1,4.9-9.9,6.6-15.1l-.9-.4-6,6.5-6.9-4.9c1.1-1.7,2.3-3.3,3.4-4.9l.5-.9h0a9.4,9.4,0,0,0,2.3-1.6c1.8-2.1,3.7-4.1,5.3-6.3,3.4-4.4,5.8-9.3,5.9-15l2.7-5.2h8.5c1.4,0,2.1-.4,2.5-1.7,1.5-5,3.2-9.9,4.8-14.9L52.1,198c.4-1,.7-2,1-2.9L57,183.9l1.5,16c-.5,3.5-.9,6.9-1.4,10.3-1.5,5-2.7,10.1-4.6,14.9s-.6,8,3.3,10.7H56l.6,10.2c-.4,10-.7,20-1.1,30a74.7,74.7,0,0,1-.9,9.4c-.3,2.3-1.9,3.4-4.3,3.4Z"/><path class="cls-14" d="M134.8,134.9c-.7-6-1.4-12-2.2-17.9-.5-4.4-1.2-8.8-1.7-13.2-1-7.7-1.9-15.4-2.8-23.1-1.2-10.1-2.4-20.2-3.5-30.3-.9-8.2-1.4-16.5-2.6-24.6-.6-4-2.2-7.8-3.4-11.6a21.1,21.1,0,0,0-1.6-3.4c.5-3,.9-6.1,1.4-9.1a5,5,0,0,1,1-1.7c.4.6,1.1,1.1,1.3,1.7,4.2,16.4,8.2,32.9,12.6,49.3,3.6,13.6,7.7,27.1,11.8,40.7,1,3.2,2.9,6.2,4.6,9.2,3.8,6.5,7.7,12.9,11.6,19.3-4,2.8-4,2.8-2.1,6.8l4,7.7-10.5,4.5c.3,1.7.7,3.3,1,4.8l-.6.4-12,8.4c-1.1-3.4-2.2-6.8-3.4-10.2S135.8,137.5,134.8,134.9Z"/><path class="cls-15" d="M58.5,199.9l-1.5-16c.7-5,1.3-10,2-15s1.3-9.4,1.9-14.1,1-7.6,1.4-11.4c.6-5.3,1.1-10.7,1.7-16,.8-7.5,2.1-15,2.6-22.6A50,50,0,0,1,70,89.5c.2-.5.8-.9,1.1-1.3l1.8,7.7c-.3,1.1-.7,2.1-1,3.2-1.1,4.2-.4,8.4,0,12.6.2,2.3.5,4.7.7,7,.6,7.4,1.2,14.9,1.9,22.3.3,4.1.6,8.1,1,12.2-.2,19.5.4,25.2,2.8,28.2.5-3.7,1.1-7.4,1.6-11.1,2.9,2.1,4.3,7.2,2.1,10.5s-2.2,6.3-2.2,9.7a14.7,14.7,0,0,1,0,2.1,16.1,16.1,0,0,0-3.1.1,7.7,7.7,0,0,0-2.3,1l-1.9,4.8Zm12.5-71-2.2.3c-.5,2.2.4,2.6,2.2,1.9Z"/><path class="cls-16" d="M71.1,88.2c-.3.4-.9.8-1.1,1.3a50,50,0,0,0-3.4,15.3c-.5,7.6-1.8,15.1-2.6,22.6-.6,5.3-1.1,10.7-1.7,16-.4,3.8-.9,7.6-1.4,11.4s-1.3,9.4-1.9,14.1-1.3,10-2,15l-3.9,11.2c-.3.9-.6,1.9-1,2.9l-9.7-6.8c.2-1.2.4-2.4.7-3.7L35,184c1.4-3,2.9-5.9,4.4-9.1L36.8,173c2.8-9,10.5-15.6,13-25L65.2,91.5c1.1-3.8,2-7.7,2.9-11.5l.9-2.2c1.5,3,1.5,5.6,1.7,8.1l.3,1.3Z"/><path class="cls-17" d="M48.2,211.1c-1.6,5-3.3,9.9-4.8,14.9-.4,1.3-1.1,1.7-2.5,1.7H32.4l-6.9-6.3-2.2-1.9,12.8-15.8C40.1,206.2,44.1,208.7,48.2,211.1Z"/><path class="cls-18" d="M141.1,152.8l12-8.4.6-.4,8.4,16.5-15.7,9.8C144.6,164.5,142.9,158.6,141.1,152.8Z"/><path class="cls-18" d="M48.2,211.1c-4.1-2.4-8.1-4.9-12.1-7.4l6.3-12.5,9.7,6.8Z"/><path class="cls-19" d="M12.3,261.7l6.9,4.9L14.1,274h-.7c-7-2.9-7.5-4.7-2.7-10.7Z"/><path class="cls-19" d="M29.7,232.9c-.1,5.7-2.5,10.6-5.9,15-1.6,2.2-3.5,4.2-5.3,6.3a9.4,9.4,0,0,1-2.3,1.6c3.4-5.8,6.8-11.6,10.1-17.4C27.4,236.5,28.6,234.7,29.7,232.9Z"/><path class="cls-19" d="M16.2,255.9l-.5.9Z"/><path class="cls-15" d="M71,87.2l-.3-1.3Z"/><path class="cls-20" d="M97.3,284.5l-1.9-2.4c-.9-3.5-1.9-6.9-2.9-10.3-2.6-8.7-5.2-17.4-7.9-26.1,0-.2-.2-.4-.4-.6-.3-2.1-.7-4.2-1-6.3H96.1l-1.7-4.4-4.8-13.1,4.8,4.4a12.1,12.1,0,0,0,.5,1.8c2.8,7,5.6,14,8.5,20.9a18.2,18.2,0,0,0,2.7,3.5l4.8,14.1c0,.4-.1.9.1,1.2,1.2,1.9.3,3.1-.9,4.6a26.5,26.5,0,0,0-2.6,3.9l-1.9,2-5.9,4.7Z"/><path class="cls-11" d="M83.2,238.8c.3,2.1.7,4.2,1,6.3a14.5,14.5,0,0,0-2.2.9c-4.8,3.7-10.1,2.7-15.5,1.7l-9.9-1.6L56,235.9l1.4.4c4.8.7,9.6,3.3,14.3-.4l6.7,2.5Z"/><path class="cls-4" d="M141.1,152.8c1.8,5.8,3.5,11.7,5.3,17.5s4.2,13.2,6.4,19.8a2.8,2.8,0,0,0,1.9.8c3.2-.1,6.4-.4,9.6-.7l-9.5,6.5c-2.7,2-5.4,3.9-8,6s-4.1,5.6-3.3,9.8c2.9,14.6,5.5,29.2,8.4,43.8.3,1.5,2.1,2.6,3.3,3.9l1.5,8.7c-4.2,0-8.3.1-12.4,0s-6-1.8-6.5-4.9a39.3,39.3,0,0,1-.6-4.8c-.3-9.2-.6-18.3-1-27.5l-.6-17.7c.4-4.3.7-8.7,1.1-13.1,1.1-1.1,2.4-2.2,3.4-3.4s2.7-2.3,2-4.5c-2.5-8.4-4.9-16.8-7.4-25.1l-1.6-13.1c.6-6.7,1.1-13.3,1.7-19.9,1,2.6,2,5.1,2.9,7.7S140,149.4,141.1,152.8Z"/><path class="cls-1" d="M135.6,214l.6,17.7c.4,9.2.7,18.3,1,27.5a39.3,39.3,0,0,0,.6,4.8c.5,3.1,2.9,4.9,6.5,4.9s8.2,0,12.4,0c.6,2,1.3,3.9,1.9,5.9s1.6,5.8,2.4,8.7l-20,7.8-3.8-1.5-9.3-3.9c0-4.9.2-9.8,0-14.8-.1-2.3-1.1-4.7-1.8-7.5l-5,3.9L110.9,266l-4.8-14.1h3.6c-.8-1.6-1.3-2.7-1.9-3.7L95.9,225.7c1-1.2,1.9-2.5,3-3.7,2.7-2.8,2.8-2.9,1.3-6.5l1.8.4c1.3.3,1.5-.3,1.2-1.4h0c1.9.8,3.9,2.2,5.9,2.3a75.9,75.9,0,0,0,12.6-.5C126.4,215.8,131,214.8,135.6,214Z"/><path class="cls-3" d="M110.9,266l10.2,1.5-2.4,10.6-11.2-2.4a26.5,26.5,0,0,1,2.6-3.9c1.2-1.5,2.1-2.7.9-4.6C110.8,266.9,110.9,266.4,110.9,266Z"/><path class="cls-8" d="M107.5,275.7l11.2,2.4c-1.2,3.8-2.3,7.5-3.5,11.2l-9.6-11.6Z"/><path class="cls-17" d="M21.1,286.4h.7c1.1.4,3,.8,3.1,1.4s-.6,2.6-1,4Z"/><path class="cls-21" d="M105.6,146h7.3c-.7,7.7-1.3,15.4-2,23.1-.5,5.3-1.1,10.6-1.6,15.9l-1.8,19.3-5.8.5H97.3c-2.4-4-4.8-8.1-7.3-12.1.1-4.4,3.9-5.6,6.5-7.9.9-.8,2.1-1.4,3.2-2.2-1.3-2.9-2.6-5.6-3.8-8.4.1-.3.4-.5.4-.8,2.5-9.1,4.9-18.3,7.4-27.4Z"/><path class="cls-21" d="M83.2,238.8l-4.8-.4c-.3-4.7-.7-9.3-1.1-14-.9-10.2-1.9-20.5-2.9-30.7a7.7,7.7,0,0,1,2.3-1,16.1,16.1,0,0,1,3.1-.1h2a26,26,0,0,0,.3,2.6c1.5,5.4,2.9,10.8,4.5,16.2.9,3.3,2,6.5,3,9.8l4.8,13.1,1.7,4.4Z"/><path class="cls-11" d="M90,192.7c2.5,4,4.9,8.1,7.3,12.1l2.6,4.9.7-.2c.4-1.5.7-3.1,1.1-4.7l5.8-.5,2.3-.6,6.4-2.3c.9.4,1.7.9,2.6,1.2s3.6,1.3,5.2,1c4.3-.6,8.5-1.8,12.7-2.7-.4,4.4-.7,8.8-1.1,13.1-4.6.8-9.2,1.8-13.9,2.3a75.9,75.9,0,0,1-12.6.5c-2-.1-4-1.5-5.9-2.3h0c.3,1.1.1,1.7-1.2,1.4l-1.8-.4c-1.7-3-3.4-6-4.9-9-2.3-4.6-4.5-9.3-6.7-13.9Z"/><path class="cls-6" d="M88.6,192.6c2.2,4.6,4.4,9.3,6.7,13.9,1.5,3,3.2,6,4.9,9s1.4,3.7-1.3,6.5c-1.1,1.2-2,2.5-3,3.7H94.4l-4.8-4.4c-1-3.3-2.1-6.5-3-9.8-1.6-5.4-3-10.8-4.5-16.2a26,26,0,0,1-.3-2.6C84.6,189.8,86.3,189.8,88.6,192.6Z"/><path class="cls-6" d="M103.7,146c-2.5,9.1-4.9,18.3-7.4,27.4,0,.3-.3.5-.4.8-2.5-5.2-4.9-10.5-7.4-15.7l6.3-12.4c1.4-3,3.3-3.8,6.1-2.2C101.9,144.5,102.7,145.3,103.7,146Z"/><path class="cls-14" d="M111,95c.1,2.8.5,5.7.4,8.5-.2,5-.5,9.9-.9,14.9s-1,7.3-1.6,11a19.4,19.4,0,0,1-1.3,3c-.2-1.3-.4-2.5-.5-3.8l-1.5-11.3c1.3-5.3,2.5-10.7,3.8-16C109.9,99.2,110.5,97.1,111,95Z"/><path class="cls-16" d="M79.9,170.3c-.5,3.7-1.1,7.4-1.6,11.1-2.4-3-3-8.7-2.8-28.2C77,158.9,78.4,164.6,79.9,170.3Z"/><path class="cls-3" d="M105.6,117.3l1.5,11.3c.1,1.3.3,2.5.5,3.8l-2,2.4c-5.6-6.1-4.2-12.4-1.1-16.7C104.7,117.8,105.2,117.6,105.6,117.3Z"/><path class="cls-16" d="M87.5,155.1,93,146h1.8l-6.3,12.4C88.2,157.4,87.9,156.2,87.5,155.1Z"/><path class="cls-10" d="M116.2,201.4l-6.4,2.3-2.3.6,1.8-19.3c.5-5.3,1.1-10.6,1.6-15.9.7-7.7,1.3-15.4,2-23.1l2.4,7.3-.3,14.6.3,4.1Z"/><path class="cls-22" d="M115,167.9l.3-14.6,17.8,1.5c.6,4.3,1.1,8.7,1.6,13.1Z"/><path class="cls-21" d="M71.7,235.9c-4.7,3.7-9.5,1.1-14.3.4l-1.4-.4h-.2c-3.9-2.7-5.2-5.9-3.3-10.7s3.1-9.9,4.6-14.9H72.5c0,.8.1,1.6.1,2.5Z"/><path class="cls-7" d="M72.5,210.1H57.1c.5-3.4.9-6.8,1.4-10.3l14-1.4Z"/><path class="cls-10" d="M72.5,210.1V198.5l1.9-4.8c1,10.2,2,20.5,2.9,30.7.4,4.7.8,9.3,1.1,14l-6.7-2.5.9-23.3C72.6,211.7,72.5,210.9,72.5,210.1Z"/><path class="cls-15" d="M71,128.9v2.2c-1.8.7-2.7.3-2.2-1.9Z"/><path class="cls-16" d="M94.4,225.7h1.5l11.9,22.5c.6,1,1.1,2.1,1.9,3.7h-3.6a18.2,18.2,0,0,1-2.7-3.5c-2.9-6.9-5.7-13.9-8.5-20.9A12.1,12.1,0,0,1,94.4,225.7Z"/><path class="cls-21" d="M115,167.9h19.7c2.5,8.3,4.9,16.7,7.4,25.1.7,2.2-.8,3.3-2,4.5s-2.3,2.3-3.4,3.4c-4.2.9-8.4,2.1-12.7,2.7-1.6.3-3.5-.6-5.2-1s-1.7-.8-2.6-1.2l-.9-29.4Z"/><path class="cls-20" d="M101.7,204.8c-.4,1.6-.7,3.2-1.1,4.7l-.7.2-2.6-4.9Z"/><path class="cls-1" d="M103.2,214.5h0Z"/></g></g></svg>