<svg xmlns="http://www.w3.org/2000/svg" viewBox="0 0 90 90"><defs><style>.cls-1{fill:#7bb74a;}.cls-2{fill:#5b823d;}.cls-3{fill:#6b3c55;}.cls-4{fill:#12313c;}.cls-5{fill:#804765;}.cls-6{fill:#fdfdfd;}.cls-7{fill:#b25317;}.cls-8{fill:#e2e3e4;}.cls-9{fill:#111224;}.cls-10{fill:#f2701f;}.cls-11{fill:#4c4b55;}.cls-12{fill:#1e9cd7;}.cls-13{fill:#6a6a6a;}</style></defs><g id="Layer_2" data-name="Layer 2"><g id="Layer_1-2" data-name="Layer 1"><path class="cls-1" d="M39.8,89.5c-10.6-.9-19.5-5.5-26.9-13C-3.6,59.8-4.4,32.9,11,15.5S53.4-5.2,72.3,9.3c2.9,2.2,5.2,5.2,7.8,7.8L75,20.2l-1.1.6H13.1a10.5,10.5,0,0,0-.2,1.3V60.9a6.4,6.4,0,0,0,.6,1.8l1.8,2.1L38.1,87.1A20.7,20.7,0,0,1,39.8,89.5Z"/><path class="cls-2" d="M39.8,89.5a20.7,20.7,0,0,0-1.7-2.4L15.3,64.8l-1.8-2.1H36.8a7,7,0,0,1,1.9.6c-.1,1-.1,2-.1,3l-2.2.2v3.7H52.2V66.4L50,66.2v-3a13.6,13.6,0,0,1,2.9-.6H75.5V26.4L82,19.6C95.1,37.1,91.8,64,74.5,78.9a44.2,44.2,0,0,1-32.3,11A10,10,0,0,1,39.8,89.5Z"/><path class="cls-3" d="M82,19.6l-6.5,6.8L72.9,29l-.3.4-1.5,1-2.6-3.1,6.4-5.7c.7-.5,1.8-.9,0-1.4l5.2-3.1,4.1-1.4h0C83.4,17,82.7,18.3,82,19.6Z"/><path class="cls-3" d="M84.2,15.7v-.3h.2l-.2.3Z"/><path class="cls-4" d="M72.9,29l2.6-2.6V62.6H52.8a13.6,13.6,0,0,0-2.9.6c-1.5-1.5-9.8-1.5-11.2,0a7,7,0,0,0-1.9-.6H13.5a6.4,6.4,0,0,1-.6-1.8V22.1a10.5,10.5,0,0,1,.2-1.3H73.9L69,23.4H56.9l-1.5-.2H17.1l-1.4.2V57.9l1.9.2a8.6,8.6,0,0,0,2.3.5H70.2a8.6,8.6,0,0,0,2.3-.5c.2-.2.4-.3.5-.5a4.4,4.4,0,0,0,.5-1.5c.1-8.6.1-17.1,0-25.7a5.8,5.8,0,0,0-.5-1.6Z"/><path class="cls-5" d="M69,23.4l4.9-2.6,1.1-.6c1.7.5.6.9-.1,1.4l-6.4,5.7L67,26.1v-.7l1.6-1.2Z"/><path class="cls-4" d="M50,66.2l2.2.2v3.7H36.4V66.4l2.2-.2Z"/><path d="M50,66.2H38.6c0-1,0-2,.1-3s9.7-1.5,11.2,0S50,65.2,50,66.2Z"/><path class="cls-6" d="M68.5,24.2l-1.6,1.2-4.5,3.4-3.6,1.9c-4.8.3-5.7,1-7.2,5.7-.7,2.3-1.5,4.7-2.3,7,7.2,1,12.7-1.6,15.4-7.4l2-1.7,4.4-3.9,1.5-1h.2v2h-.1c0,.1.1.2.1.4L73,57.6c-.1.2-.3.3-.5.5H24.1c.5-.5,1.1-.9,1.6-1.5,5-5.2,9.9-10.4,15-15.6L55.4,26a19.4,19.4,0,0,0,1.5-2.4H68.5Z"/><path class="cls-7" d="M71.1,30.4l-4.4,3.9-3.4-4.5L67,26.1l1.5,1.2Z"/><path class="cls-8" d="M72.8,29.4h-.2l.3-.4v-.2C72.9,29,72.9,29.2,72.8,29.4Z"/><path class="cls-8" d="M56.9,23.6A19.4,19.4,0,0,1,55.4,26L40.7,40.8c-5.1,5.2-10,10.4-15,15.6-.5.6-1.1,1-1.6,1.5l-6.5.2-1.9-.2V23.6l1.4-.2H55.4Z"/><path class="cls-9" d="M17.6,58.1l6.5-.2H72.5a8.6,8.6,0,0,1-2.3.5H19.9A8.6,8.6,0,0,1,17.6,58.1Z"/><path class="cls-9" d="M72.8,29.4c.1-.2.1-.4.2-.6a5.8,5.8,0,0,1,.5,1.6c.1,8.6.1,17.1,0,25.7a4.4,4.4,0,0,1-.5,1.5c0-8.6-.1-17.1-.2-25.7V29.4Z"/><path class="cls-8" d="M68.5,24.2v-.7H69A5.6,5.6,0,0,0,68.5,24.2Z"/><path class="cls-10" d="M67,26.1l-3.7,3.7-.9-1,4.5-3.4C66.9,25.6,67,25.9,67,26.1Z"/><path class="cls-11" d="M64.7,36c-2.7,5.8-8.2,8.4-15.4,7.4.8-2.3,1.6-4.7,2.3-7,1.5-4.7,2.4-5.4,7.2-5.7a14.3,14.3,0,0,1,2.7,1.5C62.6,33.4,63.6,34.7,64.7,36Zm-5.3-4.3c-3.6-.4-4.9.4-5.2,3.1Z"/><path class="cls-12" d="M64.7,36c-1.1-1.3-2.1-2.6-3.2-3.8a14.3,14.3,0,0,0-2.7-1.5l3.6-1.9.9,1,3.4,4.5Z"/><path class="cls-8" d="M72.8,31.4v.5c0-.2-.1-.3-.1-.4Z"/><path class="cls-13" d="M59.4,31.7l-5.2,3.1C54.5,32.1,55.8,31.3,59.4,31.7Z"/></g></g></svg>