<svg xmlns="http://www.w3.org/2000/svg" viewBox="0 0 90 90"><defs><style>.cls-1{fill:#f2701f;}.cls-2{fill:#b25317;}.cls-3{fill:#163846;}.cls-4{fill:#fdfdfd;}.cls-5{fill:#e6e6e6;}.cls-6{fill:#12313c;}.cls-7{fill:#111224;}</style></defs><g id="Layer_2" data-name="Layer 2"><g id="Layer_1-2" data-name="Layer 1"><path class="cls-1" d="M39.2,89.5A42,42,0,0,1,12,75.5,45,45,0,1,1,88.4,33.3a4.9,4.9,0,0,1,.1,1.2c-1.6-1.5-3.3-2.9-4.9-4.5l-7-6.7c-.9-.3-1.7-1-2.5-1H15.9l-2.2.2a6.5,6.5,0,0,0-.2,1.1V62.2c0,.6.6,1.2.9,1.9L31.1,81Z"/><path class="cls-2" d="M76.6,23.3l7,6.7c1.6,1.6,3.3,3,4.9,4.5,2.7,9.6,1.7,18.9-2.1,27.9A44.9,44.9,0,0,1,42.7,90l-3.5-.5L31.1,81,14.4,64.1H37.6c.6,0,1.1.8,1.7,1.3v2c-1.9-.2-2.8.4-2.7,2.5s1.4,2,2.8,2H53V68.1l-2.3-.8v-3c1-.1,2-.4,3-.4,6.6-.1,13.2,0,19.9,0l2.8-.2V59.9C76.5,47.7,76.5,35.5,76.6,23.3Z"/><path class="cls-3" d="M39.3,65.4c-.6-.5-1.1-1.3-1.7-1.3H14.4c-.3-.7-.9-1.3-.9-1.9V23.6a6.5,6.5,0,0,1,.2-1.1l2.2-.2H74.1c.8,0,1.6.7,2.5,1-.1,12.2-.1,24.4-.2,36.6v3.8l-2.8.2c-6.7,0-13.3-.1-19.9,0-1,0-2,.3-3,.4-3.3-.1-6.7-.4-10.1-.4C40.2,63.9,39.7,64.9,39.3,65.4ZM16.4,59.3c1.4,1.3,6.4,1.4,8.1.2h1a4.9,4.9,0,0,0,1.9.7h44a4.8,4.8,0,0,0,2.1-.9V25H16.4V59.3Z"/><path class="cls-3" d="M50.7,67.3l2.3.8v3.7H39.4c-1.4,0-2.7.1-2.8-2s.8-2.7,2.7-2.5Z"/><path d="M50.7,67.3H39.3v-2c.4-.5.9-1.5,1.3-1.5,3.4,0,6.8.3,10.1.4Z"/><path class="cls-4" d="M25.5,59.5h-1l-8.1-.2v-.6h7.3a3.7,3.7,0,0,0,2.5-.9L42,41.6a6.8,6.8,0,0,1,2.1-1l-3.3,8.6a7.2,7.2,0,0,0,.4,1.9c.5-.3,1.3-.5,1.5-1l6-15.6,4.9-4.6c1.5-1.6,2.8-3.3,4.2-4.9H73.5V59.3h-48ZM62.4,42.7c-2,1.2-3.8,2.2-5.4,3.3s-.6,1.1-.9,1.7,1.5.3,2,0L64.3,44c1.7-1,1.4-1.8-.1-2.7s-4-2.5-6-3.6-1.4,0-2.1.1.5,1.3,1,1.7S60.4,41.5,62.4,42.7Z"/><path class="cls-5" d="M57.8,25c-1.4,1.6-2.7,3.3-4.2,4.9l-4.9,4.6c-1-.9-1.7-.7-2.2.6l-2.4,5.5a6.8,6.8,0,0,0-2.1,1L26.2,57.8a3.7,3.7,0,0,1-2.5.9H16.4V25ZM26.7,42.7c1.8-1.1,3.3-1.8,4.6-2.8a7.9,7.9,0,0,0,1.6-2.3,11.9,11.9,0,0,0-2.6.5,23.3,23.3,0,0,0-3.4,2l-4,2.7c3.2,1.9,5.8,3.6,8.5,5.1.3.2,1,0,1.5-.1s-.1-1.4-.5-1.6S28.8,44,26.7,42.7Z"/><path class="cls-6" d="M25.5,59.5h48a4.8,4.8,0,0,1-2.1.9h-44A4.9,4.9,0,0,1,25.5,59.5Z"/><path class="cls-6" d="M16.4,59.3l8.1.2C22.8,60.7,17.8,60.6,16.4,59.3Z"/><path class="cls-7" d="M62.4,42.7c-2-1.2-3.7-2.1-5.3-3.2s-.7-1.2-1-1.7,1.5-.4,2.1-.1,4,2.4,6,3.6S66,43,64.3,44l-6.2,3.7c-.5.3-1.3,0-2,0s.4-1.4.9-1.7S60.4,43.9,62.4,42.7Z"/><path class="cls-7" d="M44.1,40.6l2.4-5.5c.5-1.3,1.2-1.5,2.2-.6l-6,15.6c-.2.5-1,.7-1.5,1a7.2,7.2,0,0,1-.4-1.9Z"/><path class="cls-7" d="M26.7,42.7c2.1,1.3,4,2.3,5.7,3.5s.3,1,.5,1.6-1.2.3-1.5.1c-2.7-1.5-5.3-3.2-8.5-5.1l4-2.7a23.3,23.3,0,0,1,3.4-2,11.9,11.9,0,0,1,2.6-.5,7.9,7.9,0,0,1-1.6,2.3C30,40.9,28.5,41.6,26.7,42.7Z"/></g></g></svg>