<svg xmlns="http://www.w3.org/2000/svg" viewBox="0 0 90 90"><defs><style>.cls-1{fill:#f2701f;}.cls-2{fill:#b25317;}.cls-3{fill:#7bb74a;}.cls-4{fill:#5b823d;}.cls-5{fill:#f7ad3b;}.cls-6{fill:#005b97;}.cls-7{fill:#1e9cd7;}.cls-8{fill:#804765;}.cls-9{fill:#efefee;}</style></defs><g id="Layer_2" data-name="Layer 2"><g id="Layer_1-2" data-name="Layer 1"><path class="cls-1" d="M51.6,89.4C38.7,91.4,27,88.3,17,80.1,2.6,68.2-2.9,52.6,1.5,34.5S18,4.9,36.4.9C56.8-3.5,78.3,8.1,86.3,27.5a10.6,10.6,0,0,1,.6,1.9l-6.7-6.1-2.1-.5c-5.4-1-11-1.6-16.2-3.2S50.6,15.1,45,12.7a10.4,10.4,0,0,0-1.6.6,69.3,69.3,0,0,1-21.6,7.9c-3.9.8-7.9,1.3-12,2a10,10,0,0,1,.2,1.6C13.3,45.1,22,62.2,38.4,75a20.7,20.7,0,0,0,1.7,2.4Z"/><path class="cls-2" d="M51.6,89.4l-11.5-12A20.7,20.7,0,0,1,38.4,75l6.1,3.9h.6a2.9,2.9,0,0,0,1-.3A73.1,73.1,0,0,0,69.7,54.4c5.7-9.6,8.7-20.1,10.5-31.1l6.7,6.1a41.1,41.1,0,0,1,.9,29.1c-5.7,16.9-17.5,27.1-35,30.8Z"/><path class="cls-3" d="M44.5,78.9,38.4,75C22,62.2,13.3,45.1,10,24.8a10,10,0,0,0-.2-1.6c4.1-.7,8.1-1.2,12-2a69.3,69.3,0,0,0,21.6-7.9,10.4,10.4,0,0,1,1.6-.6v6.5c-.1.1-.2.2-.2.3h0l-2.3,1a62.8,62.8,0,0,1-19.8,6.3l-6.4,1C18.2,34.2,19.7,40.3,22,46A52.1,52.1,0,0,0,44.2,71.9l.8.6c0,2.2.1,4.4.1,6.5h-.6Z"/><path class="cls-4" d="M45,19.2V12.7c5.6,2.4,11.1,5.1,16.9,6.9s10.8,2.2,16.2,3.2l2.1.5c-1.8,11-4.8,21.5-10.5,31.1A73.1,73.1,0,0,1,46.1,78.7a2.9,2.9,0,0,1-1,.3c0-2.1-.1-4.3-.1-6.5C61.8,62.3,70.2,46.9,73.1,27.6a67.9,67.9,0,0,1-27.5-7.9Z"/><path class="cls-5" d="M44.5,78.9h0Z"/><path class="cls-6" d="M45.6,19.7a67.9,67.9,0,0,0,27.5,7.9C70.2,46.9,61.8,62.3,45,72.5l-.8-.6a7.5,7.5,0,0,0,.8-2.4c.1-3.6,0-7.1,0-10.7a14.9,14.9,0,0,0,11.8-6.2c6.7-9.3.8-22.7-11.8-23.3-.1-3.3-.1-6.5-.2-9.7h0Z"/><path class="cls-7" d="M44.8,19.6c.1,3.2.1,6.4.2,9.7-5.8.4-10.4,2.9-13.1,8.2A14.7,14.7,0,0,0,45,58.8c0,3.6.1,7.1,0,10.7a7.5,7.5,0,0,1-.8,2.4A52.1,52.1,0,0,1,22,46c-2.3-5.7-3.8-11.8-5.7-18.1l6.4-1a62.8,62.8,0,0,0,19.8-6.3Z"/><path class="cls-8" d="M45.6,19.7l-.8-.2c0-.1.1-.2.2-.3Z"/><path class="cls-9" d="M45,58.8A14.7,14.7,0,0,1,31.9,37.5c2.7-5.3,7.3-7.8,13.1-8.2,12.6.6,18.5,14,11.8,23.3A14.9,14.9,0,0,1,45,58.8Zm-3.7-27A8.7,8.7,0,0,0,37,36.7h3.3l1.5-4.6v-.5ZM45,43.4h4.1c-.2-2-.4-3.7-.6-5.3H41.3c-.1,1.7-.2,3.4-.4,5.3Zm-3.9,2.1.3,5H45c3.9.2,4.4-.6,3.7-5.8H43.3a7.5,7.5,0,0,0-1.5,0C41.5,44.8,41.3,45.2,41.1,45.5ZM48,36.7c-.1-3-1.6-6.2-2.9-5.9s-2.6,3.1-3.2,5.1c-.1.2.1.5.2.8Zm-8.4,8.1h-4c-.6,5,.4,6.2,4.5,5.5C40,48.5,39.8,46.7,39.6,44.8Zm10.6,0c-.1,2-.2,3.8-.3,5.6,4.2.4,5-.6,4.5-5.6ZM41,52.1l3.9,5.3L48,52.7c.1-.1,0-.3-.1-.6Zm8.9-13.9c.1,1.8.3,3.5.5,5.2a16,16,0,0,0,2.2,0h1.9C54.7,38.2,54.2,37.7,49.9,38.2ZM39.6,43.3c.2-1.8.3-3.5.4-5.2-4.2-.3-5,.7-4.4,5.2Zm14.1-6.8-5.2-5.2C49.8,36.9,49.8,36.9,53.7,36.5ZM31.9,45c0,4.1.8,5.5,2.9,5.2C33.6,44.7,33.6,44.7,31.9,45Zm26.3-.1c-2.2-.1-2.2-.1-3,5.4C57.2,50.3,58,49,58.2,44.9ZM34.7,38.2c-2.2-.1-2.7.7-2.9,5.1h2Zm23.4,5c.1-4-.7-5.3-2.9-4.8a34,34,0,0,1,.7,3.4C56,43.4,56.7,43.8,58.1,43.2ZM36.9,52.9,41.2,57l.6-.5C40.4,51.8,40.4,51.8,36.9,52.9Zm12.7-.8c-.6,1.5-1.1,3-1.6,4.4l.7.5L53,52.9l-.6-.8Z"/><path class="cls-7" d="M48,36.7H42.1c-.1-.3-.3-.6-.2-.8.6-2,.6-4.5,3.2-5.1S47.9,33.7,48,36.7Z"/><path class="cls-6" d="M41.1,45.5c.2-.3.4-.7.7-.8a7.5,7.5,0,0,1,1.5,0h5.4c.7,5.2.2,6-3.7,5.8V49c0-3.5,0-3.5-3.4-3.5Z"/><path class="cls-7" d="M39.6,44.8c.2,1.9.4,3.7.5,5.5-4.1.7-5.1-.5-4.5-5.5Z"/><path class="cls-6" d="M50.2,44.8h4.2c.5,5-.3,6-4.5,5.6C50,48.6,50.1,46.8,50.2,44.8Z"/><path class="cls-7" d="M41,52.1h6.9c.1.3.2.5.1.6l-3.1,4.7Z"/><path class="cls-6" d="M49.9,38.2c4.3-.5,4.8,0,4.6,5.1H52.6a16,16,0,0,1-2.2,0C50.2,41.7,50,40,49.9,38.2Z"/><path class="cls-7" d="M39.6,43.3h-4c-.6-4.5.2-5.5,4.4-5.2C39.9,39.8,39.8,41.5,39.6,43.3Z"/><path class="cls-7" d="M45,43.4H40.9c.2-1.9.3-3.6.4-5.3H45Z"/><path class="cls-6" d="M45,43.4V38.1h3.5c.2,1.6.4,3.3.6,5.3Z"/><path class="cls-7" d="M41.1,45.5h.5c3.4,0,3.4,0,3.4,3.5v1.5H41.4Z"/><path class="cls-6" d="M53.7,36.5c-3.9.4-3.9.4-5.2-5.2Z"/><path class="cls-7" d="M31.9,45c1.7-.3,1.7-.3,2.9,5.2C32.7,50.5,31.9,49.1,31.9,45Z"/><path class="cls-7" d="M41.8,32.1l-1.5,4.6H37a8.7,8.7,0,0,1,4.3-4.9Z"/><path class="cls-6" d="M58.2,44.9c-.2,4.1-1,5.4-3,5.4C56,44.8,56,44.8,58.2,44.9Z"/><path class="cls-7" d="M34.7,38.2l-.9,5.1h-2C32,38.9,32.5,38.1,34.7,38.2Z"/><path class="cls-6" d="M58.1,43.2c-1.4.6-2.1.2-2.2-1.4a34,34,0,0,0-.7-3.4C57.4,37.9,58.2,39.2,58.1,43.2Z"/><path class="cls-7" d="M36.9,52.9c3.5-1.1,3.5-1.1,4.9,3.6l-.6.5Z"/><path class="cls-6" d="M49.6,52.1h2.8l.6.8L48.7,57l-.7-.5C48.5,55.1,49,53.6,49.6,52.1Z"/><path class="cls-3" d="M41.3,31.8l.6-.2a.9.9,0,0,0-.1.5Z"/></g></g></svg>